<svg width="101" height="33" viewBox="0 0 101 33" fill="none" xmlns="http://www.w3.org/2000/svg">
<rect x="3" y="1" width="95" height="30" fill="white"/>
<path d="M30.9233 22H28.2869L32.304 10.3636H35.4744L39.4858 22H36.8494L33.9347 13.0227H33.8438L30.9233 22ZM30.7585 17.4261H36.9858V19.3466H30.7585V17.4261ZM46.9332 13.7102C46.8878 13.2519 46.6927 12.8958 46.348 12.642C46.0033 12.3883 45.5355 12.2614 44.9446 12.2614C44.5431 12.2614 44.2041 12.3182 43.9276 12.4318C43.651 12.5417 43.4389 12.6951 43.2912 12.892C43.1473 13.089 43.0753 13.3125 43.0753 13.5625C43.0677 13.7708 43.1113 13.9527 43.206 14.108C43.3045 14.2633 43.4389 14.3977 43.6094 14.5114C43.7798 14.6212 43.9768 14.7178 44.2003 14.8011C44.4238 14.8807 44.6624 14.9489 44.9162 15.0057L45.9616 15.2557C46.4692 15.3693 46.9351 15.5208 47.3594 15.7102C47.7836 15.8996 48.151 16.1326 48.4616 16.4091C48.7723 16.6856 49.0128 17.0114 49.1832 17.3864C49.3575 17.7614 49.4465 18.1913 49.4503 18.6761C49.4465 19.3883 49.2647 20.0057 48.9048 20.5284C48.5488 21.0473 48.0336 21.4508 47.3594 21.7386C46.6889 22.0227 45.8802 22.1648 44.9332 22.1648C43.9938 22.1648 43.1757 22.0208 42.4787 21.733C41.7855 21.4451 41.2438 21.0189 40.8537 20.4545C40.4673 19.8864 40.2647 19.1837 40.2457 18.3466H42.6264C42.6529 18.7367 42.7647 19.0625 42.9616 19.3239C43.1624 19.5814 43.4295 19.7765 43.7628 19.9091C44.0999 20.0379 44.4806 20.1023 44.9048 20.1023C45.3215 20.1023 45.6832 20.0417 45.9901 19.9205C46.3007 19.7992 46.5412 19.6307 46.7116 19.4148C46.8821 19.1989 46.9673 18.9508 46.9673 18.6705C46.9673 18.4091 46.8897 18.1894 46.7344 18.0114C46.5829 17.8333 46.3594 17.6818 46.0639 17.5568C45.7723 17.4318 45.4143 17.3182 44.9901 17.2159L43.723 16.8977C42.742 16.6591 41.9673 16.286 41.3991 15.7784C40.831 15.2708 40.5488 14.5871 40.5526 13.7273C40.5488 13.0227 40.7363 12.4072 41.1151 11.8807C41.4976 11.3542 42.0223 10.9432 42.6889 10.6477C43.3556 10.3523 44.1132 10.2045 44.9616 10.2045C45.8253 10.2045 46.5791 10.3523 47.223 10.6477C47.8707 10.9432 48.3745 11.3542 48.7344 11.8807C49.0942 12.4072 49.2798 13.017 49.2912 13.7102H46.9332ZM61.7983 16.1818C61.7983 17.4508 61.5578 18.5303 61.0767 19.4205C60.5994 20.3106 59.9479 20.9905 59.1222 21.4602C58.3002 21.9261 57.3759 22.1591 56.3494 22.1591C55.3153 22.1591 54.3873 21.9242 53.5653 21.4545C52.7434 20.9848 52.0938 20.3049 51.6165 19.4148C51.1392 18.5246 50.9006 17.447 50.9006 16.1818C50.9006 14.9129 51.1392 13.8333 51.6165 12.9432C52.0938 12.053 52.7434 11.375 53.5653 10.9091C54.3873 10.4394 55.3153 10.2045 56.3494 10.2045C57.3759 10.2045 58.3002 10.4394 59.1222 10.9091C59.9479 11.375 60.5994 12.053 61.0767 12.9432C61.5578 13.8333 61.7983 14.9129 61.7983 16.1818ZM59.304 16.1818C59.304 15.3598 59.1809 14.6667 58.9347 14.1023C58.6922 13.5379 58.3494 13.1098 57.9062 12.8182C57.4631 12.5265 56.9441 12.3807 56.3494 12.3807C55.7547 12.3807 55.2358 12.5265 54.7926 12.8182C54.3494 13.1098 54.0047 13.5379 53.7585 14.1023C53.5161 14.6667 53.3949 15.3598 53.3949 16.1818C53.3949 17.0038 53.5161 17.697 53.7585 18.2614C54.0047 18.8258 54.3494 19.2538 54.7926 19.5455C55.2358 19.8371 55.7547 19.983 56.3494 19.983C56.9441 19.983 57.4631 19.8371 57.9062 19.5455C58.3494 19.2538 58.6922 18.8258 58.9347 18.2614C59.1809 17.697 59.304 17.0038 59.304 16.1818ZM69.9332 13.7102C69.8878 13.2519 69.6927 12.8958 69.348 12.642C69.0033 12.3883 68.5355 12.2614 67.9446 12.2614C67.5431 12.2614 67.2041 12.3182 66.9276 12.4318C66.651 12.5417 66.4389 12.6951 66.2912 12.892C66.1473 13.089 66.0753 13.3125 66.0753 13.5625C66.0677 13.7708 66.1113 13.9527 66.206 14.108C66.3045 14.2633 66.4389 14.3977 66.6094 14.5114C66.7798 14.6212 66.9768 14.7178 67.2003 14.8011C67.4238 14.8807 67.6624 14.9489 67.9162 15.0057L68.9616 15.2557C69.4692 15.3693 69.9351 15.5208 70.3594 15.7102C70.7836 15.8996 71.151 16.1326 71.4616 16.4091C71.7723 16.6856 72.0128 17.0114 72.1832 17.3864C72.3575 17.7614 72.4465 18.1913 72.4503 18.6761C72.4465 19.3883 72.2647 20.0057 71.9048 20.5284C71.5488 21.0473 71.0336 21.4508 70.3594 21.7386C69.6889 22.0227 68.8802 22.1648 67.9332 22.1648C66.9938 22.1648 66.1757 22.0208 65.4787 21.733C64.7855 21.4451 64.2438 21.0189 63.8537 20.4545C63.4673 19.8864 63.2647 19.1837 63.2457 18.3466H65.6264C65.6529 18.7367 65.7647 19.0625 65.9616 19.3239C66.1624 19.5814 66.4295 19.7765 66.7628 19.9091C67.0999 20.0379 67.4806 20.1023 67.9048 20.1023C68.3215 20.1023 68.6832 20.0417 68.9901 19.9205C69.3007 19.7992 69.5412 19.6307 69.7116 19.4148C69.8821 19.1989 69.9673 18.9508 69.9673 18.6705C69.9673 18.4091 69.8897 18.1894 69.7344 18.0114C69.5829 17.8333 69.3594 17.6818 69.0639 17.5568C68.7723 17.4318 68.4143 17.3182 67.9901 17.2159L66.723 16.8977C65.742 16.6591 64.9673 16.286 64.3991 15.7784C63.831 15.2708 63.5488 14.5871 63.5526 13.7273C63.5488 13.0227 63.7363 12.4072 64.1151 11.8807C64.4976 11.3542 65.0223 10.9432 65.6889 10.6477C66.3556 10.3523 67.1132 10.2045 67.9616 10.2045C68.8253 10.2045 69.5791 10.3523 70.223 10.6477C70.8707 10.9432 71.3745 11.3542 71.7344 11.8807C72.0942 12.4072 72.2798 13.017 72.2912 13.7102H69.9332Z" fill="black"/>
</svg>
