<svg width="122" height="33" viewBox="0 0 122 33" fill="none" xmlns="http://www.w3.org/2000/svg">
<rect y="1" width="122" height="30" fill="white"/>
<path d="M30.4659 14.4375H27.9773C27.9318 14.1155 27.839 13.8295 27.6989 13.5795C27.5587 13.3258 27.3788 13.1098 27.1591 12.9318C26.9394 12.7538 26.6856 12.6174 26.3977 12.5227C26.1136 12.428 25.8049 12.3807 25.4716 12.3807C24.8693 12.3807 24.3447 12.5303 23.8977 12.8295C23.4508 13.125 23.1042 13.5568 22.858 14.125C22.6117 14.6894 22.4886 15.375 22.4886 16.1818C22.4886 17.0114 22.6117 17.7083 22.858 18.2727C23.108 18.8371 23.4564 19.2633 23.9034 19.5511C24.3504 19.839 24.8674 19.983 25.4545 19.983C25.7841 19.983 26.089 19.9394 26.3693 19.8523C26.6534 19.7652 26.9053 19.6383 27.125 19.4716C27.3447 19.3011 27.5265 19.0947 27.6705 18.8523C27.8182 18.6098 27.9205 18.3333 27.9773 18.0227L30.4659 18.0341C30.4015 18.5682 30.2405 19.0833 29.983 19.5795C29.7292 20.072 29.3864 20.5133 28.9545 20.9034C28.5265 21.2898 28.0152 21.5966 27.4205 21.8239C26.8295 22.0473 26.161 22.1591 25.4148 22.1591C24.3769 22.1591 23.4489 21.9242 22.6307 21.4545C21.8163 20.9848 21.1723 20.3049 20.6989 19.4148C20.2292 18.5246 19.9943 17.447 19.9943 16.1818C19.9943 14.9129 20.233 13.8333 20.7102 12.9432C21.1875 12.053 21.8352 11.375 22.6534 10.9091C23.4716 10.4394 24.392 10.2045 25.4148 10.2045C26.089 10.2045 26.714 10.2992 27.2898 10.4886C27.8693 10.678 28.3826 10.9545 28.8295 11.3182C29.2765 11.678 29.6402 12.1193 29.9205 12.642C30.2045 13.1648 30.3864 13.7633 30.4659 14.4375ZM32.2301 22V10.3636H34.6903V15.1648H39.6847V10.3636H42.1392V22H39.6847V17.1932H34.6903V22H32.2301ZM46.1733 22H43.5369L47.554 10.3636H50.7244L54.7358 22H52.0994L49.1847 13.0227H49.0938L46.1733 22ZM46.0085 17.4261H52.2358V19.3466H46.0085V17.4261ZM65.8693 10.3636V22H63.7443L58.6818 14.6761H58.5966V22H56.1364V10.3636H58.2955L63.3182 17.6818H63.4205V10.3636H65.8693ZM72.027 22H67.902V10.3636H72.0611C73.2315 10.3636 74.2391 10.5966 75.0838 11.0625C75.9285 11.5246 76.5781 12.1894 77.0327 13.0568C77.491 13.9242 77.7202 14.9621 77.7202 16.1705C77.7202 17.3826 77.491 18.4242 77.0327 19.2955C76.5781 20.1667 75.9247 20.8352 75.0724 21.3011C74.224 21.767 73.2088 22 72.027 22ZM70.3622 19.892H71.9247C72.652 19.892 73.2637 19.7633 73.7599 19.5057C74.2599 19.2443 74.6349 18.8409 74.8849 18.2955C75.1387 17.7462 75.2656 17.0379 75.2656 16.1705C75.2656 15.3106 75.1387 14.608 74.8849 14.0625C74.6349 13.517 74.2618 13.1155 73.7656 12.858C73.2694 12.6004 72.6577 12.4716 71.9304 12.4716H70.3622V19.892ZM90.2358 16.1818C90.2358 17.4508 89.9953 18.5303 89.5142 19.4205C89.0369 20.3106 88.3854 20.9905 87.5597 21.4602C86.7377 21.9261 85.8134 22.1591 84.7869 22.1591C83.7528 22.1591 82.8248 21.9242 82.0028 21.4545C81.1809 20.9848 80.5313 20.3049 80.054 19.4148C79.5767 18.5246 79.3381 17.447 79.3381 16.1818C79.3381 14.9129 79.5767 13.8333 80.054 12.9432C80.5313 12.053 81.1809 11.375 82.0028 10.9091C82.8248 10.4394 83.7528 10.2045 84.7869 10.2045C85.8134 10.2045 86.7377 10.4394 87.5597 10.9091C88.3854 11.375 89.0369 12.053 89.5142 12.9432C89.9953 13.8333 90.2358 14.9129 90.2358 16.1818ZM87.7415 16.1818C87.7415 15.3598 87.6184 14.6667 87.3722 14.1023C87.1297 13.5379 86.7869 13.1098 86.3438 12.8182C85.9006 12.5265 85.3816 12.3807 84.7869 12.3807C84.1922 12.3807 83.6733 12.5265 83.2301 12.8182C82.7869 13.1098 82.4422 13.5379 82.196 14.1023C81.9536 14.6667 81.8324 15.3598 81.8324 16.1818C81.8324 17.0038 81.9536 17.697 82.196 18.2614C82.4422 18.8258 82.7869 19.2538 83.2301 19.5455C83.6733 19.8371 84.1922 19.983 84.7869 19.983C85.3816 19.983 85.9006 19.8371 86.3438 19.5455C86.7869 19.2538 87.1297 18.8258 87.3722 18.2614C87.6184 17.697 87.7415 17.0038 87.7415 16.1818ZM101.791 10.3636V22H99.6662L94.6037 14.6761H94.5185V22H92.0582V10.3636H94.2173L99.2401 17.6818H99.3423V10.3636H101.791Z" fill="black"/>
</svg>
