<svg width="140" height="33" viewBox="0 0 140 33" fill="none" xmlns="http://www.w3.org/2000/svg">
<rect x="14" y="1" width="112" height="30" fill="white"/>
<path d="M50.7472 14.4375H48.2585C48.2131 14.1155 48.1203 13.8295 47.9801 13.5795C47.84 13.3258 47.66 13.1098 47.4403 12.9318C47.2206 12.7538 46.9669 12.6174 46.679 12.5227C46.3949 12.428 46.0862 12.3807 45.7528 12.3807C45.1506 12.3807 44.6259 12.5303 44.179 12.8295C43.732 13.125 43.3854 13.5568 43.1392 14.125C42.893 14.6894 42.7699 15.375 42.7699 16.1818C42.7699 17.0114 42.893 17.7083 43.1392 18.2727C43.3892 18.8371 43.7377 19.2633 44.1847 19.5511C44.6316 19.839 45.1487 19.983 45.7358 19.983C46.0653 19.983 46.3703 19.9394 46.6506 19.8523C46.9347 19.7652 47.1866 19.6383 47.4062 19.4716C47.6259 19.3011 47.8078 19.0947 47.9517 18.8523C48.0994 18.6098 48.2017 18.3333 48.2585 18.0227L50.7472 18.0341C50.6828 18.5682 50.5218 19.0833 50.2642 19.5795C50.0104 20.072 49.6676 20.5133 49.2358 20.9034C48.8078 21.2898 48.2964 21.5966 47.7017 21.8239C47.1108 22.0473 46.4422 22.1591 45.696 22.1591C44.6581 22.1591 43.7301 21.9242 42.9119 21.4545C42.0975 20.9848 41.4536 20.3049 40.9801 19.4148C40.5104 18.5246 40.2756 17.447 40.2756 16.1818C40.2756 14.9129 40.5142 13.8333 40.9915 12.9432C41.4688 12.053 42.1165 11.375 42.9347 10.9091C43.7528 10.4394 44.6733 10.2045 45.696 10.2045C46.3703 10.2045 46.9953 10.2992 47.571 10.4886C48.1506 10.678 48.6638 10.9545 49.1108 11.3182C49.5578 11.678 49.9214 12.1193 50.2017 12.642C50.4858 13.1648 50.6676 13.7633 50.7472 14.4375ZM52.5114 22V10.3636H54.9716V15.1648H59.9659V10.3636H62.4205V22H59.9659V17.1932H54.9716V22H52.5114ZM66.9091 10.3636V22H64.4489V10.3636H66.9091ZM71.0355 10.3636L73.848 19.2045H73.956L76.7741 10.3636H79.5014L75.4901 22H72.3196L68.3026 10.3636H71.0355ZM81.3608 22H78.7244L82.7415 10.3636H85.9119L89.9233 22H87.2869L84.3722 13.0227H84.2812L81.3608 22ZM81.196 17.4261H87.4233V19.3466H81.196V17.4261ZM97.3707 13.7102C97.3253 13.2519 97.1302 12.8958 96.7855 12.642C96.4408 12.3883 95.973 12.2614 95.3821 12.2614C94.9806 12.2614 94.6416 12.3182 94.3651 12.4318C94.0885 12.5417 93.8764 12.6951 93.7287 12.892C93.5848 13.089 93.5128 13.3125 93.5128 13.5625C93.5052 13.7708 93.5488 13.9527 93.6435 14.108C93.742 14.2633 93.8764 14.3977 94.0469 14.5114C94.2173 14.6212 94.4143 14.7178 94.6378 14.8011C94.8613 14.8807 95.0999 14.9489 95.3537 15.0057L96.3991 15.2557C96.9067 15.3693 97.3726 15.5208 97.7969 15.7102C98.2211 15.8996 98.5885 16.1326 98.8991 16.4091C99.2098 16.6856 99.4503 17.0114 99.6207 17.3864C99.795 17.7614 99.884 18.1913 99.8878 18.6761C99.884 19.3883 99.7022 20.0057 99.3423 20.5284C98.9863 21.0473 98.4711 21.4508 97.7969 21.7386C97.1264 22.0227 96.3177 22.1648 95.3707 22.1648C94.4313 22.1648 93.6132 22.0208 92.9162 21.733C92.223 21.4451 91.6813 21.0189 91.2912 20.4545C90.9048 19.8864 90.7022 19.1837 90.6832 18.3466H93.0639C93.0904 18.7367 93.2022 19.0625 93.3991 19.3239C93.5999 19.5814 93.867 19.7765 94.2003 19.9091C94.5374 20.0379 94.9181 20.1023 95.3423 20.1023C95.759 20.1023 96.1207 20.0417 96.4276 19.9205C96.7382 19.7992 96.9787 19.6307 97.1491 19.4148C97.3196 19.1989 97.4048 18.9508 97.4048 18.6705C97.4048 18.4091 97.3272 18.1894 97.1719 18.0114C97.0204 17.8333 96.7969 17.6818 96.5014 17.5568C96.2098 17.4318 95.8518 17.3182 95.4276 17.2159L94.1605 16.8977C93.1795 16.6591 92.4048 16.286 91.8366 15.7784C91.2685 15.2708 90.9863 14.5871 90.9901 13.7273C90.9863 13.0227 91.1738 12.4072 91.5526 11.8807C91.9351 11.3542 92.4598 10.9432 93.1264 10.6477C93.7931 10.3523 94.5507 10.2045 95.3991 10.2045C96.2628 10.2045 97.0166 10.3523 97.6605 10.6477C98.3082 10.9432 98.812 11.3542 99.1719 11.8807C99.5317 12.4072 99.7173 13.017 99.7287 13.7102H97.3707Z" fill="black"/>
</svg>
