<svg width="157" height="33" viewBox="0 0 157 33" fill="none" xmlns="http://www.w3.org/2000/svg">
<rect y="1" width="157" height="30" fill="white"/>
<path d="M21.4645 22V10.3636H23.9247V19.9716H28.9134V22H21.4645ZM31.8849 10.3636V11.5909C31.8849 11.9394 31.8168 12.2955 31.6804 12.6591C31.5478 13.0189 31.3698 13.3598 31.1463 13.6818C30.9228 14 30.6785 14.2708 30.4134 14.4943L29.3452 13.8636C29.5346 13.5644 29.7012 13.233 29.8452 12.8693C29.9929 12.5057 30.0668 12.0833 30.0668 11.6023V10.3636H31.8849ZM44.2358 16.1818C44.2358 17.4508 43.9953 18.5303 43.5142 19.4205C43.0369 20.3106 42.3854 20.9905 41.5597 21.4602C40.7377 21.9261 39.8134 22.1591 38.7869 22.1591C37.7528 22.1591 36.8248 21.9242 36.0028 21.4545C35.1809 20.9848 34.5313 20.3049 34.054 19.4148C33.5767 18.5246 33.3381 17.447 33.3381 16.1818C33.3381 14.9129 33.5767 13.8333 34.054 12.9432C34.5313 12.053 35.1809 11.375 36.0028 10.9091C36.8248 10.4394 37.7528 10.2045 38.7869 10.2045C39.8134 10.2045 40.7377 10.4394 41.5597 10.9091C42.3854 11.375 43.0369 12.053 43.5142 12.9432C43.9953 13.8333 44.2358 14.9129 44.2358 16.1818ZM41.7415 16.1818C41.7415 15.3598 41.6184 14.6667 41.3722 14.1023C41.1297 13.5379 40.7869 13.1098 40.3438 12.8182C39.9006 12.5265 39.3816 12.3807 38.7869 12.3807C38.1922 12.3807 37.6733 12.5265 37.2301 12.8182C36.7869 13.1098 36.4422 13.5379 36.196 14.1023C35.9536 14.6667 35.8324 15.3598 35.8324 16.1818C35.8324 17.0038 35.9536 17.697 36.196 18.2614C36.4422 18.8258 36.7869 19.2538 37.2301 19.5455C37.6733 19.8371 38.1922 19.983 38.7869 19.983C39.3816 19.983 39.9006 19.8371 40.3438 19.5455C40.7869 19.2538 41.1297 18.8258 41.3722 18.2614C41.6184 17.697 41.7415 17.0038 41.7415 16.1818ZM46.0582 22V10.3636H50.6491C51.5279 10.3636 52.2779 10.5208 52.8991 10.8352C53.5241 11.1458 53.9995 11.5871 54.3253 12.1591C54.6548 12.7273 54.8196 13.3958 54.8196 14.1648C54.8196 14.9375 54.6529 15.6023 54.3196 16.1591C53.9863 16.7121 53.5033 17.1364 52.8707 17.4318C52.242 17.7273 51.4806 17.875 50.5866 17.875H47.5128V15.8977H50.1889C50.6586 15.8977 51.0488 15.8333 51.3594 15.7045C51.67 15.5758 51.901 15.3826 52.0526 15.125C52.2079 14.8674 52.2855 14.5473 52.2855 14.1648C52.2855 13.7784 52.2079 13.4527 52.0526 13.1875C51.901 12.9223 51.6681 12.7216 51.3537 12.5852C51.0431 12.4451 50.651 12.375 50.1776 12.375H48.5185V22H46.0582ZM52.3423 16.7045L55.2344 22H52.5185L49.6889 16.7045H52.3423ZM56.5582 22V10.3636H64.3991V12.392H59.0185V15.1648H63.9957V17.1932H59.0185V19.9716H64.4219V22H56.5582ZM68.3608 22H65.7244L69.7415 10.3636H72.9119L76.9233 22H74.2869L71.3722 13.0227H71.2812L68.3608 22ZM68.196 17.4261H74.4233V19.3466H68.196V17.4261ZM78.3239 22V10.3636H80.7841V19.9716H85.7727V22H78.3239ZM91.1051 22V10.3636H95.696C96.5786 10.3636 97.3305 10.5322 97.9517 10.8693C98.5729 11.2027 99.0464 11.6667 99.3722 12.2614C99.7017 12.8523 99.8665 13.5341 99.8665 14.3068C99.8665 15.0795 99.6998 15.7614 99.3665 16.3523C99.0331 16.9432 98.5502 17.4034 97.9176 17.733C97.2888 18.0625 96.5275 18.2273 95.6335 18.2273H92.7074V16.2557H95.2358C95.7093 16.2557 96.0994 16.1742 96.4062 16.0114C96.7169 15.8447 96.9479 15.6155 97.0994 15.3239C97.2547 15.0284 97.3324 14.6894 97.3324 14.3068C97.3324 13.9205 97.2547 13.5833 97.0994 13.2955C96.9479 13.0038 96.7169 12.7784 96.4062 12.6193C96.0956 12.4564 95.7017 12.375 95.2244 12.375H93.5653V22H91.1051ZM102.126 22H99.4901L103.507 10.3636H106.678L110.689 22H108.053L105.138 13.0227H105.047L102.126 22ZM101.962 17.4261H108.189V19.3466H101.962V17.4261ZM112.089 22V10.3636H116.68C117.559 10.3636 118.309 10.5208 118.93 10.8352C119.555 11.1458 120.031 11.5871 120.357 12.1591C120.686 12.7273 120.851 13.3958 120.851 14.1648C120.851 14.9375 120.684 15.6023 120.351 16.1591C120.018 16.7121 119.535 17.1364 118.902 17.4318C118.273 17.7273 117.512 17.875 116.618 17.875H113.544V15.8977H116.22C116.69 15.8977 117.08 15.8333 117.391 15.7045C117.701 15.5758 117.932 15.3826 118.084 15.125C118.239 14.8674 118.317 14.5473 118.317 14.1648C118.317 13.7784 118.239 13.4527 118.084 13.1875C117.932 12.9223 117.699 12.7216 117.385 12.5852C117.074 12.4451 116.682 12.375 116.209 12.375H114.55V22H112.089ZM118.374 16.7045L121.266 22H118.55L115.72 16.7045H118.374ZM125.05 10.3636V22H122.589V10.3636H125.05ZM133.386 13.7102C133.341 13.2519 133.146 12.8958 132.801 12.642C132.456 12.3883 131.989 12.2614 131.398 12.2614C130.996 12.2614 130.657 12.3182 130.381 12.4318C130.104 12.5417 129.892 12.6951 129.744 12.892C129.6 13.089 129.528 13.3125 129.528 13.5625C129.521 13.7708 129.564 13.9527 129.659 14.108C129.758 14.2633 129.892 14.3977 130.062 14.5114C130.233 14.6212 130.43 14.7178 130.653 14.8011C130.877 14.8807 131.116 14.9489 131.369 15.0057L132.415 15.2557C132.922 15.3693 133.388 15.5208 133.812 15.7102C134.237 15.8996 134.604 16.1326 134.915 16.4091C135.225 16.6856 135.466 17.0114 135.636 17.3864C135.811 17.7614 135.9 18.1913 135.903 18.6761C135.9 19.3883 135.718 20.0057 135.358 20.5284C135.002 21.0473 134.487 21.4508 133.812 21.7386C133.142 22.0227 132.333 22.1648 131.386 22.1648C130.447 22.1648 129.629 22.0208 128.932 21.733C128.239 21.4451 127.697 21.0189 127.307 20.4545C126.92 19.8864 126.718 19.1837 126.699 18.3466H129.08C129.106 18.7367 129.218 19.0625 129.415 19.3239C129.616 19.5814 129.883 19.7765 130.216 19.9091C130.553 20.0379 130.934 20.1023 131.358 20.1023C131.775 20.1023 132.136 20.0417 132.443 19.9205C132.754 19.7992 132.994 19.6307 133.165 19.4148C133.335 19.1989 133.42 18.9508 133.42 18.6705C133.42 18.4091 133.343 18.1894 133.188 18.0114C133.036 17.8333 132.813 17.6818 132.517 17.5568C132.225 17.4318 131.867 17.3182 131.443 17.2159L130.176 16.8977C129.195 16.6591 128.42 16.286 127.852 15.7784C127.284 15.2708 127.002 14.5871 127.006 13.7273C127.002 13.0227 127.189 12.4072 127.568 11.8807C127.951 11.3542 128.475 10.9432 129.142 10.6477C129.809 10.3523 130.566 10.2045 131.415 10.2045C132.278 10.2045 133.032 10.3523 133.676 10.6477C134.324 10.9432 134.828 11.3542 135.188 11.8807C135.547 12.4072 135.733 13.017 135.744 13.7102H133.386Z" fill="black"/>
</svg>
