<svg width="148" height="33" viewBox="0 0 148 33" fill="none" xmlns="http://www.w3.org/2000/svg">
<rect y="1" width="148" height="30" fill="white"/>
<path d="M18.1442 10.3636H21.1783L24.3828 18.1818H24.5192L27.7237 10.3636H30.7578V22H28.3714V14.4261H28.2749L25.2635 21.9432H23.6385L20.6271 14.3977H20.5305V22H18.1442V10.3636ZM34.7905 22H32.1541L36.1712 10.3636H39.3416L43.353 22H40.7166L37.8018 13.0227H37.7109L34.7905 22ZM34.6257 17.4261H40.853V19.3466H34.6257V17.4261ZM50.8004 13.7102C50.755 13.2519 50.5599 12.8958 50.2152 12.642C49.8705 12.3883 49.4027 12.2614 48.8118 12.2614C48.4103 12.2614 48.0713 12.3182 47.7947 12.4318C47.5182 12.5417 47.3061 12.6951 47.1584 12.892C47.0144 13.089 46.9425 13.3125 46.9425 13.5625C46.9349 13.7708 46.9785 13.9527 47.0732 14.108C47.1716 14.2633 47.3061 14.3977 47.4766 14.5114C47.647 14.6212 47.844 14.7178 48.0675 14.8011C48.291 14.8807 48.5296 14.9489 48.7834 15.0057L49.8288 15.2557C50.3364 15.3693 50.8023 15.5208 51.2266 15.7102C51.6508 15.8996 52.0182 16.1326 52.3288 16.4091C52.6394 16.6856 52.88 17.0114 53.0504 17.3864C53.2247 17.7614 53.3137 18.1913 53.3175 18.6761C53.3137 19.3883 53.1319 20.0057 52.772 20.5284C52.416 21.0473 51.9008 21.4508 51.2266 21.7386C50.5561 22.0227 49.7474 22.1648 48.8004 22.1648C47.861 22.1648 47.0429 22.0208 46.3459 21.733C45.6527 21.4451 45.111 21.0189 44.7209 20.4545C44.3345 19.8864 44.1319 19.1837 44.1129 18.3466H46.4936C46.5201 18.7367 46.6319 19.0625 46.8288 19.3239C47.0296 19.5814 47.2966 19.7765 47.63 19.9091C47.9671 20.0379 48.3478 20.1023 48.772 20.1023C49.1887 20.1023 49.5504 20.0417 49.8572 19.9205C50.1679 19.7992 50.4084 19.6307 50.5788 19.4148C50.7493 19.1989 50.8345 18.9508 50.8345 18.6705C50.8345 18.4091 50.7569 18.1894 50.6016 18.0114C50.45 17.8333 50.2266 17.6818 49.9311 17.5568C49.6394 17.4318 49.2815 17.3182 48.8572 17.2159L47.5902 16.8977C46.6091 16.6591 45.8345 16.286 45.2663 15.7784C44.6982 15.2708 44.416 14.5871 44.4197 13.7273C44.416 13.0227 44.6035 12.4072 44.9822 11.8807C45.3648 11.3542 45.8894 10.9432 46.5561 10.6477C47.2228 10.3523 47.9804 10.2045 48.8288 10.2045C49.6925 10.2045 50.4463 10.3523 51.0902 10.6477C51.7379 10.9432 52.2417 11.3542 52.6016 11.8807C52.9614 12.4072 53.147 13.017 53.1584 13.7102H50.8004ZM54.5291 12.392V10.3636H64.0859V12.392H60.5234V22H58.0916V12.392H54.5291ZM65.6598 22V10.3636H73.5007V12.392H68.12V15.1648H73.0973V17.1932H68.12V19.9716H73.5234V22H65.6598ZM75.4567 22V10.3636H80.0476C80.9264 10.3636 81.6764 10.5208 82.2976 10.8352C82.9226 11.1458 83.398 11.5871 83.7237 12.1591C84.0533 12.7273 84.218 13.3958 84.218 14.1648C84.218 14.9375 84.0514 15.6023 83.718 16.1591C83.3847 16.7121 82.9018 17.1364 82.2692 17.4318C81.6404 17.7273 80.879 17.875 79.9851 17.875H76.9112V15.8977H79.5874C80.0571 15.8977 80.4472 15.8333 80.7578 15.7045C81.0684 15.5758 81.2995 15.3826 81.451 15.125C81.6063 14.8674 81.6839 14.5473 81.6839 14.1648C81.6839 13.7784 81.6063 13.4527 81.451 13.1875C81.2995 12.9223 81.0665 12.7216 80.7521 12.5852C80.4415 12.4451 80.0495 12.375 79.576 12.375H77.9169V22H75.4567ZM81.7408 16.7045L84.6328 22H81.9169L79.0874 16.7045H81.7408ZM96.2237 14.4375H93.7351C93.6896 14.1155 93.5968 13.8295 93.4567 13.5795C93.3165 13.3258 93.1366 13.1098 92.9169 12.9318C92.6972 12.7538 92.4434 12.6174 92.1555 12.5227C91.8714 12.428 91.5627 12.3807 91.2294 12.3807C90.6271 12.3807 90.1025 12.5303 89.6555 12.8295C89.2086 13.125 88.862 13.5568 88.6158 14.125C88.3696 14.6894 88.2464 15.375 88.2464 16.1818C88.2464 17.0114 88.3696 17.7083 88.6158 18.2727C88.8658 18.8371 89.2143 19.2633 89.6612 19.5511C90.1082 19.839 90.6252 19.983 91.2124 19.983C91.5419 19.983 91.8468 19.9394 92.1271 19.8523C92.4112 19.7652 92.6631 19.6383 92.8828 19.4716C93.1025 19.3011 93.2843 19.0947 93.4283 18.8523C93.576 18.6098 93.6783 18.3333 93.7351 18.0227L96.2237 18.0341C96.1593 18.5682 95.9983 19.0833 95.7408 19.5795C95.487 20.072 95.1442 20.5133 94.7124 20.9034C94.2843 21.2898 93.773 21.5966 93.1783 21.8239C92.5874 22.0473 91.9188 22.1591 91.1726 22.1591C90.1347 22.1591 89.2067 21.9242 88.3885 21.4545C87.5741 20.9848 86.9302 20.3049 86.4567 19.4148C85.987 18.5246 85.7521 17.447 85.7521 16.1818C85.7521 14.9129 85.9908 13.8333 86.468 12.9432C86.9453 12.053 87.593 11.375 88.4112 10.9091C89.2294 10.4394 90.1499 10.2045 91.1726 10.2045C91.8468 10.2045 92.4718 10.2992 93.0476 10.4886C93.6271 10.678 94.1404 10.9545 94.5874 11.3182C95.0343 11.678 95.398 12.1193 95.6783 12.642C95.9624 13.1648 96.1442 13.7633 96.2237 14.4375ZM99.7749 22H97.1385L101.156 10.3636H104.326L108.337 22H105.701L102.786 13.0227H102.695L99.7749 22ZM99.6101 17.4261H105.837V19.3466H99.6101V17.4261ZM109.738 22V10.3636H114.329C115.208 10.3636 115.958 10.5208 116.579 10.8352C117.204 11.1458 117.679 11.5871 118.005 12.1591C118.335 12.7273 118.499 13.3958 118.499 14.1648C118.499 14.9375 118.333 15.6023 117.999 16.1591C117.666 16.7121 117.183 17.1364 116.55 17.4318C115.922 17.7273 115.16 17.875 114.266 17.875H111.192V15.8977H113.869C114.338 15.8977 114.728 15.8333 115.039 15.7045C115.35 15.5758 115.581 15.3826 115.732 15.125C115.888 14.8674 115.965 14.5473 115.965 14.1648C115.965 13.7784 115.888 13.4527 115.732 13.1875C115.581 12.9223 115.348 12.7216 115.033 12.5852C114.723 12.4451 114.331 12.375 113.857 12.375H112.198V22H109.738ZM116.022 16.7045L118.914 22H116.198L113.369 16.7045H116.022ZM124.363 22H120.238V10.3636H124.397C125.567 10.3636 126.575 10.5966 127.42 11.0625C128.264 11.5246 128.914 12.1894 129.369 13.0568C129.827 13.9242 130.056 14.9621 130.056 16.1705C130.056 17.3826 129.827 18.4242 129.369 19.2955C128.914 20.1667 128.261 20.8352 127.408 21.3011C126.56 21.767 125.545 22 124.363 22ZM122.698 19.892H124.261C124.988 19.892 125.6 19.7633 126.096 19.5057C126.596 19.2443 126.971 18.8409 127.221 18.2955C127.475 17.7462 127.602 17.0379 127.602 16.1705C127.602 15.3106 127.475 14.608 127.221 14.0625C126.971 13.517 126.598 13.1155 126.102 12.858C125.605 12.6004 124.994 12.4716 124.266 12.4716H122.698V19.892Z" fill="black"/>
</svg>
