<svg width="140" height="33" viewBox="0 0 140 33" fill="none" xmlns="http://www.w3.org/2000/svg">
<rect x="4" y="1" width="132" height="30" fill="white"/>
<path d="M30.8473 10.3636H33.8814L37.0859 18.1818H37.2223L40.4268 10.3636H43.4609V22H41.0746V14.4261H40.978L37.9666 21.9432H36.3416L33.3303 14.3977H33.2337V22H30.8473V10.3636ZM56.1811 16.1818C56.1811 17.4508 55.9406 18.5303 55.4595 19.4205C54.9822 20.3106 54.3307 20.9905 53.505 21.4602C52.683 21.9261 51.7588 22.1591 50.7322 22.1591C49.6982 22.1591 48.7701 21.9242 47.9482 21.4545C47.1262 20.9848 46.4766 20.3049 45.9993 19.4148C45.522 18.5246 45.2834 17.447 45.2834 16.1818C45.2834 14.9129 45.522 13.8333 45.9993 12.9432C46.4766 12.053 47.1262 11.375 47.9482 10.9091C48.7701 10.4394 49.6982 10.2045 50.7322 10.2045C51.7588 10.2045 52.683 10.4394 53.505 10.9091C54.3307 11.375 54.9822 12.053 55.4595 12.9432C55.9406 13.8333 56.1811 14.9129 56.1811 16.1818ZM53.6868 16.1818C53.6868 15.3598 53.5637 14.6667 53.3175 14.1023C53.075 13.5379 52.7322 13.1098 52.2891 12.8182C51.8459 12.5265 51.3269 12.3807 50.7322 12.3807C50.1375 12.3807 49.6186 12.5265 49.1754 12.8182C48.7322 13.1098 48.3875 13.5379 48.1413 14.1023C47.8989 14.6667 47.7777 15.3598 47.7777 16.1818C47.7777 17.0038 47.8989 17.697 48.1413 18.2614C48.3875 18.8258 48.7322 19.2538 49.1754 19.5455C49.6186 19.8371 50.1375 19.983 50.7322 19.983C51.3269 19.983 51.8459 19.8371 52.2891 19.5455C52.7322 19.2538 53.075 18.8258 53.3175 18.2614C53.5637 17.697 53.6868 17.0038 53.6868 16.1818ZM67.7365 10.3636V22H65.6115L60.549 14.6761H60.4638V22H58.0036V10.3636H60.1626L65.1854 17.6818H65.2876V10.3636H67.7365ZM80.0362 14.4375H77.5476C77.5021 14.1155 77.4093 13.8295 77.2692 13.5795C77.129 13.3258 76.9491 13.1098 76.7294 12.9318C76.5097 12.7538 76.2559 12.6174 75.968 12.5227C75.6839 12.428 75.3752 12.3807 75.0419 12.3807C74.4396 12.3807 73.915 12.5303 73.468 12.8295C73.0211 13.125 72.6745 13.5568 72.4283 14.125C72.1821 14.6894 72.0589 15.375 72.0589 16.1818C72.0589 17.0114 72.1821 17.7083 72.4283 18.2727C72.6783 18.8371 73.0268 19.2633 73.4737 19.5511C73.9207 19.839 74.4377 19.983 75.0249 19.983C75.3544 19.983 75.6593 19.9394 75.9396 19.8523C76.2237 19.7652 76.4756 19.6383 76.6953 19.4716C76.915 19.3011 77.0968 19.0947 77.2408 18.8523C77.3885 18.6098 77.4908 18.3333 77.5476 18.0227L80.0362 18.0341C79.9718 18.5682 79.8108 19.0833 79.5533 19.5795C79.2995 20.072 78.9567 20.5133 78.5249 20.9034C78.0968 21.2898 77.5855 21.5966 76.9908 21.8239C76.3999 22.0473 75.7313 22.1591 74.9851 22.1591C73.9472 22.1591 73.0192 21.9242 72.201 21.4545C71.3866 20.9848 70.7427 20.3049 70.2692 19.4148C69.7995 18.5246 69.5646 17.447 69.5646 16.1818C69.5646 14.9129 69.8033 13.8333 70.2805 12.9432C70.7578 12.053 71.4055 11.375 72.2237 10.9091C73.0419 10.4394 73.9624 10.2045 74.9851 10.2045C75.6593 10.2045 76.2843 10.2992 76.8601 10.4886C77.4396 10.678 77.9529 10.9545 78.3999 11.3182C78.8468 11.678 79.2105 12.1193 79.4908 12.642C79.7749 13.1648 79.9567 13.7633 80.0362 14.4375ZM81.8004 22V10.3636H84.2607V19.9716H89.2493V22H81.8004ZM90.8786 22V10.3636H98.7195V12.392H93.3388V15.1648H98.3161V17.1932H93.3388V19.9716H98.7422V22H90.8786ZM100.675 22V10.3636H105.266C106.145 10.3636 106.895 10.5208 107.516 10.8352C108.141 11.1458 108.617 11.5871 108.942 12.1591C109.272 12.7273 109.437 13.3958 109.437 14.1648C109.437 14.9375 109.27 15.6023 108.937 16.1591C108.603 16.7121 108.121 17.1364 107.488 17.4318C106.859 17.7273 106.098 17.875 105.204 17.875H102.13V15.8977H104.806C105.276 15.8977 105.666 15.8333 105.977 15.7045C106.287 15.5758 106.518 15.3826 106.67 15.125C106.825 14.8674 106.903 14.5473 106.903 14.1648C106.903 13.7784 106.825 13.4527 106.67 13.1875C106.518 12.9223 106.285 12.7216 105.971 12.5852C105.66 12.4451 105.268 12.375 104.795 12.375H103.136V22H100.675ZM106.96 16.7045L109.852 22H107.136L104.306 16.7045H106.96Z" fill="black"/>
</svg>
