<svg width="131" height="33" viewBox="0 0 131 33" fill="none" xmlns="http://www.w3.org/2000/svg">
<rect y="1" width="131" height="30" fill="white"/>
<path d="M28.1506 10.3636V22H26.0256L20.9631 14.6761H20.8778V22H18.4176V10.3636H20.5767L25.5994 17.6818H25.7017V10.3636H28.1506ZM30.1832 22V10.3636H38.0241V12.392H32.6435V15.1648H37.6207V17.1932H32.6435V19.9716H38.0469V22H30.1832ZM46.2926 13.7102C46.2472 13.2519 46.0521 12.8958 45.7074 12.642C45.3627 12.3883 44.8949 12.2614 44.304 12.2614C43.9025 12.2614 43.5634 12.3182 43.2869 12.4318C43.0104 12.5417 42.7983 12.6951 42.6506 12.892C42.5066 13.089 42.4347 13.3125 42.4347 13.5625C42.4271 13.7708 42.4706 13.9527 42.5653 14.108C42.6638 14.2633 42.7983 14.3977 42.9688 14.5114C43.1392 14.6212 43.3362 14.7178 43.5597 14.8011C43.7831 14.8807 44.0218 14.9489 44.2756 15.0057L45.321 15.2557C45.8286 15.3693 46.2945 15.5208 46.7188 15.7102C47.143 15.8996 47.5104 16.1326 47.821 16.4091C48.1316 16.6856 48.3722 17.0114 48.5426 17.3864C48.7169 17.7614 48.8059 18.1913 48.8097 18.6761C48.8059 19.3883 48.6241 20.0057 48.2642 20.5284C47.9081 21.0473 47.393 21.4508 46.7188 21.7386C46.0483 22.0227 45.2396 22.1648 44.2926 22.1648C43.3532 22.1648 42.535 22.0208 41.8381 21.733C41.1449 21.4451 40.6032 21.0189 40.2131 20.4545C39.8267 19.8864 39.6241 19.1837 39.6051 18.3466H41.9858C42.0123 18.7367 42.1241 19.0625 42.321 19.3239C42.5218 19.5814 42.7888 19.7765 43.1222 19.9091C43.4593 20.0379 43.84 20.1023 44.2642 20.1023C44.6809 20.1023 45.0426 20.0417 45.3494 19.9205C45.66 19.7992 45.9006 19.6307 46.071 19.4148C46.2415 19.1989 46.3267 18.9508 46.3267 18.6705C46.3267 18.4091 46.2491 18.1894 46.0938 18.0114C45.9422 17.8333 45.7188 17.6818 45.4233 17.5568C45.1316 17.4318 44.7737 17.3182 44.3494 17.2159L43.0824 16.8977C42.1013 16.6591 41.3267 16.286 40.7585 15.7784C40.1903 15.2708 39.9081 14.5871 39.9119 13.7273C39.9081 13.0227 40.0956 12.4072 40.4744 11.8807C40.857 11.3542 41.3816 10.9432 42.0483 10.6477C42.715 10.3523 43.4725 10.2045 44.321 10.2045C45.1847 10.2045 45.9384 10.3523 46.5824 10.6477C47.2301 10.9432 47.7339 11.3542 48.0938 11.8807C48.4536 12.4072 48.6392 13.017 48.6506 13.7102H46.2926ZM50.4645 22V10.3636H55.0554C55.938 10.3636 56.6899 10.5322 57.3111 10.8693C57.9323 11.2027 58.4058 11.6667 58.7315 12.2614C59.0611 12.8523 59.2259 13.5341 59.2259 14.3068C59.2259 15.0795 59.0592 15.7614 58.7259 16.3523C58.3925 16.9432 57.9096 17.4034 57.277 17.733C56.6482 18.0625 55.8868 18.2273 54.9929 18.2273H52.0668V16.2557H54.5952C55.0687 16.2557 55.4588 16.1742 55.7656 16.0114C56.0762 15.8447 56.3073 15.6155 56.4588 15.3239C56.6141 15.0284 56.6918 14.6894 56.6918 14.3068C56.6918 13.9205 56.6141 13.5833 56.4588 13.2955C56.3073 13.0038 56.0762 12.7784 55.7656 12.6193C55.455 12.4564 55.0611 12.375 54.5838 12.375H52.9247V22H50.4645ZM60.8239 22V10.3636H65.4148C66.2936 10.3636 67.0436 10.5208 67.6648 10.8352C68.2898 11.1458 68.7652 11.5871 69.0909 12.1591C69.4205 12.7273 69.5852 13.3958 69.5852 14.1648C69.5852 14.9375 69.4186 15.6023 69.0852 16.1591C68.7519 16.7121 68.2689 17.1364 67.6364 17.4318C67.0076 17.7273 66.2462 17.875 65.3523 17.875H62.2784V15.8977H64.9545C65.4242 15.8977 65.8144 15.8333 66.125 15.7045C66.4356 15.5758 66.6667 15.3826 66.8182 15.125C66.9735 14.8674 67.0511 14.5473 67.0511 14.1648C67.0511 13.7784 66.9735 13.4527 66.8182 13.1875C66.6667 12.9223 66.4337 12.7216 66.1193 12.5852C65.8087 12.4451 65.4167 12.375 64.9432 12.375H63.2841V22H60.8239ZM67.108 16.7045L70 22H67.2841L64.4545 16.7045H67.108ZM71.3239 22V10.3636H79.1648V12.392H73.7841V15.1648H78.7614V17.1932H73.7841V19.9716H79.1875V22H71.3239ZM87.4332 13.7102C87.3878 13.2519 87.1927 12.8958 86.848 12.642C86.5033 12.3883 86.0355 12.2614 85.4446 12.2614C85.0431 12.2614 84.7041 12.3182 84.4276 12.4318C84.151 12.5417 83.9389 12.6951 83.7912 12.892C83.6473 13.089 83.5753 13.3125 83.5753 13.5625C83.5677 13.7708 83.6113 13.9527 83.706 14.108C83.8045 14.2633 83.9389 14.3977 84.1094 14.5114C84.2798 14.6212 84.4768 14.7178 84.7003 14.8011C84.9238 14.8807 85.1624 14.9489 85.4162 15.0057L86.4616 15.2557C86.9692 15.3693 87.4351 15.5208 87.8594 15.7102C88.2836 15.8996 88.651 16.1326 88.9616 16.4091C89.2723 16.6856 89.5128 17.0114 89.6832 17.3864C89.8575 17.7614 89.9465 18.1913 89.9503 18.6761C89.9465 19.3883 89.7647 20.0057 89.4048 20.5284C89.0488 21.0473 88.5336 21.4508 87.8594 21.7386C87.1889 22.0227 86.3802 22.1648 85.4332 22.1648C84.4938 22.1648 83.6757 22.0208 82.9787 21.733C82.2855 21.4451 81.7438 21.0189 81.3537 20.4545C80.9673 19.8864 80.7647 19.1837 80.7457 18.3466H83.1264C83.1529 18.7367 83.2647 19.0625 83.4616 19.3239C83.6624 19.5814 83.9295 19.7765 84.2628 19.9091C84.5999 20.0379 84.9806 20.1023 85.4048 20.1023C85.8215 20.1023 86.1832 20.0417 86.4901 19.9205C86.8007 19.7992 87.0412 19.6307 87.2116 19.4148C87.3821 19.1989 87.4673 18.9508 87.4673 18.6705C87.4673 18.4091 87.3897 18.1894 87.2344 18.0114C87.0829 17.8333 86.8594 17.6818 86.5639 17.5568C86.2723 17.4318 85.9143 17.3182 85.4901 17.2159L84.223 16.8977C83.242 16.6591 82.4673 16.286 81.8991 15.7784C81.331 15.2708 81.0488 14.5871 81.0526 13.7273C81.0488 13.0227 81.2363 12.4072 81.6151 11.8807C81.9976 11.3542 82.5223 10.9432 83.1889 10.6477C83.8556 10.3523 84.6132 10.2045 85.4616 10.2045C86.3253 10.2045 87.0791 10.3523 87.723 10.6477C88.3707 10.9432 88.8745 11.3542 89.2344 11.8807C89.5942 12.4072 89.7798 13.017 89.7912 13.7102H87.4332ZM97.9176 13.7102C97.8722 13.2519 97.6771 12.8958 97.3324 12.642C96.9877 12.3883 96.5199 12.2614 95.929 12.2614C95.5275 12.2614 95.1884 12.3182 94.9119 12.4318C94.6354 12.5417 94.4233 12.6951 94.2756 12.892C94.1316 13.089 94.0597 13.3125 94.0597 13.5625C94.0521 13.7708 94.0956 13.9527 94.1903 14.108C94.2888 14.2633 94.4233 14.3977 94.5938 14.5114C94.7642 14.6212 94.9612 14.7178 95.1847 14.8011C95.4081 14.8807 95.6468 14.9489 95.9006 15.0057L96.946 15.2557C97.4536 15.3693 97.9195 15.5208 98.3438 15.7102C98.768 15.8996 99.1354 16.1326 99.446 16.4091C99.7566 16.6856 99.9972 17.0114 100.168 17.3864C100.342 17.7614 100.431 18.1913 100.435 18.6761C100.431 19.3883 100.249 20.0057 99.8892 20.5284C99.5331 21.0473 99.018 21.4508 98.3438 21.7386C97.6733 22.0227 96.8646 22.1648 95.9176 22.1648C94.9782 22.1648 94.16 22.0208 93.4631 21.733C92.7699 21.4451 92.2282 21.0189 91.8381 20.4545C91.4517 19.8864 91.2491 19.1837 91.2301 18.3466H93.6108C93.6373 18.7367 93.7491 19.0625 93.946 19.3239C94.1468 19.5814 94.4138 19.7765 94.7472 19.9091C95.0843 20.0379 95.465 20.1023 95.8892 20.1023C96.3059 20.1023 96.6676 20.0417 96.9744 19.9205C97.285 19.7992 97.5256 19.6307 97.696 19.4148C97.8665 19.1989 97.9517 18.9508 97.9517 18.6705C97.9517 18.4091 97.8741 18.1894 97.7188 18.0114C97.5672 17.8333 97.3438 17.6818 97.0483 17.5568C96.7566 17.4318 96.3987 17.3182 95.9744 17.2159L94.7074 16.8977C93.7263 16.6591 92.9517 16.286 92.3835 15.7784C91.8153 15.2708 91.5331 14.5871 91.5369 13.7273C91.5331 13.0227 91.7206 12.4072 92.0994 11.8807C92.482 11.3542 93.0066 10.9432 93.6733 10.6477C94.34 10.3523 95.0975 10.2045 95.946 10.2045C96.8097 10.2045 97.5634 10.3523 98.2074 10.6477C98.8551 10.9432 99.3589 11.3542 99.7188 11.8807C100.079 12.4072 100.264 13.017 100.276 13.7102H97.9176ZM112.783 16.1818C112.783 17.4508 112.542 18.5303 112.061 19.4205C111.584 20.3106 110.932 20.9905 110.107 21.4602C109.285 21.9261 108.36 22.1591 107.334 22.1591C106.3 22.1591 105.372 21.9242 104.55 21.4545C103.728 20.9848 103.078 20.3049 102.601 19.4148C102.124 18.5246 101.885 17.447 101.885 16.1818C101.885 14.9129 102.124 13.8333 102.601 12.9432C103.078 12.053 103.728 11.375 104.55 10.9091C105.372 10.4394 106.3 10.2045 107.334 10.2045C108.36 10.2045 109.285 10.4394 110.107 10.9091C110.932 11.375 111.584 12.053 112.061 12.9432C112.542 13.8333 112.783 14.9129 112.783 16.1818ZM110.288 16.1818C110.288 15.3598 110.165 14.6667 109.919 14.1023C109.677 13.5379 109.334 13.1098 108.891 12.8182C108.447 12.5265 107.929 12.3807 107.334 12.3807C106.739 12.3807 106.22 12.5265 105.777 12.8182C105.334 13.1098 104.989 13.5379 104.743 14.1023C104.5 14.6667 104.379 15.3598 104.379 16.1818C104.379 17.0038 104.5 17.697 104.743 18.2614C104.989 18.8258 105.334 19.2538 105.777 19.5455C106.22 19.8371 106.739 19.983 107.334 19.983C107.929 19.983 108.447 19.8371 108.891 19.5455C109.334 19.2538 109.677 18.8258 109.919 18.2614C110.165 17.697 110.288 17.0038 110.288 16.1818Z" fill="black"/>
</svg>
