<svg width="94" height="30" viewBox="0 0 94 30" fill="none" xmlns="http://www.w3.org/2000/svg">
<rect width="94" height="30" fill="white"/>
<path d="M20.0114 21V9.36364H24.6023C25.4848 9.36364 26.2367 9.5322 26.858 9.86932C27.4792 10.2027 27.9527 10.6667 28.2784 11.2614C28.608 11.8523 28.7727 12.5341 28.7727 13.3068C28.7727 14.0795 28.6061 14.7614 28.2727 15.3523C27.9394 15.9432 27.4564 16.4034 26.8239 16.733C26.1951 17.0625 25.4337 17.2273 24.5398 17.2273H21.6136V15.2557H24.142C24.6155 15.2557 25.0057 15.1742 25.3125 15.0114C25.6231 14.8447 25.8542 14.6155 26.0057 14.3239C26.161 14.0284 26.2386 13.6894 26.2386 13.3068C26.2386 12.9205 26.161 12.5833 26.0057 12.2955C25.8542 12.0038 25.6231 11.7784 25.3125 11.6193C25.0019 11.4564 24.608 11.375 24.1307 11.375H22.4716V21H20.0114ZM30.3707 21V9.36364H34.9616C35.8404 9.36364 36.5904 9.52083 37.2116 9.83523C37.8366 10.1458 38.312 10.5871 38.6378 11.1591C38.9673 11.7273 39.1321 12.3958 39.1321 13.1648C39.1321 13.9375 38.9654 14.6023 38.6321 15.1591C38.2988 15.7121 37.8158 16.1364 37.1832 16.4318C36.5545 16.7273 35.7931 16.875 34.8991 16.875H31.8253V14.8977H34.5014C34.9711 14.8977 35.3613 14.8333 35.6719 14.7045C35.9825 14.5758 36.2135 14.3826 36.3651 14.125C36.5204 13.8674 36.598 13.5473 36.598 13.1648C36.598 12.7784 36.5204 12.4527 36.3651 12.1875C36.2135 11.9223 35.9806 11.7216 35.6662 11.5852C35.3556 11.4451 34.9635 11.375 34.4901 11.375H32.831V21H30.3707ZM36.6548 15.7045L39.5469 21H36.831L34.0014 15.7045H36.6548ZM42.8764 21H40.2401L44.2571 9.36364H47.4276L51.4389 21H48.8026L45.8878 12.0227H45.7969L42.8764 21ZM42.7116 16.4261H48.9389V18.3466H42.7116V16.4261ZM56.9645 21H52.8395V9.36364H56.9986C58.169 9.36364 59.1766 9.59659 60.0213 10.0625C60.866 10.5246 61.5156 11.1894 61.9702 12.0568C62.4285 12.9242 62.6577 13.9621 62.6577 15.1705C62.6577 16.3826 62.4285 17.4242 61.9702 18.2955C61.5156 19.1667 60.8622 19.8352 60.0099 20.3011C59.1615 20.767 58.1463 21 56.9645 21ZM55.2997 18.892H56.8622C57.5895 18.892 58.2012 18.7633 58.6974 18.5057C59.1974 18.2443 59.5724 17.8409 59.8224 17.2955C60.0762 16.7462 60.2031 16.0379 60.2031 15.1705C60.2031 14.3106 60.0762 13.608 59.8224 13.0625C59.5724 12.517 59.1993 12.1155 58.7031 11.858C58.2069 11.6004 57.5952 11.4716 56.8679 11.4716H55.2997V18.892ZM65.8295 21H63.1932L67.2102 9.36364H70.3807L74.392 21H71.7557L68.8409 12.0227H68.75L65.8295 21ZM65.6648 16.4261H71.892V18.3466H65.6648V16.4261Z" fill="black"/>
</svg>
