<svg width="120" height="33" viewBox="0 0 120 33" fill="none" xmlns="http://www.w3.org/2000/svg">
<rect y="1" width="120" height="30" fill="white"/>
<path d="M27.4567 13.7102C27.4112 13.2519 27.2161 12.8958 26.8714 12.642C26.5268 12.3883 26.0589 12.2614 25.468 12.2614C25.0665 12.2614 24.7275 12.3182 24.451 12.4318C24.1745 12.5417 23.9624 12.6951 23.8146 12.892C23.6707 13.089 23.5987 13.3125 23.5987 13.5625C23.5911 13.7708 23.6347 13.9527 23.7294 14.108C23.8279 14.2633 23.9624 14.3977 24.1328 14.5114C24.3033 14.6212 24.5002 14.7178 24.7237 14.8011C24.9472 14.8807 25.1858 14.9489 25.4396 15.0057L26.4851 15.2557C26.9927 15.3693 27.4586 15.5208 27.8828 15.7102C28.3071 15.8996 28.6745 16.1326 28.9851 16.4091C29.2957 16.6856 29.5362 17.0114 29.7067 17.3864C29.8809 17.7614 29.9699 18.1913 29.9737 18.6761C29.9699 19.3883 29.7881 20.0057 29.4283 20.5284C29.0722 21.0473 28.5571 21.4508 27.8828 21.7386C27.2124 22.0227 26.4036 22.1648 25.4567 22.1648C24.5173 22.1648 23.6991 22.0208 23.0021 21.733C22.3089 21.4451 21.7673 21.0189 21.3771 20.4545C20.9908 19.8864 20.7881 19.1837 20.7692 18.3466H23.1499C23.1764 18.7367 23.2881 19.0625 23.4851 19.3239C23.6858 19.5814 23.9529 19.7765 24.2862 19.9091C24.6233 20.0379 25.004 20.1023 25.4283 20.1023C25.8449 20.1023 26.2067 20.0417 26.5135 19.9205C26.8241 19.7992 27.0646 19.6307 27.2351 19.4148C27.4055 19.1989 27.4908 18.9508 27.4908 18.6705C27.4908 18.4091 27.4131 18.1894 27.2578 18.0114C27.1063 17.8333 26.8828 17.6818 26.5874 17.5568C26.2957 17.4318 25.9377 17.3182 25.5135 17.2159L24.2464 16.8977C23.2654 16.6591 22.4908 16.286 21.9226 15.7784C21.3544 15.2708 21.0722 14.5871 21.076 13.7273C21.0722 13.0227 21.2597 12.4072 21.6385 11.8807C22.0211 11.3542 22.5457 10.9432 23.2124 10.6477C23.879 10.3523 24.6366 10.2045 25.4851 10.2045C26.3487 10.2045 27.1025 10.3523 27.7464 10.6477C28.3942 10.9432 28.898 11.3542 29.2578 11.8807C29.6177 12.4072 29.8033 13.017 29.8146 13.7102H27.4567ZM31.6286 22V10.3636H36.2195C37.102 10.3636 37.8539 10.5322 38.4751 10.8693C39.0964 11.2027 39.5698 11.6667 39.8956 12.2614C40.2251 12.8523 40.3899 13.5341 40.3899 14.3068C40.3899 15.0795 40.2232 15.7614 39.8899 16.3523C39.5566 16.9432 39.0736 17.4034 38.4411 17.733C37.8123 18.0625 37.0509 18.2273 36.157 18.2273H33.2308V16.2557H35.7592C36.2327 16.2557 36.6229 16.1742 36.9297 16.0114C37.2403 15.8447 37.4714 15.6155 37.6229 15.3239C37.7782 15.0284 37.8558 14.6894 37.8558 14.3068C37.8558 13.9205 37.7782 13.5833 37.6229 13.2955C37.4714 13.0038 37.2403 12.7784 36.9297 12.6193C36.6191 12.4564 36.2251 12.375 35.7479 12.375H34.0888V22H31.6286ZM44.4482 10.3636V22H41.9879V10.3636H44.4482ZM56.2053 10.3636V22H54.0803L49.0178 14.6761H48.9325V22H46.4723V10.3636H48.6314L53.6541 17.6818H53.7564V10.3636H56.2053ZM67.9709 10.3636V22H65.8459L60.7834 14.6761H60.6982V22H58.2379V10.3636H60.397L65.4197 17.6818H65.522V10.3636H67.9709ZM70.0036 22V10.3636H77.8445V12.392H72.4638V15.1648H77.4411V17.1932H72.4638V19.9716H77.8672V22H70.0036ZM79.1186 10.3636H81.8743L84.5277 15.375H84.6413L87.2947 10.3636H90.0504L85.8061 17.8864V22H83.3629V17.8864L79.1186 10.3636ZM97.7067 13.7102C97.6612 13.2519 97.4661 12.8958 97.1214 12.642C96.7768 12.3883 96.3089 12.2614 95.718 12.2614C95.3165 12.2614 94.9775 12.3182 94.701 12.4318C94.4245 12.5417 94.2124 12.6951 94.0646 12.892C93.9207 13.089 93.8487 13.3125 93.8487 13.5625C93.8411 13.7708 93.8847 13.9527 93.9794 14.108C94.0779 14.2633 94.2124 14.3977 94.3828 14.5114C94.5533 14.6212 94.7502 14.7178 94.9737 14.8011C95.1972 14.8807 95.4358 14.9489 95.6896 15.0057L96.7351 15.2557C97.2427 15.3693 97.7086 15.5208 98.1328 15.7102C98.5571 15.8996 98.9245 16.1326 99.2351 16.4091C99.5457 16.6856 99.7862 17.0114 99.9567 17.3864C100.131 17.7614 100.22 18.1913 100.224 18.6761C100.22 19.3883 100.038 20.0057 99.6783 20.5284C99.3222 21.0473 98.8071 21.4508 98.1328 21.7386C97.4624 22.0227 96.6536 22.1648 95.7067 22.1648C94.7673 22.1648 93.9491 22.0208 93.2521 21.733C92.5589 21.4451 92.0173 21.0189 91.6271 20.4545C91.2408 19.8864 91.0381 19.1837 91.0192 18.3466H93.3999C93.4264 18.7367 93.5381 19.0625 93.7351 19.3239C93.9358 19.5814 94.2029 19.7765 94.5362 19.9091C94.8733 20.0379 95.254 20.1023 95.6783 20.1023C96.0949 20.1023 96.4567 20.0417 96.7635 19.9205C97.0741 19.7992 97.3146 19.6307 97.4851 19.4148C97.6555 19.1989 97.7408 18.9508 97.7408 18.6705C97.7408 18.4091 97.6631 18.1894 97.5078 18.0114C97.3563 17.8333 97.1328 17.6818 96.8374 17.5568C96.5457 17.4318 96.1877 17.3182 95.7635 17.2159L94.4964 16.8977C93.5154 16.6591 92.7408 16.286 92.1726 15.7784C91.6044 15.2708 91.3222 14.5871 91.326 13.7273C91.3222 13.0227 91.5097 12.4072 91.8885 11.8807C92.2711 11.3542 92.7957 10.9432 93.4624 10.6477C94.129 10.3523 94.8866 10.2045 95.7351 10.2045C96.5987 10.2045 97.3525 10.3523 97.9964 10.6477C98.6442 10.9432 99.148 11.3542 99.5078 11.8807C99.8677 12.4072 100.053 13.017 100.065 13.7102H97.7067Z" fill="black"/>
</svg>
