<svg width="132" height="33" viewBox="0 0 132 33" fill="none" xmlns="http://www.w3.org/2000/svg">
<rect y="1" width="132" height="30" fill="white"/>
<path d="M22.8714 10.3636L25.6839 19.2045H25.7919L28.6101 10.3636H31.3374L27.326 22H24.1555L20.1385 10.3636H22.8714ZM33.1967 22H30.5604L34.5774 10.3636H37.7479L41.7592 22H39.1229L36.2081 13.0227H36.1172L33.1967 22ZM33.032 17.4261H39.2592V19.3466H33.032V17.4261ZM43.1598 22V10.3636H45.62V19.9716H50.6087V22H43.1598ZM52.2379 22V10.3636H60.0788V12.392H54.6982V15.1648H59.6754V17.1932H54.6982V19.9716H60.1016V22H52.2379ZM71.7678 10.3636V22H69.6428L64.5803 14.6761H64.495V22H62.0348V10.3636H64.1939L69.2166 17.6818H69.3189V10.3636H71.7678ZM73.3572 12.392V10.3636H82.9141V12.392H79.3516V22H76.9197V12.392H73.3572ZM86.9482 10.3636V22H84.4879V10.3636H86.9482ZM98.7053 10.3636V22H96.5803L91.5178 14.6761H91.4325V22H88.9723V10.3636H91.1314L96.1541 17.6818H96.2564V10.3636H98.7053ZM111.431 16.1818C111.431 17.4508 111.191 18.5303 110.71 19.4205C110.232 20.3106 109.581 20.9905 108.755 21.4602C107.933 21.9261 107.009 22.1591 105.982 22.1591C104.948 22.1591 104.02 21.9242 103.198 21.4545C102.376 20.9848 101.727 20.3049 101.249 19.4148C100.772 18.5246 100.533 17.447 100.533 16.1818C100.533 14.9129 100.772 13.8333 101.249 12.9432C101.727 12.053 102.376 11.375 103.198 10.9091C104.02 10.4394 104.948 10.2045 105.982 10.2045C107.009 10.2045 107.933 10.4394 108.755 10.9091C109.581 11.375 110.232 12.053 110.71 12.9432C111.191 13.8333 111.431 14.9129 111.431 16.1818ZM108.937 16.1818C108.937 15.3598 108.814 14.6667 108.567 14.1023C108.325 13.5379 107.982 13.1098 107.539 12.8182C107.096 12.5265 106.577 12.3807 105.982 12.3807C105.388 12.3807 104.869 12.5265 104.425 12.8182C103.982 13.1098 103.638 13.5379 103.391 14.1023C103.149 14.6667 103.028 15.3598 103.028 16.1818C103.028 17.0038 103.149 17.697 103.391 18.2614C103.638 18.8258 103.982 19.2538 104.425 19.5455C104.869 19.8371 105.388 19.983 105.982 19.983C106.577 19.983 107.096 19.8371 107.539 19.5455C107.982 19.2538 108.325 18.8258 108.567 18.2614C108.814 17.697 108.937 17.0038 108.937 16.1818Z" fill="black"/>
</svg>
