<svg width="112" height="30" viewBox="0 0 112 30" fill="none" xmlns="http://www.w3.org/2000/svg">
<rect width="112" height="30" fill="white"/>
<path d="M21.1136 9.36364L23.9261 18.2045H24.0341L26.8523 9.36364H29.5795L25.5682 21H22.3977L18.3807 9.36364H21.1136ZM30.9801 21V9.36364H38.821V11.392H33.4403V14.1648H38.4176V16.1932H33.4403V18.9716H38.8438V21H30.9801ZM40.777 21V9.36364H45.3679C46.2467 9.36364 46.9967 9.52083 47.6179 9.83523C48.2429 10.1458 48.7183 10.5871 49.044 11.1591C49.3736 11.7273 49.5384 12.3958 49.5384 13.1648C49.5384 13.9375 49.3717 14.6023 49.0384 15.1591C48.705 15.7121 48.2221 16.1364 47.5895 16.4318C46.9607 16.7273 46.1993 16.875 45.3054 16.875H42.2315V14.8977H44.9077C45.3774 14.8977 45.7675 14.8333 46.0781 14.7045C46.3887 14.5758 46.6198 14.3826 46.7713 14.125C46.9266 13.8674 47.0043 13.5473 47.0043 13.1648C47.0043 12.7784 46.9266 12.4527 46.7713 12.1875C46.6198 11.9223 46.3868 11.7216 46.0724 11.5852C45.7618 11.4451 45.3698 11.375 44.8963 11.375H43.2372V21H40.777ZM47.0611 15.7045L49.9531 21H47.2372L44.4077 15.7045H47.0611ZM57.5895 12.7102C57.544 12.2519 57.349 11.8958 57.0043 11.642C56.6596 11.3883 56.1918 11.2614 55.6009 11.2614C55.1993 11.2614 54.8603 11.3182 54.5838 11.4318C54.3073 11.5417 54.0952 11.6951 53.9474 11.892C53.8035 12.089 53.7315 12.3125 53.7315 12.5625C53.724 12.7708 53.7675 12.9527 53.8622 13.108C53.9607 13.2633 54.0952 13.3977 54.2656 13.5114C54.4361 13.6212 54.633 13.7178 54.8565 13.8011C55.08 13.8807 55.3187 13.9489 55.5724 14.0057L56.6179 14.2557C57.1255 14.3693 57.5914 14.5208 58.0156 14.7102C58.4399 14.8996 58.8073 15.1326 59.1179 15.4091C59.4285 15.6856 59.669 16.0114 59.8395 16.3864C60.0137 16.7614 60.1027 17.1913 60.1065 17.6761C60.1027 18.3883 59.9209 19.0057 59.5611 19.5284C59.205 20.0473 58.6899 20.4508 58.0156 20.7386C57.3452 21.0227 56.5365 21.1648 55.5895 21.1648C54.6501 21.1648 53.8319 21.0208 53.1349 20.733C52.4418 20.4451 51.9001 20.0189 51.5099 19.4545C51.1236 18.8864 50.9209 18.1837 50.902 17.3466H53.2827C53.3092 17.7367 53.4209 18.0625 53.6179 18.3239C53.8187 18.5814 54.0857 18.7765 54.419 18.9091C54.7562 19.0379 55.1368 19.1023 55.5611 19.1023C55.9777 19.1023 56.3395 19.0417 56.6463 18.9205C56.9569 18.7992 57.1974 18.6307 57.3679 18.4148C57.5384 18.1989 57.6236 17.9508 57.6236 17.6705C57.6236 17.4091 57.5459 17.1894 57.3906 17.0114C57.2391 16.8333 57.0156 16.6818 56.7202 16.5568C56.4285 16.4318 56.0705 16.3182 55.6463 16.2159L54.3793 15.8977C53.3982 15.6591 52.6236 15.286 52.0554 14.7784C51.4872 14.2708 51.205 13.5871 51.2088 12.7273C51.205 12.0227 51.3925 11.4072 51.7713 10.8807C52.1539 10.3542 52.6785 9.94318 53.3452 9.64773C54.0118 9.35227 54.7694 9.20455 55.6179 9.20455C56.4815 9.20455 57.2353 9.35227 57.8793 9.64773C58.527 9.94318 59.0308 10.3542 59.3906 10.8807C59.7505 11.4072 59.9361 12.017 59.9474 12.7102H57.5895ZM63.5014 21H60.8651L64.8821 9.36364H68.0526L72.0639 21H69.4276L66.5128 12.0227H66.4219L63.5014 21ZM63.3366 16.4261H69.5639V18.3466H63.3366V16.4261ZM83.1847 13.4375H80.696C80.6506 13.1155 80.5578 12.8295 80.4176 12.5795C80.2775 12.3258 80.0975 12.1098 79.8778 11.9318C79.6581 11.7538 79.4044 11.6174 79.1165 11.5227C78.8324 11.428 78.5237 11.3807 78.1903 11.3807C77.5881 11.3807 77.0634 11.5303 76.6165 11.8295C76.1695 12.125 75.8229 12.5568 75.5767 13.125C75.3305 13.6894 75.2074 14.375 75.2074 15.1818C75.2074 16.0114 75.3305 16.7083 75.5767 17.2727C75.8267 17.8371 76.1752 18.2633 76.6222 18.5511C77.0691 18.839 77.5862 18.983 78.1733 18.983C78.5028 18.983 78.8078 18.9394 79.0881 18.8523C79.3722 18.7652 79.6241 18.6383 79.8438 18.4716C80.0634 18.3011 80.2453 18.0947 80.3892 17.8523C80.5369 17.6098 80.6392 17.3333 80.696 17.0227L83.1847 17.0341C83.1203 17.5682 82.9593 18.0833 82.7017 18.5795C82.4479 19.072 82.1051 19.5133 81.6733 19.9034C81.2453 20.2898 80.7339 20.5966 80.1392 20.8239C79.5483 21.0473 78.8797 21.1591 78.1335 21.1591C77.0956 21.1591 76.1676 20.9242 75.3494 20.4545C74.535 19.9848 73.8911 19.3049 73.4176 18.4148C72.9479 17.5246 72.7131 16.447 72.7131 15.1818C72.7131 13.9129 72.9517 12.8333 73.429 11.9432C73.9063 11.053 74.554 10.375 75.3722 9.90909C76.1903 9.43939 77.1108 9.20455 78.1335 9.20455C78.8078 9.20455 79.4328 9.29924 80.0085 9.48864C80.5881 9.67803 81.1013 9.95455 81.5483 10.3182C81.9953 10.678 82.3589 11.1193 82.6392 11.642C82.9233 12.1648 83.1051 12.7633 83.1847 13.4375ZM84.9489 21V9.36364H92.7898V11.392H87.4091V14.1648H92.3864V16.1932H87.4091V18.9716H92.8125V21H84.9489Z" fill="black"/>
</svg>
