<svg width="140" height="33" viewBox="0 0 140 33" fill="none" xmlns="http://www.w3.org/2000/svg">
<rect x="14" y="1" width="112" height="30" fill="white"/>
<path d="M47.1058 10.3636L49.9183 19.2045H50.0263L52.8445 10.3636H55.5717L51.5604 22H48.3899L44.3729 10.3636H47.1058ZM59.4325 10.3636V22H56.9723V10.3636H59.4325ZM71.7237 14.4375H69.2351C69.1896 14.1155 69.0968 13.8295 68.9567 13.5795C68.8165 13.3258 68.6366 13.1098 68.4169 12.9318C68.1972 12.7538 67.9434 12.6174 67.6555 12.5227C67.3714 12.428 67.0627 12.3807 66.7294 12.3807C66.1271 12.3807 65.6025 12.5303 65.1555 12.8295C64.7086 13.125 64.362 13.5568 64.1158 14.125C63.8696 14.6894 63.7464 15.375 63.7464 16.1818C63.7464 17.0114 63.8696 17.7083 64.1158 18.2727C64.3658 18.8371 64.7143 19.2633 65.1612 19.5511C65.6082 19.839 66.1252 19.983 66.7124 19.983C67.0419 19.983 67.3468 19.9394 67.6271 19.8523C67.9112 19.7652 68.1631 19.6383 68.3828 19.4716C68.6025 19.3011 68.7843 19.0947 68.9283 18.8523C69.076 18.6098 69.1783 18.3333 69.2351 18.0227L71.7237 18.0341C71.6593 18.5682 71.4983 19.0833 71.2408 19.5795C70.987 20.072 70.6442 20.5133 70.2124 20.9034C69.7843 21.2898 69.273 21.5966 68.6783 21.8239C68.0874 22.0473 67.4188 22.1591 66.6726 22.1591C65.6347 22.1591 64.7067 21.9242 63.8885 21.4545C63.0741 20.9848 62.4302 20.3049 61.9567 19.4148C61.487 18.5246 61.2521 17.447 61.2521 16.1818C61.2521 14.9129 61.4908 13.8333 61.968 12.9432C62.4453 12.053 63.093 11.375 63.9112 10.9091C64.7294 10.4394 65.6499 10.2045 66.6726 10.2045C67.3468 10.2045 67.9718 10.2992 68.5476 10.4886C69.1271 10.678 69.6404 10.9545 70.0874 11.3182C70.5343 11.678 70.898 12.1193 71.1783 12.642C71.4624 13.1648 71.6442 13.7633 71.7237 14.4375ZM73.4879 22V10.3636H75.9482V15.1648H80.9425V10.3636H83.397V22H80.9425V17.1932H75.9482V22H73.4879ZM84.7436 10.3636H87.4993L90.1527 15.375H90.2663L92.9197 10.3636H95.6754L91.4311 17.8864V22H88.9879V17.8864L84.7436 10.3636Z" fill="black"/>
</svg>
