<svg width="162" height="210" viewBox="0 0 162 210" fill="none" xmlns="http://www.w3.org/2000/svg">
<path d="M0.0120635 126.78C0.0120635 121.703 0.313358 116.639 0.614652 111.562H3.0009C3.60349 132.445 2.10906 140.794 26.309 142.286C36.1674 142.887 46.0378 142.887 55.8961 142.887C71.7322 142.887 87.5803 141.997 103.416 141.997C114.769 141.997 127.628 141.696 138.391 145.582C147.056 148.866 150.647 152.739 154.829 160.799C153.335 151.849 151.539 144.692 145.863 137.534C119.264 104.116 60.6807 114.557 25.7064 91.5931C11.9554 82.3423 3.89274 69.2181 3.89274 52.509C3.89274 9.25073 49.6172 0 84.2901 0C116.276 0 162 10.1409 162 50.1151C162 67.1249 149.743 81.4401 132.112 81.4401C114.48 81.4401 101.922 66.8242 101.922 49.8144C101.922 32.8046 114.179 19.9811 131.81 19.9811C139.885 19.9811 145.26 22.6637 151.539 27.4394C141.681 15.2054 128.821 7.74703 112.684 7.74703C88.7734 7.74703 76.2154 29.2318 76.2154 51.0053C76.2154 85.9151 103.416 98.7386 128.219 116.338C150.334 132.145 159.602 144.379 159.602 172.42C159.602 183.162 158.107 193.604 155.721 204.045H151.539C154.227 195.697 155.721 186.747 155.721 178.086C155.721 166.453 149.442 150.634 135.691 150.634C108.49 150.634 105.2 210 53.7991 210C2.3983 210 0 165.852 0 126.767" fill="black"/>
</svg>
