<?xml version="1.0" encoding="UTF-8"?><svg xmlns="http://www.w3.org/2000/svg" width="1080" height="1080" xmlns:xlink="http://www.w3.org/1999/xlink" viewBox="0 0 1080 1080"><defs><style>.e{fill:none;}.f{fill:#eee9e7;}.g{fill:#f1edeb;}.h{fill:#ffd1b5;}.i{fill:#ff764f;}.j,.k{fill:#753130;}.l{fill:#a05329;}.m,.n{fill:#c39045;}.o{fill:#a86237;}.p{fill:#a6c8ec;}.q{fill:#c6b7af;}.r{fill:#0a4f4f;}.s{fill:#404040;}.t{fill:#2c1908;}.u{fill:#2f6969;}.n,.k{mix-blend-mode:multiply;opacity:.25;}.v{clip-path:url(#d);}.w{clip-path:url(#b);}.x{clip-path:url(#c);}.y{isolation:isolate;}</style><clipPath id="b"><rect class="e" width="1080" height="1080"/></clipPath><clipPath id="c"><path class="e" d="m919.23,679.22c38.19,38.19,78.16,61.75,107,65.62,7.66,1.03,14.18,7.22,14.18,14.94,0,156-18.88,45.43-44.07,45.43-57.38,0-85.61-40.68-85.61-40.68"/></clipPath><clipPath id="d"><path class="e" d="m493.51,567.1c-19.47-14-49.54-65.08-87.32-77.86-15.37-5.2-35.37-11.59-38.67-27.48-18.59-89.67-103.29-131.02-202.39-153.16-35.76-7.99-67.69,19.32-69.95,55.89-5.03,81.33,46.44,162.78,113.94,211.54,86.07,67.04,236.86,89.4,284.39-8.93Z"/></clipPath></defs><g class="y"><g id="a"><g><g class="w"><rect class="f" y="-36.82" width="1080" height="1153.64"/><g><g><polygon class="l" points="480.64 422.16 483.69 390.77 527.27 381.62 544.63 400.87 540.57 409.03 480.64 422.16"/><path class="l" d="m527.47,378.89c0-5.17-4.19-9.37-9.37-9.37-1.19,0-2.31.24-3.35.65v-.02c-16.78,6.44-18.82,7.08-36.28,11.32v.02c-4.05.98-7.07,4.58-7.14,8.93h-.01c-.27,16.58-.88,33.53-15.08,69.29l41.16,2.26c-9.01-32.8-9.07-49.83-7.9-64.74,12.02-4.56,15.46-5.51,30.82-9.23v-.02c4.1-.99,7.16-4.67,7.16-9.08Z"/><path class="l" d="m548.97,417.7h.01c-.37-.71-.78-1.49-1.19-2.28-.65-2.5-.71-2.74-1.46-5.62h-.02c-1.37-5.26-17.23-7.45-17.23-.71,0,9.16,9.07,9.81,9.8,9.8.48,1.83,2.21,3.61,3.28,4.45h0c.48.38,1.04.67,1.67.83,2.42.63,4.9-.82,5.53-3.25.29-1.13.12-2.27-.38-3.23Z"/><path class="o" d="m547.51,414.27c-1.42-1.74-2.17-.21-1.4,1.13.76,1.34,3.64,4.01,3.25,5.53,0,0,.92-3.12-1.84-6.66Z"/><g><path class="l" d="m551.84,406.32h.02c-.3-.88-.64-1.85-.98-2.83-.32-2.99-.35-3.27-.71-6.72h-.03c-.23-2.11-1.53-4.04-3.62-4.93-.35-.15-.7-.25-1.06-.33-4.84-3.3-13.08-5.53-14.47-2.27-2.1,4.93.19,10.63,5.12,12.73.82.35,1.65.53,2.49.65.07.71.16,1.54.3,2.84h.05c.14,1.3.66,2.54,1.56,3.5h0s.03.04.05.06c0,0,0,0,.01.01.87.92,1.69,1.81,2.45,2.61h0c.49.52,1.08.95,1.77,1.24,2.68,1.14,5.78-.1,6.92-2.78.53-1.25.53-2.59.12-3.78Z"/><path class="o" d="m550.75,402.13c-1.34-2.25-2.46-.62-1.81,1.06.65,1.67,3.5,5.24,2.78,6.92,0,0,1.6-3.43-.97-7.98Z"/></g><path class="l" d="m554.01,394v-.02c-.61-.68-1.3-1.44-1.99-2.21-1.47-2.63-1.6-2.87-3.29-5.9h-.02c-1.04-1.84-2.99-3.11-5.27-3.11-.38,0-.74.05-1.1.11-5.75-1.14-14.2.05-14.2,3.59,0,5.36,4.34,9.7,9.7,9.7.89,0,1.73-.16,2.54-.38.35.62.75,1.35,1.39,2.49l.04-.02c.64,1.14,1.6,2.08,2.81,2.61h0s.05.03.07.04c0,0,0,0,.01,0,1.16.51,2.27,1,3.28,1.44h0c.65.28,1.36.45,2.12.45,2.91,0,5.28-2.36,5.28-5.28,0-1.36-.53-2.59-1.38-3.53Z"/><rect class="l" x="519.83" y="406.71" width="16.35" height="13.14" transform="translate(-83.98 139.3) rotate(-13.93)"/><path class="l" d="m527.03,419.33l-8.48,13.94-3.57,15.69c-1.97,8.64-6.74,16.39-13.57,22.05l-10.3,8.52-21.41-37.21,48.78-33.44,8.54,10.46Z"/><g><rect class="m" x="508.08" y="323.92" width="84.75" height="56.5" rx="1.68" ry="1.68" transform="translate(-103.01 349.17) rotate(-32.35)"/><polygon points="509.43 366.68 581.14 321.5 576.15 313.62 504.55 358.96 509.43 366.68"/><path class="l" d="m542.51,379.7c0-4.04-3.27-7.31-7.31-7.31-1.64,0-3.13.56-4.35,1.46l-.02-.02q-6.05,4.49-13.46,10l.02.02c-.64.47-1.19,1.05-1.68,1.67l-.04-.04c-5.88,7.47-5.92,7.55-13.45,14.06l.06.05c-.38.33-.76.66-1.08,1.05l-.04-.02c-3.59,4.29-3.68,5.15-14.98,9.33h.02c-7.71,2.86-13.21,10.24-13.21,18.94,0,11.15,9.04,20.19,20.19,20.19s20.19-9.04,20.19-20.19c0-.14-.02-.27-.02-.41h.02c-.23-11.56.48-12.39,2.92-16.79,5.51-7.55,5.73-7.76,12.55-14.1l-.06-.05c.19-.18.4-.33.57-.52l.02.02c8.45-6.64,7.28-6.75,11.25-12.44l-.02-.02c1.17-1.3,1.91-3,1.91-4.89Z"/><path class="o" d="m525.36,379.49c3.1.95,5.99,2.85,8.5,6.4l8.4-8.8c4.9-5.64-2.77-11.33-8.8-5.1l-8.11,7.5Z"/></g><path class="o" d="m551.36,390.57c-2.12-1.55-2.5.4-1.25,1.68,1.25,1.29,5.28,3.45,5.28,5.28,0,0,.13-3.79-4.03-6.96Z"/></g><path class="l" d="m465.62,442.36c-22.12,31.01-16.55,39.2-85.96,126.2l55.02,41.36c26.96-37.8,54.42-125.51,62.19-135.23"/></g><path class="t" d="m247.2,235.03c16.36,39.94,26.17,94.76,22.35,168.3l8.45-162.51"/><circle class="p" cx="434.44" cy="502.4" r="16.16"/><path class="q" d="m919.23,679.22c38.19,38.19,78.16,61.75,107,65.62,7.66,1.03,14.18,7.22,14.18,14.94,0,156-18.88,45.43-44.07,45.43-57.38,0-85.61-40.68-85.61-40.68"/><path class="m" d="m917.76,653.78c-42.93-112.11-43.81-114.39-94.55-246.73-9.96-27.54-36.33-47.22-67.3-47.22-16.95,0-32.51,5.9-44.77,15.75-111.64,89.55-154.78,124.16-326.59,261.99-25.11,20.2-41.21,51.16-41.21,85.9,0,60.83,50,119.28,110.13,110.13,143.87-21.88,233.13-212.08,285.58-272.99,21.76,44.88,34.06,70.24,68.35,140.97,9.81,20.06,30.35,33.95,54.19,33.95,33.26,0,60.22-26.96,60.22-60.22,0-7.6-1.47-14.84-4.04-21.54Z"/><path class="t" d="m277.79,212.14c-9.78,43.47-11.57,148.8-11.85,163.3-.09,4.32-3.47,7.83-7.79,8.05-13.44.69-41.37-.8-59.94-22.02"/><path class="l" d="m248.06,293.46c-20.95-.63-31.35,33.44-13.06,52.23l-60.7-19.97,26.19-73.21,47.57,40.95Z"/><path class="t" d="m293.04,126.75c0,21.36-17.32,38.67-38.67,38.67s-38.67-17.32-38.67-38.67,18.61-59.37,36.65-47.93c19.41,12.3,40.7,26.57,40.7,47.93Z"/><path class="l" d="m120.77,184.49c-27.02-52.47,17.99-121.44,77.74-116.92,51.36,5.82,106.02,47.39,97.96,104.83,0,0,1.6,31.27-3.58,58.49-5.21,27.38-15.56,46.09-15.56,46.09-15.42,32.7-53.86,6.75-60.49,10.52-5.08,2.89-58.27-21.84-96.06-103.01Z"/><path class="l" d="m296.75,152.34q10.63,68.41,11.59,74.59l-.12.17c.09.55.13,1.08.09,1.51-.86,9.43-10.2,16.29-20.86,15.31-4.49-.41-8.49-2.15-11.56-4.73-10.38,1.5,20.86-86.85,20.86-86.85Z"/><path class="p" d="m202.54,305.09l19.77,8.53c5.23,2.26,9.18,6.72,10.79,12.17l7.28,24.63-54.66-24.31,16.82-21.02Z"/><path class="t" d="m78.6,259.31c3.27,24.4,15.42,30.33,15.42,30.33,0,0-10.03-14.85-7.7-31.36l-7.72,1.04Z"/><rect class="t" x="389.98" y="848.94" width="18.67" height="72" transform="translate(349.54 -84.65) rotate(21.35)"/><polygon class="t" points="617.41 889.63 600.3 897.12 576.35 830.43 593.45 822.94 617.41 889.63"/><path class="t" d="m75.78,257.85c0,26.94-.53,241.2-.53,241.2,0,0,110.87,27.54,122.92-48.19,12.05-75.73-48.05-143.71-48.05-143.71"/><path class="j" d="m483.69,558.04c-19.47-14-39.72-56.02-77.51-68.8-15.37-5.2-36.02-11.47-38.67-27.48-12.11-73.38-96.61-140.8-202.39-153.16-36.39-4.25-67.69,19.32-69.95,55.89-5.03,81.33,46.44,162.78,113.94,211.54,86.07,67.04,182.98,70.4,274.57-17.99Z"/><path class="j" d="m315.07,495.94c-69.95-71.07-52.15-99.25-110.16-158.19-14.32-14.47-35.39-21.71-56.82-17.36-43.09,7.79-64.25,60.92-38.99,96.33,46.77,71.2,47.1,71.7,109.29,166.36,17.05,25.94,48.04,40.8,80.23,36.15,83.05-11.96,80.37-92.53,16.45-123.29Z"/><circle class="i" cx="205.2" cy="560.43" r="16.16"/><circle class="i" cx="221.17" cy="496.12" r="16.16"/><path class="t" d="m394.66,849.96h29.16v8.17c0,1.3-1.06,2.36-2.36,2.36h-24.43c-1.3,0-2.36-1.06-2.36-2.36v-8.17h0Z" transform="translate(-124.34 71.53) rotate(-8.68)"/><path class="r" d="m384.94,839.36h47.1v9.06c0,1.79-1.45,3.24-3.24,3.24h-40.63c-1.79,0-3.24-1.45-3.24-3.24v-9.06h0Z" transform="translate(-122.88 71.3) rotate(-8.68)"/><path class="t" d="m571.45,824.18h29.16v8.17c0,1.3-1.06,2.36-2.36,2.36h-24.43c-1.3,0-2.36-1.06-2.36-2.36v-8.17h0Z" transform="translate(-118.42 97.9) rotate(-8.68)"/><path class="r" d="m561.74,812.23h47.1v9.06c0,1.79-1.45,3.24-3.24,3.24h-40.63c-1.79,0-3.24-1.45-3.24-3.24v-9.06h0Z" transform="translate(-116.76 97.66) rotate(-8.68)"/><path class="l" d="m239.25,1330.79c-1.41,0-2.83-.24-4.23-.75-6.39-2.34-9.68-9.42-7.35-15.81l146.23-400.06c2.34-6.4,9.41-9.69,15.81-7.35,6.39,2.34,9.68,9.42,7.35,15.81l-146.23,400.06c-1.83,5-6.55,8.1-11.58,8.1Z"/><path class="l" d="m751.4,1336.26c-5.18,0-10-3.29-11.71-8.48l-141.47-430.5c-2.13-6.47,1.39-13.44,7.86-15.56,6.46-2.13,13.43,1.39,15.56,7.86l141.47,430.5c2.13,6.47-1.39,13.44-7.86,15.56-1.28.42-2.57.62-3.85.62Z"/><path class="m" d="m926.25,706.93c0-37.71-30.1-68.38-67.59-69.32-53.71-1.4-139.44-3.59-182.74-4.7l-158.37,189.48c26.85-3.89,169.17-20.71,192.25-24.06,25.75,0,39.49,20.23,73.29-10.62-17,37.7-4.36,35.71-4.36,81.09-4.09,76.05-8.02,149.19-11.92,221.73-.74,15.9-10.64,40.16-10.64,41.28,0,34.17,78.37,39.09,112.54,39.09,32.24,0,18.57-39.85,21.46-71.34,11.42-122.98,36.1-390.47,36.1-392.63Z"/><path class="n" d="m719.7,634.03c-14.29-.37-17.08-.44-32.14-.82l-112.19,147.36c53.31-7.72,23.29,33.86,60.5,28.47"/><path class="t" d="m75.63,351.9c0,62.53-6.62,149.1-6.62,149.1,0,0,13.58-70.48,13.58-135.59"/><polyline class="g" points="101.66 507.08 102.32 476.59 105.3 507.42"/><g class="x"><g><circle class="h" cx="1004.25" cy="739.44" r="16.16"/><circle class="h" cx="1010.99" cy="824.3" r="16.16"/><circle class="h" cx="981.35" cy="782.54" r="16.16"/><circle class="h" cx="949.03" cy="738.09" r="16.16"/><circle class="h" cx="943.64" cy="688.26" r="16.16"/><circle class="h" cx="927.03" cy="789.28" r="16.16"/><circle class="h" cx="1043.31" cy="781.19" r="16.16"/></g></g><g><path class="l" d="m642.34,410.32c.8,3.9-4.29,6.34-10.29,3.35-6-2.99-9.05-6.08-9.05-6.08,0,0-9.09.53-18.6-6.27,0,0-8.05,2.78-16.27-3.18l-5.66-.75,10-12.2,26.26,8.1,16.93,10.04,6.68,7.01Z"/><path class="o" d="m609.49,382c14.24,6.12,24.82,11.63,33.51,18.53l7.88,4.19s1.13,6.62-8.54,5.6c-9.67-1.01-13.05-7.29-13.05-7.29,0,0-9.55-1.13-17.89-6.97,0,0-7.69,2.42-19.23-1.91,0,0-6.41,4.44-10.53,4.06-4.13-.38,8.14-15.99,8.14-15.99l19.71-.21Z"/><path class="o" d="m593.6,429.34s-.77-4.33,1.02-8.64c0,0,10.48-2.91,11.17,5.35.65,7.75-12.19,3.28-12.19,3.28Z"/><path class="l" d="m565.84,412.38c12.38,2.57,32.61,2.89,36.45,8.14,3.37,4.6,3.31,10.56-4.48,10.98-7.79.42-17.8-3.79-29.37-2.92-11.57.86-25.03,3.61-38.01,1.15-9.51-1.81-9.89-.97-15.45,3.79-3.51,3.01.62-26.67.62-26.67l26.81,5.11,23.43.44Z"/><path class="l" d="m570.95,402.85c-8.2,2.93-10.03,7.52-5.11,9.52l-34.93,2.26"/><path class="l" d="m643,400.53c2.06,4.77,7.12,6.46,10.81,5.47,0,0-5.62-3.91-10.81-5.47"/><path class="o" d="m577.25,379.98c-8.53-3.38-15.03,1.29-25.35,4.88-10.33,3.59-44.41,5.81-57.43,18.64-27.12,26.74-7.85,24.1-91.2,97.85l6.32,99.46c33.06-32.6,100.77-151.85,110.09-160.08,10.99-9.7,27.43-26.27,47.94-34.43"/><path class="o" d="m530.9,414.63l46.34-34.65,27.02-10.65s25.18-3.13,38.17-6.46c5.31,13.07-16.86,13.81-16.86,13.81,0,0-8.41,4.31-17.39,5.9,0,0-9.26,7.49-18.12,8.72,0,0-3.39,7.37-22.45,15"/><path class="l" d="m633.73,364.87c4.71,2.21,9.62.11,11.72-3.07,0,0-6.8.8-11.72,3.07"/></g><path class="r" d="m698.69,812.53s-79.1-175.52-129.42-225.84c-29.5-29.5-89.43-7.99-331.53-7.99-16.77,0-32.98-2.08-47.99-11.34h0c14.05,29.61,32.91,107.44,47.99,176.43,15.17,69.41,81.68,115.06,151.9,104.22,0,0,174.39-27.17,230.89-35.65,56.49-8.47,78.15.17,78.15.17Z"/><path class="u" d="m705,820.14s-94.04-199.33-127.55-232.84c-33.33-33.33-80.5-17.59-308.78-17.59-102,0-163.72-131.81-163.72-131.81-13.9,13.9,53.04,144.5,132.78,144.5,242.1,0,302.03-21.52,331.53,7.99,50.32,50.32,94.74,236.43,135.74,229.76Z"/><path class="i" d="m239.4,446.3c7.92-4.12,17.68-1.04,21.8,6.88,4.12,7.92,1.04,17.68-6.88,21.8"/><path class="i" d="m379.75,515.55c5.65,6.91,4.64,17.09-2.27,22.75-6.91,5.65-17.09,4.64-22.75-2.27"/><path class="i" d="m232.19,432.87c-6.15,3.18-14.46-.66-18.56-8.59-4.11-7.93-2.45-16.93,3.69-20.12"/><path class="i" d="m293.09,548.85c-6.15,3.18-14.46-.66-18.56-8.59-4.11-7.93-2.45-16.93,3.69-20.12"/><circle class="i" cx="156.18" cy="373.56" r="16.16"/><circle class="i" cx="155.07" cy="454.66" r="16.16"/><ellipse class="i" cx="275.31" cy="374.07" rx="12.53" ry="16.16" transform="translate(-172.59 251.15) rotate(-38.3)"/><path class="i" d="m336.25,475.75c-5.43,4.29-14.32,2.09-19.85-4.92-5.53-7.01-5.62-16.16-.18-20.45,5.43-4.29,12.64-.41,18.17,6.6,5.53,7.01,7.29,14.48,1.86,18.77Z"/><g class="v"><ellipse class="i" cx="332.64" cy="393.17" rx="7.31" ry="16.16" transform="translate(-172.09 290.79) rotate(-38.3)"/><circle class="p" cx="137.32" cy="302.71" r="16.16"/><circle class="i" cx="93.4" cy="396.95" r="16.16"/></g><path class="t" d="m282.76,112.71c0-18.75-42.02-50.4-83.56-50.4-127.24,0-123.42,195.53-123.42,195.53,0,8.96,11.87,20.1,28.74,30.47l-4.62,55.37c23.36-36.83,49.43-26.3,95.17,12.81,36.22,30.97,43.76-12.41,46.31-65.14.9-18.59,2.27-37.17,4.42-55.65,5.17-44.49,4.53-92.45,36.97-122.99Z"/><g><path d="m699.88,386.84l-200.5,159.02c-6.15,4.87-14.16,6.73-21.82,5.05h0c-1.59-.35-2.07-2.39-.79-3.41l229.87-182.31c1.28-1.01,3.16-.09,3.14,1.54h0c-.11,7.84-3.75,15.22-9.89,20.1Z"/><g><circle class="s" cx="682.46" cy="393.22" r="1.69"/><path class="s" d="m651.11,419.83l27.1-21.49c1.23-.98-.42-3.05-1.65-2.08l-27.1,21.49c-1.12.89.53,2.97,1.65,2.08Z"/></g></g></g><path class="n" d="m739.05,560.62c35.65-58.08,49.54-77.44,49.54-77.44l-38.72,99.75-10.81-22.3Z"/><path class="n" d="m783.07,787.71c16.58-23.02,19.24-54.16,30.22-46.45,10.97,7.71-30.22,46.45-30.22,46.45Z"/><polygon class="k" points="217.32 404.16 303.2 568.53 327.22 551.02 217.32 404.16"/><path class="t" d="m281.93,113.13c-18.41,39.03-33.37,175.57-29.08,256.51-10.25-53.33.28-188.67,3.9-252.33"/></g></g></g></svg>