<svg data-name="logo" xmlns="http://www.w3.org/2000/svg" viewBox="0 0 1077.2 113.6"><path d="M518.4 2.5h105.7v14.8h-45.2V111h-15.5V17.3h-45Zm-254 108.6h82V96.3H280V62.7h60.5V48H280V17.3h66.3V2.5h-81.8Zm-51-62h-68.8V2.5h-15.5v108.6h15.5V64h68.8v47.2h15.5V2.5h-15.5ZM0 17.3h45V111h15.5V17.3h45.2V2.5H0Zm484.9 36.4a184.3 184.3 0 0 0-23.1-4.3q-11.4-1.5-18-3a26.8 26.8 0 0 1-11-5.2q-4.3-3.5-4.3-10a14 14 0 0 1 3.4-9.5 20.3 20.3 0 0 1 9.6-5.8 48.4 48.4 0 0 1 14.2-1.9 49 49 0 0 1 15.5 2.3 26.5 26.5 0 0 1 11.1 6.9 24.8 24.8 0 0 1 6 11.5l15-3.8a36.9 36.9 0 0 0-8.1-16.5 38.6 38.6 0 0 0-15.9-10.7A63.5 63.5 0 0 0 456.7 0a67.6 67.6 0 0 0-22.4 3.5 33.6 33.6 0 0 0-15.8 10.8q-5.7 7.4-5.7 18.2 0 11.4 6.2 17.6a33.8 33.8 0 0 0 15 8.7 193.8 193.8 0 0 0 23.2 4.6q11.4 1.6 18 3.2a27.4 27.4 0 0 1 10.7 5 12 12 0 0 1 4.4 9.9 14.3 14.3 0 0 1-3.5 9.7 22 22 0 0 1-10 6.2 48.3 48.3 0 0 1-15.3 2.2 50.4 50.4 0 0 1-17.1-2.7 30.2 30.2 0 0 1-12.4-8 29.2 29.2 0 0 1-6.8-13.7l-16 2.9a41.5 41.5 0 0 0 9.6 19.2 45.5 45.5 0 0 0 17.9 12.2 70.7 70.7 0 0 0 47 .2A36.6 36.6 0 0 0 500 98.1q6-7.7 6-18.7 0-11.2-6.2-17.3a33.8 33.8 0 0 0-15-8.4Zm592.3 3.1q0 17.4-7.3 30.2a49.5 49.5 0 0 1-20.5 19.7q-13.1 7-30.3 7t-30.2-7A49.6 49.6 0 0 1 968.5 87q-7.3-12.8-7.3-30.2t7.3-30.2A49.6 49.6 0 0 1 989 7q13-7 30.2-7t30.3 7a49.5 49.5 0 0 1 20.5 19.7q7.3 12.9 7.3 30.2Zm-15.9 0q0-13.1-5.3-22.6a36 36 0 0 0-15-14.5 50.9 50.9 0 0 0-43.7 0 35.6 35.6 0 0 0-15 14.5q-5.3 9.5-5.3 22.6t5.4 22.6a35.5 35.5 0 0 0 15 14.5 50.9 50.9 0 0 0 43.7 0 35.9 35.9 0 0 0 15-14.5q5.2-9.5 5.2-22.6ZM727.6 70.2q0 9.1-3.8 15.5a24.5 24.5 0 0 1-11 9.7q-7.4 3.5-17.8 3.4t-18-3.4a24 24 0 0 1-11-9.7 30.2 30.2 0 0 1-3.8-15.5V2.5h-15.5v69.8a42 42 0 0 0 5.4 21.4 36.6 36.6 0 0 0 16.3 14.6q10.8 5.3 26.6 5.3 15.6 0 26.5-5.2a36.4 36.4 0 0 0 16.2-14.7 42.3 42.3 0 0 0 5.4-21.4V2.5h-15.5Zm186.3 41h15.5V2.4h-15.5Zm-39-83.7q7.2 12.1 7.2 28.9t-7.2 29a48.2 48.2 0 0 1-20.4 19q-13.2 6.7-30.7 6.7h-45.9V2.5h46.5q17.2 0 30.2 6.4a47.3 47.3 0 0 1 20.2 18.5Zm-8.6 29.2A44.8 44.8 0 0 0 862 37q-4.2-8.9-14.2-14.3t-26.1-5.5h-28.2v79h28.1q16.2 0 26.2-5.5T862 76.3a45.3 45.3 0 0 0 4.3-19.6Z"/></svg>