<?xml version="1.0" encoding="UTF-8"?>
<svg width="40px" height="20px" viewBox="0 0 40 20" version="1.1" xmlns="http://www.w3.org/2000/svg" xmlns:xlink="http://www.w3.org/1999/xlink">
    <title>Group</title>
    <g id="Page-1" stroke="none" stroke-width="1" fill="none" fill-rule="evenodd">
        <g id="Group" transform="translate(0.833008, 0.381590)" fill="#000000">
            <path d="M5.178432,9.01828 C5.178432,6.92332 6.876752,5.225 8.971702,5.225 L11.849892,5.225 L11.849892,3.07611 L8.948272,3.07611 C5.671722,3.07611 3.005862,5.74172 3.005862,9.01852 C3.005862,12.29481 5.671722,14.96071 8.948272,14.96071 L14.535292,14.96071 C14.847692,14.96071 15.099092,14.65341 15.099092,14.39881 L15.099092,3.39219 C15.099092,2.78565 15.479692,2.27406 16.045692,2.1198 C16.528692,1.98824 17.205992,2.12175 17.658792,2.89085 C17.679792,2.92649 19.052492,5.29261 21.144592,8.89868 C22.786192,11.73001 24.484792,14.65781 24.515592,14.71001 C24.691092,15.00851 24.932192,15.14961 25.161192,15.08741 C25.305392,15.04811 25.474592,14.90821 25.474592,14.64391 L25.474592,3.39219 C25.474792,2.78467 25.853892,2.27308 26.417892,2.11931 C26.897792,1.98872 27.571692,2.12272 28.023992,2.89085 C28.044292,2.92478 29.257592,5.01729 31.254392,8.45933 C33.020092,11.50331 34.846092,14.65141 34.880492,14.70981 C35.056492,15.00851 35.297892,15.14961 35.526292,15.08741 C35.670792,15.04811 35.839692,14.90821 35.839692,14.64411 L35.839692,0.0673129979 L33.685692,0.0673129979 L33.685692,8.74564 C33.685692,8.74564 30.087192,2.54645 29.921992,2.26551 C27.637392,-1.6149 23.320492,-0.0110370021 23.320492,3.32946 L23.320492,8.74564 C23.320492,8.74564 19.721992,2.54645 19.556792,2.26551 C17.272192,-1.6149 12.955592,-0.0110370021 12.955092,3.32946 L12.955092,12.20671 C12.956292,12.52991 12.713692,12.81131 12.360292,12.81181 L8.971702,12.81181 C6.876752,12.81181 5.178432,11.11321 5.178432,9.01828" id="Path"></path>
            <path d="M36.699592,0.0673849979 L36.699592,14.64421 C36.699592,15.25101 36.319092,15.76231 35.753092,15.91681 C35.648892,15.94491 35.535592,15.96121 35.417692,15.96121 C34.988092,15.96121 34.495292,15.74891 34.139992,15.14581 C34.120892,15.11331 32.690592,12.64761 30.511392,8.89045 C28.939092,6.18041 27.313492,3.37811 27.283492,3.32685 C27.108192,3.02883 26.869492,2.88726 26.643992,2.94877 C26.501392,2.98782 26.334492,3.12744 26.334492,3.39275 L26.334492,14.64421 C26.334492,15.25121 25.953892,15.76231 25.387692,15.91681 C24.904592,16.04811 24.227292,15.91491 23.774492,15.14581 C23.756492,15.11451 22.426692,12.82281 20.401292,9.33004 C18.704192,6.40521 16.949792,3.38055 16.918292,3.32685 C16.742292,3.0281 16.500892,2.88702 16.272392,2.94926 C16.127892,2.98855 15.959292,3.12841 15.959292,3.39226 L15.958992,14.39891 C15.958992,15.15631 15.293892,15.82041 14.535592,15.82041 L8.948522,15.82061 C5.197722,15.82061 2.146452,12.76911 2.146452,9.01859 C2.146452,5.26779 5.197722,2.21628 8.948522,2.21628 L11.850392,2.21628 L11.850392,0.0673849979 L8.950962,0.0673849979 C4.007572,0.0673849979 -1.0658141e-14,4.07472 -1.0658141e-14,9.01859 C-1.0658141e-14,13.96171 4.007572,17.96931 8.950962,17.96931 L14.592392,17.96931 C16.736692,17.97051 18.115692,16.71401 18.113592,14.39641 L18.113592,9.29099 C18.113592,9.29099 21.711592,15.49021 21.876992,15.77091 C24.161692,19.65151 28.478692,18.04761 28.478692,14.70711 L28.478692,9.29099 C28.478692,9.29099 32.077192,15.49021 32.241992,15.77091 C34.526592,19.65151 38.843892,18.04761 38.843892,14.70711 L38.843892,0.0673849979 L36.699592,0.0673849979 Z" id="Path"></path>
        </g>
    </g>
</svg>