<?xml version="1.0" encoding="UTF-8"?>
<svg width="190px" height="26px" viewBox="0 0 190 26" version="1.1" xmlns="http://www.w3.org/2000/svg" xmlns:xlink="http://www.w3.org/1999/xlink">
    <title>Group 3</title>
    <g id="Page-1" stroke="none" stroke-width="1" fill="none" fill-rule="evenodd">
        <g id="Group-3" transform="translate(0.145098, 0.969990)" fill="#000000" fill-rule="nonzero">
            <path d="M1.34969422,0.108135336 C0.594486218,0.378968669 0.177819551,0.951884669 0.047610218,1.899802 C0.00594355136,2.25396867 -0.00968178198,5.097718 0.00594355136,12.7539687 L0.0215688847,23.1289687 L0.146568885,23.394594 C0.203860885,23.53001 0.365318218,23.769594 0.495527551,23.910218 C1.09969422,24.5716767 1.95906888,24.7331353 2.75594355,24.3320927 C3.16219422,24.1341767 3.45906888,23.8216767 3.66740222,23.3841767 L3.80802755,23.0716767 L3.83927688,14.0612607 L3.86531822,5.04563534 L24.4174022,15.4831353 L26.5476102,14.4310513 C27.7246942,13.847718 28.6830283,13.3581353 28.6830283,13.34251 C28.6882356,13.290426 2.70386088,0.118551336 2.47469422,0.0560513358 C2.14136088,-0.0324899976 1.67261022,-0.0168646642 1.34969422,0.108135336 Z" id="Path"></path>
            <path d="M94.9694862,0.108135336 C94.8549022,0.139384669 94.6830276,0.201884669 94.5788609,0.253968669 C94.4799022,0.306051336 88.8861529,3.58209267 82.1465689,7.540426 C75.4017769,11.4987593 68.0996942,15.78001 65.9121942,17.0664687 C63.7194862,18.3529273 61.9069849,19.399802 61.8861529,19.399802 C61.8601102,19.399802 61.8288609,15.4310513 61.8236516,10.5768847 L61.8080276,1.75917667 L61.6621942,1.45188467 C61.4069849,0.910218002 60.8965689,0.509176669 60.2819849,0.384176669 C59.9278196,0.311260669 59.2090689,0.394594002 58.7715689,0.556051336 C58.5007356,0.655010002 31.9330276,13.5560513 30.4121942,14.3216767 C29.9069849,14.5768847 28.7715689,15.15501 27.8913609,15.6029273 L26.2819849,16.415426 L26.8861529,16.7279273 C27.2142769,16.90501 28.0163609,17.3112607 28.6569849,17.6393847 C29.9746942,18.3008433 30.2976102,18.3893847 30.8965689,18.285218 C31.1361529,18.2383433 33.2819849,17.21751 39.3861529,14.2539687 C43.8757356,12.0768847 49.8913609,9.15501 52.7559436,7.76438467 L57.9642769,5.23313534 L57.9903182,14.0664687 C58.0163609,20.7539687 58.0371942,22.9466767 58.0892769,23.087302 C58.2715689,23.6029273 58.8184436,24.212302 59.3132356,24.4466767 C59.6934436,24.6289687 60.3705276,24.665426 60.7507356,24.519594 C60.9069849,24.4570927 63.6205276,22.8893847 66.7924022,21.03001 C69.9590689,19.1758433 72.6049022,17.6341767 72.6674022,17.6029273 C72.7351102,17.5820927 74.1153182,16.774802 75.7351102,15.8112607 C78.3913609,14.2331353 83.5319849,11.212302 92.3705276,6.03001 C94.6049022,4.71751 95.4278196,4.25917667 95.4903182,4.29563534 C95.5319849,4.32688467 99.3653182,6.46751 104.005944,9.05605134 L112.438236,13.7643847 L97.4590689,13.78001 L82.4851102,13.790426 L79.2142769,15.712302 L75.9382356,17.6341767 L97.7038609,17.660218 L119.474694,17.6862607 L125.755944,21.21751 C129.214277,23.149802 132.156985,24.774802 132.30282,24.8216767 C132.469486,24.8737593 132.714277,24.894594 132.98511,24.8841767 C133.714277,24.84251 134.281985,24.4518847 134.594486,23.774802 C134.67782,23.587302 134.745528,23.3320927 134.755944,23.1185513 L134.776777,22.774802 L135.151777,22.915426 C136.73511,23.53001 138.92782,24.0716767 141.005944,24.3581353 C141.584069,24.4414687 143.933028,24.4466767 164.573652,24.4362607 L187.500736,24.4206353 L187.808028,24.274802 C188.198652,24.087302 188.563236,23.71751 188.750736,23.3268847 C188.870528,23.0612607 188.891361,22.9414687 188.891361,22.4831353 C188.891361,22.0143847 188.875736,21.915426 188.73511,21.65501 C188.531985,21.2591767 188.198652,20.9362607 187.813236,20.7487593 L187.500736,20.6029273 L141.479902,20.5508433 L140.511153,20.3633433 C137.79761,19.8529273 135.714277,19.1081353 134.219486,18.1081353 C133.573652,17.6758433 132.698652,16.84251 132.328861,16.2956353 C131.651777,15.3060513 131.349694,14.4310513 131.276777,13.222718 C131.250736,12.6758433 131.261153,12.5143847 131.370528,12.0508433 C131.891361,9.82167667 133.063236,8.13938467 134.933028,6.92063534 C136.203861,6.09251 138.214277,5.37896867 140.198652,5.04563534 C140.568444,4.99355134 140.959069,4.92063534 141.063236,4.894594 C141.167402,4.87375934 151.636153,4.84251 164.323652,4.82167667 L187.391361,4.790426 L187.698652,4.644594 C188.099694,4.45188467 188.448652,4.10813534 188.636153,3.70188467 C188.761153,3.43626067 188.781985,3.31126067 188.781985,2.88417667 C188.781985,2.45709267 188.761153,2.32688467 188.636153,2.07167667 C188.453861,1.67584334 188.11011,1.33209267 187.709069,1.13417667 L187.391361,0.977927336 L164.464277,0.962302002 C141.688236,0.946676669 141.531985,0.946676669 140.646569,1.06126067 C133.693444,1.95188467 129.245528,5.23834334 127.787194,10.5664687 C127.412194,11.9310513 127.396569,12.0456353 127.433028,13.1966767 C127.464277,13.9362607 127.505944,14.4206353 127.584069,14.7956353 C127.854902,16.024802 128.344486,17.21751 129.000736,18.2279273 C129.318444,18.712302 129.339277,18.774802 129.209069,18.7018847 C129.120528,18.660218 121.73511,14.53001 112.787194,9.524802 C103.839277,4.519594 96.3809436,0.352927336 96.2142769,0.264384669 C95.8653182,0.0873020024 95.3288609,0.0195940024 94.9694862,0.108135336 Z" id="Path"></path>
            <path d="M120.615318,7.13938467 C119.29761,7.394594 118.349694,7.94667667 118.167402,8.587302 C117.92782,9.43105134 118.599694,10.144594 120.031985,10.5612607 C120.729902,10.769594 122.05282,10.837302 122.870528,10.7070927 C124.04761,10.524802 125.078861,9.98834334 125.391361,9.38938467 C125.505944,9.17063534 125.500736,8.70709267 125.386153,8.45188467 C125.099694,7.85292734 124.198652,7.36334334 122.953861,7.144594 C122.391361,7.04563534 121.141361,7.04563534 120.615318,7.13938467 Z" id="Path"></path>
            <path d="M68.1621942,7.149802 C67.2507356,7.290426 66.2194862,7.74355134 65.8340689,8.18105134 C65.5476102,8.49875934 65.4851102,8.69667667 65.5267769,9.12896867 C65.6309436,10.2539687 67.9330276,11.1029273 70.0684436,10.8112607 C70.9226102,10.6966767 71.9382356,10.3008433 72.4069849,9.899802 C73.0007356,9.37896867 73.0111529,8.56126067 72.4330276,8.06646867 C72.1309436,7.81646867 71.2924022,7.415426 70.7767769,7.28001 C70.4226102,7.18626067 70.1309436,7.15501 69.3288609,7.144594 C68.7767769,7.13417667 68.2559436,7.13938467 68.1621942,7.149802 Z" id="Path"></path>
        </g>
    </g>
</svg>