<?xml version="1.0" encoding="UTF-8"?>
<svg width="168px" height="33px" viewBox="0 0 168 33" version="1.1" xmlns="http://www.w3.org/2000/svg" xmlns:xlink="http://www.w3.org/1999/xlink">
    <title>Group 8</title>
    <g id="Page-1" stroke="none" stroke-width="1" fill="none" fill-rule="evenodd">
        <g id="Group-8" transform="translate(0.166667, 0.036459)" fill="#000000" fill-rule="nonzero">
            <path d="M20.6510413,30.7187493 L14.9114587,30.7187493 L14.9114587,27.6093747 L14.7708333,27.6093747 C13.25,30.1093747 10.5937493,31.2916667 8.04166667,31.2916667 C1.59374933,31.2916667 -3.73034936e-14,27.640624 -3.73034936e-14,22.135416 L-3.73034936e-14,8.47395733 L6.057292,8.47395733 L6.057292,21.0260413 C6.057292,24.6718747 7.119792,26.5 9.91666667,26.5 C13.2135413,26.5 14.5937493,24.640624 14.5937493,20.130208 L14.5937493,8.47395733 L20.6510413,8.47395733 L20.6510413,30.7187493 Z" id="Path"></path>
            <path d="M24.6510413,15.3072907 C25.005208,9.58333333 30.0729173,7.86458267 34.994792,7.86458267 C39.385416,7.86458267 44.6666667,8.869792 44.6666667,14.197916 L44.6666667,25.7812493 C44.6666667,27.822916 44.880208,29.822916 45.442708,30.7187493 L39.317708,30.7187493 C39.1041667,30.0364587 38.9270827,29.2864587 38.8906253,28.572916 C36.9791667,30.6093747 34.1458333,31.3281253 31.489584,31.3281253 C27.307292,31.3281253 23.9791667,29.2135413 23.9791667,24.6718747 C23.9791667,19.630208 27.7343747,18.4531253 31.489584,17.9166667 C35.2083333,17.3437493 38.6458333,17.4843747 38.6458333,14.9843747 C38.6458333,12.375 36.8385413,11.9791667 34.7135413,11.9791667 C32.4114587,11.9791667 30.9218747,12.9062493 30.7083333,15.3385413 L24.6510413,15.3385413 L24.6510413,15.3072907 Z M38.6458333,19.8489573 C37.614584,20.7395827 35.489584,20.7760413 33.614584,21.135416 C31.739584,21.5260413 30.0364587,22.1718747 30.0364587,24.390624 C30.0364587,26.6770827 31.7708333,27.2135413 33.755208,27.2135413 C38.4687493,27.2135413 38.6458333,23.4218747 38.6458333,22.0989573 L38.6458333,19.8489573 Z" id="Shape"></path>
            <polygon id="Path" points="49.307292 -1.77635684e-14 55.3593747 -1.77635684e-14 55.3593747 30.7187493 49.307292 30.7187493"></polygon>
            <path d="M68.75,15.4843747 L62.057292,15.4843747 L62.057292,8.869792 L68.75,8.869792 L68.75,15.4843747 Z M62.057292,24.1041667 L68.75,24.1041667 L68.75,30.7187493 L62.057292,30.7187493 L62.057292,24.1041667 Z" id="Shape"></path>
            <path d="M83.3437493,10.942708 C83.2031253,10.0833333 82.6718747,9.619792 81.7864587,9.619792 C80.4375,9.619792 79.9791667,11.015624 79.9791667,12.1562493 C79.9791667,13.265624 80.4010413,14.5885413 81.75,14.5885413 C82.739584,14.5885413 83.307292,13.947916 83.4114587,13.015624 L85.4687493,13.015624 C85.182292,15.0885413 83.8020827,16.197916 81.75,16.197916 C79.4114587,16.197916 77.8541667,14.5520827 77.8541667,12.2291667 C77.8541667,9.79687467 79.2708333,8.010416 81.7864587,8.010416 C83.5885413,8.010416 85.255208,8.97395733 85.3958333,10.942708 L83.3437493,10.942708 Z" id="Path"></path>
            <path d="M88.1614587,12.625 C88.2291667,13.9791667 88.869792,14.5885413 90.0364587,14.5885413 C90.885416,14.5885413 91.5625,14.0520827 91.7031253,13.5885413 L93.5781253,13.5885413 C92.9791667,15.4114587 91.7031253,16.197916 89.9687493,16.197916 C87.557292,16.197916 86.0364587,14.515624 86.0364587,12.119792 C86.0364587,9.79687467 87.630208,8.010416 89.9687493,8.010416 C92.5885413,8.010416 93.864584,10.2291667 93.6875,12.625 L88.1614587,12.625 Z M91.5937493,11.265624 C91.4166667,10.192708 90.9583333,9.619792 89.932292,9.619792 C88.5833333,9.619792 88.192708,10.6562493 88.1614587,11.265624 L91.5937493,11.265624 Z" id="Shape"></path>
            <path d="M94.7135413,8.22395733 L96.7291667,8.22395733 L96.7291667,9.29687467 L96.7656253,9.29687467 C97.2968747,8.4375 98.2187493,8.010416 99.1041667,8.010416 C101.333333,8.010416 101.901041,9.29687467 101.901041,11.192708 L101.901041,15.9843747 L99.7760413,15.9843747 L99.7760413,11.5833333 C99.7760413,10.2968747 99.4218747,9.692708 98.432292,9.692708 C97.2968747,9.692708 96.8020827,10.3333333 96.8020827,11.9062493 L96.8020827,15.9843747 L94.6770827,15.9843747 L94.6770827,8.22395733 L94.7135413,8.22395733 Z" id="Path"></path>
            <path d="M105.869792,8.22395733 L107.427083,8.22395733 L107.427083,9.65624933 L105.869792,9.65624933 L105.869792,13.515624 C105.869792,14.2343747 106.046875,14.4114587 106.755208,14.4114587 C106.968749,14.4114587 107.182292,14.4114587 107.390625,14.3385413 L107.390625,16.0208333 C107.036459,16.0937493 106.578125,16.0937493 106.151041,16.0937493 C104.843749,16.0937493 103.744792,15.8072907 103.744792,14.2343747 L103.744792,9.65624933 L102.468749,9.65624933 L102.468749,8.22395733 L103.744792,8.22395733 L103.744792,5.90104133 L105.869792,5.90104133 L105.869792,8.22395733 Z" id="Path"></path>
            <path d="M108.208333,8.22395733 L110.223959,8.22395733 L110.223959,9.65624933 L110.260416,9.65624933 C110.651041,8.6875 111.677083,8.010416 112.703125,8.010416 C112.848959,8.010416 113.026041,8.04687467 113.166667,8.08333333 L113.166667,10.0468747 C112.989584,10.010416 112.671875,9.97395733 112.421875,9.97395733 C110.864584,9.97395733 110.333333,11.119792 110.333333,12.4791667 L110.333333,15.9843747 L108.208333,15.9843747 L108.208333,8.22395733 Z" id="Path"></path>
            <path d="M113.380208,10.5833333 C113.484375,8.58333333 115.255208,7.97395733 116.989584,7.97395733 C118.515625,7.97395733 120.354167,8.33333333 120.354167,10.192708 L120.354167,14.2343747 C120.354167,14.947916 120.427083,15.625 120.640625,15.947916 L118.515625,15.947916 C118.442708,15.697916 118.375,15.447916 118.375,15.197916 C117.697917,15.9114587 116.708333,16.1614587 115.786459,16.1614587 C114.333333,16.1614587 113.166667,15.4114587 113.166667,13.8385413 C113.166667,12.0885413 114.473959,11.6562493 115.786459,11.4791667 C117.098959,11.3020827 118.302083,11.3333333 118.302083,10.442708 C118.302083,9.510416 117.661459,9.40624933 116.921875,9.40624933 C116.104167,9.40624933 115.609375,9.72395733 115.536459,10.5833333 L113.380208,10.5833333 Z M118.265625,12.192708 C117.911459,12.515624 117.166667,12.515624 116.494792,12.6562493 C115.859375,12.8020827 115.255208,13.015624 115.255208,13.8020827 C115.255208,14.5885413 115.859375,14.8020827 116.567708,14.8020827 C118.229167,14.8020827 118.265625,13.4791667 118.265625,13.015624 L118.265625,12.192708 Z" id="Shape"></path>
            <polygon id="Path" points="121.843749 5.255208 123.968749 5.255208 123.968749 15.9843747 121.843749 15.9843747"></polygon>
            <path d="M79.7291667,28.2135413 C79.7291667,29.1458333 80.510416,29.5364587 81.3593747,29.5364587 C81.9635413,29.5364587 82.739584,29.2864587 82.739584,28.5364587 C82.739584,27.890624 81.8541667,27.6770827 80.3333333,27.322916 C79.130208,27.0364587 77.8906253,26.6041667 77.8906253,25.244792 C77.8906253,23.2812493 79.5885413,22.744792 81.255208,22.744792 C82.9166667,22.744792 84.4739587,23.317708 84.6510413,25.2083333 L82.635416,25.2083333 C82.5625,24.390624 81.9635413,24.1718747 81.182292,24.1718747 C80.7239587,24.1718747 80.0156253,24.2812493 80.0156253,24.890624 C80.0156253,25.640624 81.2187493,25.744792 82.4218747,26.0312493 C83.6614587,26.317708 84.864584,26.7864587 84.864584,28.2135413 C84.864584,30.255208 83.0937493,30.9322907 81.3593747,30.9322907 C79.5885413,30.9322907 77.817708,30.255208 77.744792,28.2135413 L79.7291667,28.2135413 Z" id="Path"></path>
            <path d="M85.7864587,25.3541667 C85.8906253,23.3489573 87.6614587,22.744792 89.4010413,22.744792 C90.9218747,22.744792 92.7656253,23.0989573 92.7656253,24.9583333 L92.7656253,29 C92.7656253,29.7187493 92.8333333,30.3958333 93.0468747,30.7187493 L90.9218747,30.7187493 C90.8541667,30.4687493 90.7812507,30.2187493 90.7812507,29.9687493 C90.1093747,30.6822907 89.114584,30.9322907 88.1979173,30.9322907 C86.744792,30.9322907 85.5729173,30.1822907 85.5729173,28.6093747 C85.5729173,26.8541667 86.885416,26.4270827 88.1979173,26.25 C89.505208,26.067708 90.7083333,26.1041667 90.7083333,25.2083333 C90.7083333,24.2812493 90.0729173,24.1718747 89.3281253,24.1718747 C88.5156253,24.1718747 88.0156253,24.494792 87.9479173,25.3541667 L85.7864587,25.3541667 Z M90.6406253,26.9635413 C90.2864587,27.2864587 89.5416667,27.2864587 88.869792,27.4270827 C88.2291667,27.572916 87.630208,27.7864587 87.630208,28.572916 C87.630208,29.3593747 88.2291667,29.572916 88.9375,29.572916 C90.6041667,29.572916 90.6406253,28.25 90.6406253,27.7864587 L90.6406253,26.9635413 Z" id="Shape"></path>
            <path d="M96.3437493,21.7760413 L94.2187493,21.7760413 L94.2187493,20.0260413 L96.3437493,20.0260413 L96.3437493,21.7760413 Z M94.2187493,22.994792 L96.3437493,22.994792 L96.3437493,30.755208 L94.2187493,30.755208 L94.2187493,22.994792 Z" id="Shape"></path>
            <path d="M97.7916667,22.994792 L99.8125,22.994792 L99.8125,24.067708 L99.8489587,24.067708 C100.380208,23.2083333 101.302083,22.7812493 102.1875,22.7812493 C104.416667,22.7812493 104.984375,24.067708 104.984375,25.9635413 L104.984375,30.755208 L102.859375,30.755208 L102.859375,26.3541667 C102.859375,25.067708 102.505208,24.4583333 101.510416,24.4583333 C100.380208,24.4583333 99.885416,25.1041667 99.885416,26.6770827 L99.885416,30.755208 L97.760416,30.755208 L97.760416,22.994792 L97.7916667,22.994792 Z" id="Path"></path>
            <path d="M109.057292,22.994792 L110.614584,22.994792 L110.614584,24.4218747 L109.057292,24.4218747 L109.057292,28.2864587 C109.057292,29 109.234375,29.1822907 109.942708,29.1822907 C110.156251,29.1822907 110.369792,29.1822907 110.578125,29.1093747 L110.578125,30.7916667 C110.223959,30.8593747 109.765625,30.8593747 109.338541,30.8593747 C108.031251,30.8593747 106.932292,30.572916 106.932292,29 L106.932292,24.4218747 L105.656251,24.4218747 L105.656251,22.994792 L106.932292,22.994792 L106.932292,20.6666667 L109.057292,20.6666667 L109.057292,22.994792 Z" id="Path"></path>
            <path d="M115.359375,22.994792 L117.343749,22.994792 L117.343749,24.0312493 L117.380208,24.0312493 C117.947917,23.244792 118.729167,22.7812493 119.718749,22.7812493 C120.677083,22.7812493 121.5625,23.135416 121.947917,24.067708 C122.411459,23.385416 123.1875,22.7812493 124.286459,22.7812493 C125.916667,22.7812493 127.083333,23.5312493 127.083333,25.567708 L127.083333,30.755208 L124.958333,30.755208 L124.958333,26.3541667 C124.958333,25.317708 124.854167,24.4583333 123.651041,24.4583333 C122.447917,24.4583333 122.234375,25.4635413 122.234375,26.4270827 L122.234375,30.755208 L120.109375,30.755208 L120.109375,26.390624 C120.109375,25.494792 120.177083,24.4583333 118.833333,24.4583333 C118.406251,24.4583333 117.416667,24.744792 117.416667,26.25 L117.416667,30.755208 L115.291667,30.755208 L115.291667,22.994792 L115.359375,22.994792 Z" id="Path"></path>
            <path d="M128.432292,25.3541667 C128.536459,23.3489573 130.307292,22.744792 132.041667,22.744792 C133.567708,22.744792 135.411459,23.0989573 135.411459,24.9583333 L135.411459,29 C135.411459,29.7187493 135.479167,30.3958333 135.692708,30.7187493 L133.567708,30.7187493 C133.494792,30.4687493 133.427083,30.2187493 133.427083,29.9687493 C132.75,30.6822907 131.760416,30.9322907 130.838541,30.9322907 C129.385416,30.9322907 128.218749,30.1822907 128.218749,28.6093747 C128.218749,26.8541667 129.531251,26.4270827 130.838541,26.25 C132.151041,26.067708 133.354167,26.1041667 133.354167,25.2083333 C133.354167,24.2812493 132.718749,24.1718747 131.973959,24.1718747 C131.156251,24.1718747 130.661459,24.494792 130.593749,25.3541667 L128.432292,25.3541667 Z M133.286459,26.9635413 C132.927083,27.2864587 132.1875,27.2864587 131.510416,27.4270827 C130.875,27.572916 130.270833,27.7864587 130.270833,28.572916 C130.270833,29.3593747 130.875,29.572916 131.583333,29.572916 C133.25,29.572916 133.286459,28.25 133.286459,27.7864587 L133.286459,26.9635413 Z" id="Shape"></path>
            <path d="M136.828125,22.994792 L138.843749,22.994792 L138.843749,24.4218747 L138.880208,24.4218747 C139.270833,23.4583333 140.296875,22.7812493 141.322917,22.7812493 C141.463541,22.7812493 141.640625,22.8125 141.786459,22.8489573 L141.786459,24.817708 C141.609375,24.7812493 141.286459,24.744792 141.041667,24.744792 C139.484375,24.744792 138.953125,25.890624 138.953125,27.25 L138.953125,30.755208 L136.828125,30.755208 L136.828125,22.994792 Z" id="Path"></path>
            <path d="M145.359375,22.994792 L146.921875,22.994792 L146.921875,24.4218747 L145.359375,24.4218747 L145.359375,28.2864587 C145.359375,29 145.536459,29.1822907 146.244792,29.1822907 C146.458333,29.1822907 146.671875,29.1822907 146.885416,29.1093747 L146.885416,30.7916667 C146.531251,30.8593747 146.067708,30.8593747 145.645833,30.8593747 C144.333333,30.8593747 143.234375,30.572916 143.234375,29 L143.234375,24.4218747 L141.963541,24.4218747 L141.963541,22.994792 L143.234375,22.994792 L143.234375,20.6666667 L145.359375,20.6666667 L145.359375,22.994792 Z" id="Path"></path>
            <path d="M149.932292,21.7760413 L147.807292,21.7760413 L147.807292,20.0260413 L149.932292,20.0260413 L149.932292,21.7760413 Z M147.838541,22.994792 L149.968749,22.994792 L149.968749,30.755208 L147.838541,30.755208 L147.838541,22.994792 Z" id="Shape"></path>
            <path d="M151.385416,22.994792 L153.401041,22.994792 L153.401041,24.067708 L153.4375,24.067708 C153.968749,23.2083333 154.890625,22.7812493 155.776041,22.7812493 C158.005208,22.7812493 158.572917,24.067708 158.572917,25.9635413 L158.572917,30.755208 L156.447917,30.755208 L156.447917,26.3541667 C156.447917,25.067708 156.093749,24.4583333 155.104167,24.4583333 C153.968749,24.4583333 153.473959,25.1041667 153.473959,26.6770827 L153.473959,30.755208 L151.348959,30.755208 L151.348959,22.994792 L151.385416,22.994792 Z" id="Path"></path>
            <path d="M161.546875,28.2135413 C161.546875,29.1458333 162.328125,29.5364587 163.177083,29.5364587 C163.781251,29.5364587 164.557292,29.2864587 164.557292,28.5364587 C164.557292,27.890624 163.671875,27.6770827 162.151041,27.322916 C160.947917,27.0364587 159.708333,26.6041667 159.708333,25.244792 C159.708333,23.2812493 161.406251,22.744792 163.072917,22.744792 C164.734375,22.744792 166.296875,23.317708 166.473959,25.2083333 L164.453125,25.2083333 C164.380208,24.390624 163.781251,24.1718747 163,24.1718747 C162.541667,24.1718747 161.833333,24.2812493 161.833333,24.890624 C161.833333,25.640624 163.036459,25.744792 164.239584,26.0312493 C165.479167,26.317708 166.682292,26.7864587 166.682292,28.2135413 C166.682292,30.255208 164.911459,30.9322907 163.177083,30.9322907 C161.406251,30.9322907 159.635416,30.255208 159.5625,28.2135413 L161.546875,28.2135413 Z" id="Path"></path>
        </g>
    </g>
</svg>