<?xml version="1.0" encoding="UTF-8"?>
<svg width="173px" height="36px" viewBox="0 0 173 36" version="1.1" xmlns="http://www.w3.org/2000/svg" xmlns:xlink="http://www.w3.org/1999/xlink">
    <title>Group 4</title>
    <defs>
        <polygon id="path-1" points="0.588541333 0 61.3333333 0 61.3333333 34.6666667 0.588541333 34.6666667"></polygon>
        <polygon id="path-3" points="0 0 24.5885413 0 24.5885413 24 0 24"></polygon>
    </defs>
    <g id="Page-1" stroke="none" stroke-width="1" fill="none" fill-rule="evenodd">
        <g id="Group-4" transform="translate(-0.000000, 0.333333)">
            <g id="Clipped">
                <mask id="mask-2" fill="white">
                    <use xlink:href="#path-1"></use>
                </mask>
                <g id="Path"></g>
                <path d="M14.005208,2.20833333 C14.2916667,3.385416 14.0781253,3.95312533 8.58333333,17.4531253 C3.47916667,29.994792 3.08854133,30.885416 1.76562533,32.5937493 L0.911458667,33.7708333 L4.22916667,33.7708333 C7.510416,33.7708333 7.58333333,33.7708333 8.15625067,32.7708333 C9.22395867,30.989584 14.6510413,26.0729173 17.255208,24.5781253 C19.5729173,23.2239587 23.4270827,21.4791667 23.6041667,21.7291667 C23.6406253,21.8020827 24.5,23.9010413 25.5312507,26.432292 C26.9583333,29.885416 27.3906253,31.3489587 27.2812507,32.380208 L27.1406253,33.7708333 L30.4583333,33.7708333 C32.2760413,33.7708333 33.7760413,33.630208 33.7760413,33.4479173 C33.7760413,33.2708333 32.635416,30.3125 31.244792,26.8229173 C29.7083333,23.119792 28.817708,20.4114587 28.994792,20.2343747 C29.1718747,20.057292 31.0625,19.807292 33.2031253,19.6614587 L37.057292,19.4114587 L36.9531253,25.614584 C36.8437493,30.9583333 36.7031253,31.989584 36.130208,32.8437493 L35.489584,33.875 L43.9843747,33.6614587 C53.4739587,33.4843747 55.114584,33.1666667 57.7187493,31.1718747 C60.682292,28.8906253 61.755208,24.510416 60.1093747,21.3020827 C59.0781253,19.2708333 56.505208,17.5260413 54.1875,17.2031253 C51.760416,16.885416 51.260416,16.635416 52.3333333,16.3125 C53.760416,15.9218747 56.0416667,14.6770827 56.6875,13.9270827 C59.3593747,11.005208 58.7916667,5.77083333 55.5781253,3.630208 C52.9739587,1.92187467 51.2968747,1.635416 43.0885413,1.45833333 L35.489584,1.28125067 L36.130208,2.27604133 C36.7031253,3.135416 36.8437493,4.16666667 36.9531253,9.04687467 L37.057292,14.817708 L34.989584,15.0312507 C33.8125,15.1770827 31.7083333,15.4218747 30.2812507,15.6041667 C26.744792,16.0989587 26.744792,16.0989587 26.3541667,14.9583333 C26.1770827,14.4270827 24.8541667,11.1510413 23.4270827,7.65625067 L20.8593747,1.35416667 L13.7916667,1.35416667 L14.005208,2.20833333 Z M49.3333333,5.66145867 C51.4739587,6.19791733 52.6875,7.65625067 52.6875,9.72395867 C52.6875,12.75 50.0468747,14.5 45.192708,14.6406253 L42.5208333,14.7135413 L42.4114587,10.4739587 C42.375,8.119792 42.4114587,5.98437467 42.4843747,5.73437467 C42.7343747,5.130208 47.0520827,5.09374933 49.3333333,5.66145867 Z M19.9635413,12.7187493 C20.8958333,14.9270827 21.6458333,16.9531253 21.6458333,17.2031253 C21.6458333,17.4531253 20.75,18.0260413 19.6458333,18.4531253 C18.5364587,18.9166667 16.3593747,20.057292 14.7916667,20.9791667 C13.255208,21.9062507 12.010416,22.5468747 12.0781253,22.4062507 C12.1510413,22.2656253 13.4739587,18.9843747 15.0416667,15.1406253 C16.6093747,11.3281253 18.005208,8.26562533 18.1093747,8.40625067 C18.2187493,8.54687467 19.0729173,10.4739587 19.9635413,12.7187493 Z M51.5468747,19.6979173 C53.760416,20.5885413 54.8281253,22.0520827 54.8281253,24.1510413 C54.8281253,28 53.1875,29.244792 47.8020827,29.4218747 C45.7656253,29.5312507 43.7343747,29.4583333 43.2343747,29.3541667 L42.3385413,29.1406253 L42.3385413,24.1875 C42.3385413,21.4791667 42.4479173,19.1666667 42.625,18.9843747 C43.0520827,18.5208333 49.942708,19.057292 51.5468747,19.6979173 Z" id="Shape" fill="#000000" fill-rule="nonzero" mask="url(#mask-2)"></path>
            </g>
            <path d="M65.7864587,2.3125 C66.3541667,3.20312533 66.4270827,4.489584 66.4270827,17.5625 C66.4270827,30.635416 66.3541667,31.9166667 65.7864587,32.807292 L65.1770827,33.7708333 L73.385416,33.7708333 L72.7812507,32.807292 C72.2083333,31.9166667 72.135416,30.635416 72.135416,17.5625 C72.135416,4.489584 72.2083333,3.20312533 72.7812507,2.3125 L73.385416,1.35416667 L65.1770827,1.35416667 L65.7864587,2.3125 Z" id="Path" fill="#000000" fill-rule="nonzero"></path>
            <path d="M100.864584,1.45833333 C100.864584,1.53125067 101.114584,2.09895867 101.395833,2.635416 C102.182292,4.16666667 102.182292,30.6718747 101.395833,32.557292 L100.864584,33.8437493 L109.354167,33.6979173 C116.885416,33.557292 118.026041,33.4479173 119.916667,32.7708333 C124.166667,31.239584 126.020833,28.7135413 126.020833,24.510416 C126.020833,20.5520827 123.984375,18.307292 119.3125,17.1718747 L116.885416,16.5625 L118.098959,16.135416 C121.526041,14.9583333 123.270833,12.932292 123.593749,9.760416 C123.953125,6.19791733 121.880208,3.489584 117.739584,2.17187467 C116.531251,1.78125067 113.921875,1.567708 108.463541,1.45833333 C104.286459,1.35416667 100.864584,1.35416667 100.864584,1.45833333 Z M115.744792,6.08854133 C118.026041,7.30208267 118.671875,9.6875 117.276041,11.9687493 C116.3125,13.5729173 114.208333,14.4270827 110.604167,14.744792 L107.645833,14.994792 L107.645833,5.16666667 L111.140625,5.34374933 C113.390625,5.44791733 114.994792,5.73437467 115.744792,6.08854133 Z M114.171875,19.1666667 C118.635416,19.807292 120.276041,21.4062507 120.026041,24.755208 C119.776041,28.1770827 117.635416,29.4583333 112.208333,29.494792 C110.317708,29.494792 108.536459,29.3906253 108.213541,29.2812507 C107.713541,29.1041667 107.645833,28.317708 107.645833,24.1875 C107.645833,21.4791667 107.75,19.1666667 107.890625,19.057292 C108.213541,18.7031253 111.354167,18.7708333 114.171875,19.1666667 Z" id="Shape" fill="#000000" fill-rule="nonzero"></path>
            <path d="M84.9843747,11.1510413 C84.1979173,11.4687493 83.4114587,11.8593747 83.2343747,12.0416667 C82.6614587,12.6093747 82.307292,12.4687493 82.307292,11.682292 C82.307292,11.005208 82.057292,10.9687493 78.9166667,10.9687493 C77.0625,10.9687493 75.5260413,11.0781253 75.5260413,11.2187493 C75.5260413,11.3958333 75.7760413,11.8281253 76.0625,12.182292 C76.8489587,13.2135413 76.8489587,31.5260413 76.0625,32.557292 C75.7760413,32.9166667 75.5260413,33.3437493 75.5260413,33.4843747 C75.5260413,33.6614587 77.380208,33.7708333 79.7031253,33.7708333 L83.8437493,33.7708333 L83.1614587,33.0208333 C82.557292,32.3437493 82.4843747,31.5625 82.380208,25.2187493 C82.2343747,17.2760413 82.4843747,16.1718747 84.5208333,14.8906253 C85.4479173,14.2864587 86.125,14.1770827 87.625,14.2864587 C89.3020827,14.3906253 89.7291667,14.6041667 90.7656253,15.7083333 L91.942708,17.0260413 L91.942708,24.3281253 C91.942708,30.2083333 91.8333333,31.880208 91.4062507,32.7031253 L90.8333333,33.7708333 L99.005208,33.7708333 L98.3281253,32.4531253 C97.7239587,31.2760413 97.6510413,30.2812507 97.6510413,24.1510413 C97.6510413,20.2708333 97.4739587,16.5625 97.260416,15.7812507 C96.7968747,14.067708 95.4739587,12.6093747 93.5468747,11.5781253 C91.692708,10.614584 87.0520827,10.4010413 84.9843747,11.1510413 Z" id="Path" fill="#000000" fill-rule="nonzero"></path>
            <path d="M136.010416,11.114584 C132.552083,12.2187493 130.229167,14.2135413 128.770833,17.385416 C128.057292,18.880208 127.875,19.9114587 127.838541,22.0156253 C127.807292,25.8593747 128.661459,28.1041667 131.161459,30.5989587 C134.052083,33.4479173 136.260416,34.2708333 141.364584,34.3020827 C145.114584,34.3020827 145.432292,34.2343747 147.895833,33.0937493 L150.463541,31.880208 L150.463541,29.744792 C150.463541,27.8906253 150.395833,27.6770827 149.859375,27.8906253 C144.291667,30.2083333 139.401041,30.4583333 136.296875,28.567708 C135.119792,27.8541667 134.333333,27.0364587 133.802083,25.932292 C132.265625,22.9062507 131.765625,23.0833333 142.114584,23.0833333 L151.286459,23.0833333 L151.072917,20.9114587 C150.677083,16.4218747 148,12.7864587 144.041667,11.2916667 C141.973959,10.505208 138.1875,10.4375 136.010416,11.114584 Z M143.578125,15.817708 C144.828125,16.635416 146.182292,18.2760413 146.182292,18.9531253 C146.182292,19.057292 143.291667,19.1666667 139.760416,19.1666667 C132.765625,19.1666667 132.625,19.130208 134.083333,17.239584 C135.296875,15.6718747 137.156251,14.9270827 139.760416,14.8906253 C141.723959,14.8906253 142.364584,15.067708 143.578125,15.817708 Z" id="Shape" fill="#000000" fill-rule="nonzero"></path>
            <g id="Clipped" transform="translate(148.000000, 10.666667)">
                <mask id="mask-4" fill="white">
                    <use xlink:href="#path-3"></use>
                </mask>
                <g id="Path"></g>
                <path d="M1.82291733,1.26562533 C3.07291733,2.619792 3.71354133,3.9375 7.10416667,12.239584 C8.85416667,16.5468747 10.3489587,19.755208 10.9583333,20.3958333 C11.8125,21.2864587 15.2760413,23.244792 15.5625,22.9635413 C15.7760413,22.744792 24.5885413,0.911458667 24.5885413,0.588541333 C24.5885413,0.447917333 23.4114587,0.302082667 21.9843747,0.302082667 L19.380208,0.302082667 L19.5208333,1.619792 C19.5937493,2.65625067 18.9531253,4.614584 16.9531253,9.567708 C14.5260413,15.5885413 14.2760413,16.0833333 13.9218747,15.2656253 C13.7031253,14.7656253 12.244792,11.239584 10.6718747,7.42708267 L7.85416667,0.484374667 L4.35416667,0.375 L0.895833333,0.270833333 L1.82291733,1.26562533 Z" id="Path" fill="#000000" fill-rule="nonzero" mask="url(#mask-4)"></path>
            </g>
        </g>
    </g>
</svg>