<?xml version="1.0" encoding="UTF-8"?>
<svg width="197px" height="42px" viewBox="0 0 197 42" version="1.1" xmlns="http://www.w3.org/2000/svg" xmlns:xlink="http://www.w3.org/1999/xlink">
    <title>Group 6</title>
    <g id="Page-1" stroke="none" stroke-width="1" fill="none" fill-rule="evenodd">
        <g id="Group-6" transform="translate(0.554436, 0.067708)" fill="#000000">
            <path d="M32.6643137,12.1510413 C31.351815,13.239584 26.8361897,13.671876 26.544523,10.2760413 C26.544523,10.2760413 31.2059803,11.7187507 32.6643137,12.1510413 Z M26.4716057,29.2239587 L26.4716057,15.9166667 L30.6955643,13.817708 L30.6955643,26.4791667 L28.5809803,30.0885427 L26.4716057,29.2239587 Z M20.7216057,11.1406253 C20.7216057,11.1406253 22.544523,14.0364587 24.5028563,14.5416667 C23.487231,14.9062507 20.5757723,16.2031253 20.5757723,16.2031253 C20.5757723,16.2031253 21.226815,17.2135427 21.226815,17.869792 C21.226815,18.5156253 21.226815,30.9583333 21.226815,31.5416667 C21.226815,32.119792 21.4455643,32.4062507 20.9351483,33.1979173 L27.487231,34.6510413 L31.2059803,28.3541667 L31.2059803,31.3958333 L30.6955643,33.3437507 L35.5705643,34.6510413 L38.1955643,30.5989587 L36.232023,29.875 C36.232023,29.875 36.232023,11.5052093 36.232023,10.927084 C36.232023,10.3489587 36.4455643,9.83854267 36.8882723,9.33333333 L27.7788977,6.00520933 L24.9455643,9.04166667 L20.7216057,11.1406253 Z" id="Shape"></path>
            <path d="M47.5132723,29.9479173 L45.622647,29.442708 L45.622647,10.494792 L51.5184817,12.5156253 L49.7059803,13.8906253 C49.7059803,13.8906253 50.429939,14.7604173 50.429939,16.0625 C50.429939,17.3593747 50.429939,24.4479173 50.429939,24.4479173 L47.5132723,29.9479173 Z M39.872647,10.494792 C39.872647,10.494792 40.3101483,11.7187507 40.3101483,12.6614587 C40.3101483,13.6041667 40.3101483,28.7916667 40.3101483,30.307292 C40.3101483,31.8281253 39.7216057,32.552084 39.7216057,32.552084 L46.2059803,34.432292 L50.357023,27.057292 C50.357023,27.057292 50.357023,32.2656253 50.357023,35.5156253 C42.2007723,32.3333333 39.362231,38.6979173 38.992439,40.2916667 C39.5080643,40.2916667 39.799731,40.364584 40.3778563,40.364584 C41.7632723,37.5416667 47.372647,38.9843747 49.3361897,40.2916667 C50.2841057,39.421876 52.7580643,37.1093747 52.7580643,37.1093747 L55.742439,36.3125 C55.742439,36.3125 55.742439,11.2135427 55.742439,10.4166667 C55.742439,9.619792 56.2580643,9.119792 56.2580643,9.119792 L46.351815,6.07812533 L44.169523,8.46354267 L41.4716057,10.494792 C41.4716057,10.494792 40.669523,10.6354173 39.872647,10.494792 Z" id="Shape"></path>
            <path d="M68.7059803,16.0625 L64.924731,22.932292 L64.924731,11.2135427 L68.7059803,16.0625 Z M59.1643137,10.4166667 C59.1643137,10.4166667 59.8257723,11.3593747 59.8257723,12.5885427 C59.8257723,13.817708 59.8257723,27.921876 59.8257723,29.6562507 C59.8257723,31.3958333 59.242439,32.1875 59.242439,32.1875 L69.2893137,34.796876 L72.862231,29.1510413 L70.747647,28.5 L70.3101483,30.2343747 L64.992439,28.7187507 L64.992439,25.3906253 L72.5653563,12.5885427 L65.7216057,5.864584 L62.6643137,9.47395867 L59.1643137,10.4166667 Z" id="Shape"></path>
            <path d="M130.528898,16.0625 L126.747647,22.932292 L126.747647,11.2135427 L130.528898,16.0625 Z M120.992439,10.4166667 C120.992439,10.4166667 121.64869,11.3593747 121.64869,12.5885427 C121.64869,13.817708 121.64869,27.921876 121.64869,29.6562507 C121.64869,31.3958333 121.065356,32.1875 121.065356,32.1875 L131.112231,34.796876 L134.679939,29.1510413 L132.575772,28.5 L132.133064,30.2343747 L126.815356,28.7187507 L126.815356,25.3906253 L134.388272,12.5885427 L127.544523,5.864584 L124.487231,9.47395867 L120.992439,10.4166667 Z" id="Shape"></path>
            <path d="M177.357023,16.0625 L173.570564,22.932292 L173.570564,11.2135427 L177.357023,16.0625 Z M167.810148,10.4166667 C167.810148,10.4166667 168.471606,11.3593747 168.471606,12.5885427 C168.471606,13.817708 168.471606,27.921876 168.471606,29.6562507 C168.471606,31.3958333 167.888272,32.1875 167.888272,32.1875 L177.940356,34.796876 L181.508064,29.1510413 L179.393482,28.5 L178.95598,30.2343747 L173.638272,28.7187507 L173.638272,25.3906253 L181.216398,12.5885427 L174.372647,5.864584 L171.310148,9.47395867 L167.810148,10.4166667 Z" id="Shape"></path>
            <path d="M72.6382723,9.83854267 L74.674731,10.6354173 C74.674731,10.6354173 74.674731,29.0104173 74.674731,30.3802093 C74.674731,31.7552093 74.3153563,32.619792 74.3153563,32.619792 L82.0341057,34.5052093 L85.3101483,29.0781253 L83.6330643,28.3541667 L83.049731,30.1666667 L79.919523,29.2239587 L79.919523,15.046876 L81.9611897,11.2864587 C81.9611897,11.2864587 82.982023,14.5416667 83.5653563,16.8593747 C84.1434817,19.171876 82.6903563,19.9687507 82.6903563,19.9687507 C82.6903563,19.9687507 83.2736897,20.3281253 83.7788977,20.9062507 C90.8466057,17.1458333 84.804939,5.64062533 84.804939,5.64062533 L83.419523,5.64062533 L79.851815,12.6614587 C79.851815,12.6614587 79.851815,10.1302093 79.851815,9.04166667 C79.851815,7.96354267 80.2111897,7.38020933 80.2111897,7.38020933 L75.482023,5.71875067 L72.6382723,9.83854267" id="Path"></path>
            <path d="M180.992439,9.83854267 L183.034106,10.6354173 C183.034106,10.6354173 183.034106,29.0104173 183.034106,30.3802093 C183.034106,31.7552093 182.669523,32.619792 182.669523,32.619792 L190.388272,34.5052093 L193.664314,29.0781253 L191.987231,28.3541667 L191.409106,30.1666667 L188.278898,29.2239587 L188.278898,15.046876 L190.320564,11.2864587 C190.320564,11.2864587 191.33619,14.5416667 191.919523,16.8593747 C192.502856,19.171876 191.044523,19.9687507 191.044523,19.9687507 C191.044523,19.9687507 191.627856,20.3281253 192.138272,20.9062507 C199.200772,17.1458333 193.159106,5.64062533 193.159106,5.64062533 L191.77369,5.64062533 L188.20598,12.6614587 C188.20598,12.6614587 188.20598,10.1302093 188.20598,9.04166667 C188.20598,7.96354267 188.565356,7.38020933 188.565356,7.38020933 L183.83619,5.71875067 L180.992439,9.83854267" id="Path"></path>
            <path d="M88.1486897,9.552084 L90.4091057,10.5625 C90.4091057,10.5625 90.4091057,27.2708333 90.4091057,29.5104173 C90.4091057,31.7552093 89.8986897,33.1979173 89.8986897,33.1979173 L95.2163977,34.432292 L97.4716057,30.5989587 L95.9455643,30.0208333 L95.9455643,15.625 C95.9455643,15.625 98.054939,12.0833333 98.929939,10.5625 C99.732023,10.7083333 100.528898,11.0729173 101.33098,11.3593747 C101.33098,12.7291667 101.33098,26.8333333 101.33098,29.6562507 C101.33098,32.4791667 100.747647,33.1979173 100.747647,33.1979173 L106.138272,34.5052093 L108.544523,30.3802093 L106.721606,29.7343747 L106.721606,15.9166667 L109.919523,10.494792 L111.820564,10.994792 C111.820564,10.994792 111.820564,28.067708 111.820564,29.9479173 C111.820564,31.8281253 111.232023,32.9843747 111.232023,32.9843747 L117.060148,34.432292 L119.247647,30.4531253 L116.987231,29.7343747 C116.987231,29.7343747 116.987231,12.2291667 116.987231,10.7812507 C116.987231,9.33333333 117.862231,8.10416667 117.862231,8.10416667 L110.872647,5.78645867 L106.643482,13.671876 C106.643482,13.671876 106.643482,10.052084 106.643482,9.552084 C106.643482,9.04166667 106.935148,8.10416667 106.935148,8.10416667 L100.315356,5.64062533 L95.867439,13.239584 C95.867439,13.239584 95.867439,10.494792 95.867439,9.47395867 C95.867439,8.46354267 96.304939,7.671876 96.304939,7.671876 L90.8466057,5.64062533 L88.1486897,9.552084" id="Path"></path>
            <path d="M135.117439,9.83854267 L137.450772,10.8541667 C137.450772,10.8541667 137.450772,27.489584 137.450772,29.296876 C137.450772,31.1093747 136.721606,32.9114587 136.721606,32.9114587 L142.549731,34.364584 L144.804939,30.5260413 L142.549731,29.5885427 C142.549731,29.5885427 142.549731,10.8541667 142.549731,9.76562533 C142.549731,8.682292 143.278898,7.739584 143.278898,7.739584 L137.810148,5.78645867 L135.117439,9.83854267" id="Path"></path>
            <path d="M146.33098,4.125 C146.33098,4.125 146.987231,5.71875067 146.987231,7.817708 C146.987231,9.91145867 146.987231,40.4375 146.987231,40.4375 C146.987231,40.4375 148.08098,40.4375 149.247647,40.4375 C149.247647,38.4843747 150.700772,37.3281253 152.232023,37.3281253 C152.232023,35.2291667 152.232023,7.96354267 152.232023,4.70833333 C153.763272,6.65625067 157.185148,5.5 157.768482,4.5625 C158.351815,3.619792 160.096606,1.52083333 160.096606,1.52083333 C160.096606,1.52083333 159.591398,1.01041733 159.075772,0.869792 C157.83619,2.53125067 156.45598,2.177084 155.799731,1.8125 C155.143482,1.45312533 153.028898,0 153.028898,0 L150.190356,2.96875067 L146.33098,4.125" id="Path"></path>
            <path d="M155.799731,9.1875 L157.476815,9.26041733 C157.476815,9.26041733 157.476815,26.619792 157.476815,29.296876 C157.476815,31.9739587 156.747647,32.8437507 156.747647,32.8437507 L162.575772,34.364584 L165.117439,30.4531253 L162.575772,29.296876 L162.575772,9.33333333 L165.77369,9.33333333 L167.669523,5.35416667 L162.497647,5.35416667 L162.497647,1.15625067 L159.221606,5.71875067 L155.799731,9.1875" id="Path"></path>
            <path d="M1.33098033,0.291666667 L1.351815,10.7083333 L3.31535633,5.35416667 L10.0184817,5.35416667 C10.0184817,5.35416667 11.6903563,5.71875067 13.5861897,4.5625 C12.2684817,5.864584 11.4716057,6.58333333 10.4559803,6.796876 C10.5966057,7.02083333 10.669523,7.45312533 10.669523,7.88541733 C10.669523,8.317708 10.669523,12.5156253 10.669523,12.5156253 L6.95598033,12.5156253 L6.299731,11.4062507 L4.84139766,11.4062507 L4.84139766,20.8333333 L6.66431366,15.9843747 L10.8153563,15.9843747 L10.8153563,34.5052093 C10.8153563,34.5052093 3.53410566,25.677084 3.242439,25.177084 C2.95077233,24.6666667 2.65910566,24.0885427 2.65910566,23.0781253 C2.08098033,23.0781253 2.08098033,23.0781253 1.71118966,23.0781253 C-0.17943567,25.9010413 -0.68985167,29.5104173 1.13306433,31.8281253 C2.95077233,34.1406253 8.19556433,40.7239587 8.19556433,40.7239587 L12.929939,37.182292 L17.1538977,35.6614587 C17.1538977,35.6614587 17.1538977,6.58333333 17.1538977,5.0625 C17.1538977,3.546876 18.242439,2.39062533 19.3361897,2.39062533 C19.3361897,1.739584 19.3361897,1.15625067 19.3361897,1.15625067 L3.45598033,1.15625067 L2.87785633,0.291666667 L1.33098033,0.291666667" id="Path"></path>
        </g>
    </g>
</svg>