<?xml version="1.0" encoding="UTF-8"?>
<svg width="134px" height="64px" viewBox="0 0 134 64" version="1.1" xmlns="http://www.w3.org/2000/svg" xmlns:xlink="http://www.w3.org/1999/xlink">
    <title>Group 7</title>
    <defs>
        <polygon id="path-1" points="0 0.781250667 45.005208 0.781250667 45.005208 61.3333333 0 61.3333333"></polygon>
        <polygon id="path-3" points="0 0.781250667 16 0.781250667 16 20 0 20"></polygon>
        <polygon id="path-5" points="0 0.781250667 17.3333333 0.781250667 17.3333333 20 0 20"></polygon>
        <polygon id="path-7" points="0 0.781250667 14.6666667 0.781250667 14.6666667 20 0 20"></polygon>
        <polygon id="path-9" points="0.005208 0 16.3333333 0 16.3333333 20 0.005208 20"></polygon>
        <polygon id="path-11" points="0 0 18.6666667 0 18.6666667 20.4479173 0 20.4479173"></polygon>
        <polygon id="path-13" points="0 0 28 0 28 41.7812507 0 41.7812507"></polygon>
    </defs>
    <g id="Page-1" stroke="none" stroke-width="1" fill="none" fill-rule="evenodd">
        <g id="Group-7" transform="translate(0.333333, 0.666667)">
            <g id="Clipped" transform="translate(87.000000, 0.000000)">
                <mask id="mask-2" fill="white">
                    <use xlink:href="#path-1"></use>
                </mask>
                <g id="Path"></g>
                <path d="M0.963541333,61.0416667 L44.5989587,61.0416667 L44.5989587,44.635416 C44.5989587,20.4166667 25.130208,0.781250667 0.984374667,0.781250667 L0.963541333,0.781250667 L0.963541333,61.0416667" id="Path" fill="#000000" mask="url(#mask-2)"></path>
            </g>
            <g id="Clipped" transform="translate(37.666667, 0.000000)">
                <mask id="mask-4" fill="white">
                    <use xlink:href="#path-3"></use>
                </mask>
                <g id="Path"></g>
                <polyline id="Path" fill="#000000" mask="url(#mask-4)" points="10.1666667 19.6614587 6.239584 19.6614587 6.239584 4.16145867 0.5625 4.16145867 0.5625 0.828125333 15.8437493 0.828125333 15.8437493 4.16145867 10.1666667 4.16145867 10.1666667 19.6614587"></polyline>
            </g>
            <g id="Clipped" transform="translate(53.666667, 0.000000)">
                <mask id="mask-6" fill="white">
                    <use xlink:href="#path-5"></use>
                </mask>
                <g id="Path"></g>
                <polyline id="Path" fill="#000000" mask="url(#mask-6)" points="4.78645867 11.2135413 4.78645867 19.6614587 0.864584 19.6614587 0.864584 0.828125333 4.78645867 0.828125333 4.78645867 7.96874933 12.1093747 7.96874933 12.1093747 0.828125333 16.0312507 0.828125333 16.0312507 19.6614587 12.1093747 19.6614587 12.1093747 11.2135413 4.78645867 11.2135413"></polyline>
            </g>
            <g id="Clipped" transform="translate(71.000000, 0.000000)">
                <mask id="mask-8" fill="white">
                    <use xlink:href="#path-7"></use>
                </mask>
                <g id="Path"></g>
                <polyline id="Path" fill="#000000" mask="url(#mask-8)" points="14.3958333 4.16145867 4.53125067 4.16145867 4.53125067 8.119792 13.2239587 8.119792 13.2239587 11.4531253 4.53125067 11.4531253 4.53125067 16.3281253 14.4218747 16.3281253 14.4218747 19.6614587 0.869792 19.6614587 0.869792 0.828125333 14.3958333 0.828125333 14.3958333 4.16145867"></polyline>
            </g>
            <g id="Clipped" transform="translate(0.000000, 21.333333)">
                <mask id="mask-10" fill="white">
                    <use xlink:href="#path-9"></use>
                </mask>
                <g id="Path"></g>
                <polyline id="Path" fill="#000000" mask="url(#mask-10)" points="11.6562507 0.1875 15.317708 0.1875 15.317708 19.0156253 11.3958333 19.0156253 3.72916667 5.59374933 3.67708267 5.59374933 3.67708267 19.0156253 0.0156253333 19.0156253 0.0156253333 0.1875 4.14062533 0.1875 11.5989587 13.3020827 11.6562507 13.3020827 11.6562507 0.1875"></polyline>
            </g>
            <path d="M26.2708333,21.0208333 C28.75,21.0208333 35.2916667,22.0989587 35.2916667,30.9375 C35.2916667,39.7760413 28.75,40.8489587 26.2708333,40.8489587 C23.7812507,40.8489587 17.244792,39.7760413 17.244792,30.9375 C17.244792,22.0989587 23.7812507,21.0208333 26.2708333,21.0208333 Z M26.2708333,37.5208333 C28.3906253,37.5208333 31.369792,36.2083333 31.369792,30.9375 C31.369792,25.6666667 28.3906253,24.3489587 26.2708333,24.3489587 C24.1510413,24.3489587 21.1666667,25.6666667 21.1666667,30.9375 C21.1666667,36.2083333 24.1510413,37.5208333 26.2708333,37.5208333 Z" id="Shape" fill="#000000"></path>
            <polyline id="Path" fill="#000000" points="63.1406253 40.3489587 59.2135413 40.3489587 59.2135413 24.8489587 53.5364587 24.8489587 53.5364587 21.5208333 68.807292 21.5208333 68.807292 24.8489587 63.1406253 24.8489587 63.1406253 40.3489587"></polyline>
            <polyline id="Path" fill="#000000" points="74.1458333 31.9114587 74.1458333 40.3489587 70.2239587 40.3489587 70.2239587 21.5208333 74.1458333 21.5208333 74.1458333 28.6510413 81.4687493 28.6510413 81.4687493 21.5208333 85.3958333 21.5208333 85.3958333 40.3489587 81.4687493 40.3489587 81.4687493 31.9114587 74.1458333 31.9114587"></polyline>
            <polyline id="Path" fill="#000000" points="29.3958333 61.0416667 25.4739587 61.0416667 25.4739587 42.2135413 38.8333333 42.2135413 38.8333333 45.5468747 29.3958333 45.5468747 29.3958333 49.7916667 37.6614587 49.7916667 37.6614587 53.125 29.3958333 53.125 29.3958333 61.0416667"></polyline>
            <path d="M40.619792,61.0416667 L36.4843747,61.0416667 L43.1875,42.2135413 L47.7135413,42.2135413 L54.3229173,61.0416667 L50.0625,61.0416667 L48.8593747,57.1614587 L41.9270827,57.1614587 L40.619792,61.0416667 Z M42.9791667,53.9114587 L47.760416,53.9114587 L45.432292,46.4635413 L45.385416,46.4635413 L42.9791667,53.9114587 Z" id="Shape" fill="#000000"></path>
            <g id="Clipped" transform="translate(52.333333, 41.333333)">
                <mask id="mask-12" fill="white">
                    <use xlink:href="#path-11"></use>
                </mask>
                <g id="Path"></g>
                <path d="M14.0416667,7.04166667 C13.7343747,5.91666667 13.130208,3.79166667 9.885416,3.79166667 C8,3.79166667 5.22395867,5.05208267 5.22395867,10.369792 C5.22395867,13.755208 6.5625,16.8020827 9.885416,16.8020827 C12.057292,16.8020827 13.5729173,15.567708 14.0416667,13.260416 L17.9687493,13.260416 C17.182292,17.3489587 14.5156253,20.2083333 9.807292,20.2083333 C4.8125,20.2083333 1.22395867,16.8281253 1.22395867,10.3229173 C1.22395867,3.739584 5.01562533,0.380208 9.864584,0.380208 C15.4843747,0.380208 17.755208,4.26562533 17.9687493,7.04166667 L14.0416667,7.04166667" id="Path" fill="#000000" mask="url(#mask-12)"></path>
            </g>
            <polyline id="Path" fill="#000000" points="85.3958333 45.5468747 75.5312507 45.5468747 75.5312507 49.5 84.2239587 49.5 84.2239587 52.8333333 75.5312507 52.8333333 75.5312507 57.7135413 85.4218747 57.7135413 85.4218747 61.0416667 71.869792 61.0416667 71.869792 42.2135413 85.3958333 42.2135413 85.3958333 45.5468747"></polyline>
            <path d="M37.2135413,21.510416 L46.692708,21.510416 C51.6770827,21.510416 52.5885413,25.2031253 52.5885413,26.8281253 C52.5885413,28.8906253 51.5416667,30.6718747 49.6875,31.3020827 C51.2291667,31.9791667 52.067708,32.5520827 52.067708,36.0625 C52.067708,38.8125 52.067708,39.489584 52.9010413,39.807292 L52.9010413,40.307292 L48.567708,40.307292 C48.307292,39.4166667 48.1510413,38.4479173 48.1510413,36.510416 C48.1510413,33.9479173 48,32.9531253 45.0937493,32.9531253 L41.0520827,32.9531253 L41.0520827,40.307292 L37.2135413,40.307292 L37.2135413,21.510416 Z M45.6510413,29.7864587 C47.682292,29.7864587 48.6770827,29.0729173 48.6770827,27.2135413 C48.6770827,26.2239587 48.2291667,24.760416 45.9375,24.760416 L41.0520827,24.760416 L41.0520827,29.7864587 L45.6510413,29.7864587 Z" id="Shape" fill="#000000"></path>
            <g id="Clipped" transform="translate(87.000000, 20.000000)">
                <mask id="mask-14" fill="white">
                    <use xlink:href="#path-13"></use>
                </mask>
                <g id="Path"></g>
                <path d="M10.5208333,41.4375 L10.5156253,27.8541667 C10.5156253,24.4218747 7.72916667,21.630208 4.30208267,21.630208 L0.567708,21.6458333 L0.5625,20.8437493 L4.30208267,20.8333333 C8.16666667,20.8333333 11.3125,23.9843747 11.3125,27.8541667 L11.317708,41.4375 L10.5208333,41.4375 Z M26.7239587,41.442708 L25.9270827,41.442708 L25.9270827,24.0156253 C25.9270827,11.2968747 15.6093747,0.947917333 2.932292,0.947917333 L0.567708,0.947917333 L0.567708,0.151041333 L2.932292,0.151041333 C16.0520827,0.151041333 26.7239587,10.8593747 26.7239587,24.0156253 L26.7239587,41.442708 Z" id="Shape" fill="#FFFFFF" mask="url(#mask-14)"></path>
            </g>
            <path d="M19.1458333,58.3541667 L20.0989587,58.3541667 C20.5885413,58.3437493 20.6510413,58.0989587 20.6510413,57.8906253 C20.6510413,57.6718747 20.6041667,57.4531253 20,57.4531253 L19.1458333,57.4531253 L19.1458333,58.3541667 Z M20.6406253,59.760416 L19.989584,58.755208 L19.1458333,58.755208 L19.1458333,59.6718747 L18.744792,59.6718747 L18.744792,57.0520827 L20,57.0520827 C20.6979173,57.0520827 21.0520827,57.3333333 21.0520827,57.8906253 C21.0520827,58.317708 20.8333333,58.6041667 20.4375,58.7083333 L20.9791667,59.5416667 L20.6406253,59.760416 Z M19.739584,56.0885413 C18.432292,56.0885413 17.369792,57.1510413 17.369792,58.4635413 C17.369792,59.7708333 18.432292,60.8385413 19.739584,60.8385413 C21.0520827,60.8385413 22.114584,59.7708333 22.114584,58.4635413 C22.114584,57.1510413 21.0520827,56.0885413 19.739584,56.0885413 Z M19.739584,61.244792 C18.2135413,61.244792 16.9687493,59.994792 16.9687493,58.4635413 C16.9687493,56.932292 18.2135413,55.6875 19.739584,55.6875 C21.2708333,55.6875 22.5156253,56.932292 22.5156253,58.4635413 C22.5156253,59.994792 21.2708333,61.244792 19.739584,61.244792 Z" id="Shape" fill="#000000"></path>
        </g>
    </g>
</svg>