<?xml version="1.0" encoding="UTF-8"?>
<svg width="122px" height="73px" viewBox="0 0 122 73" version="1.1" xmlns="http://www.w3.org/2000/svg" xmlns:xlink="http://www.w3.org/1999/xlink">
    <title>Group</title>
    <defs>
        <polygon id="path-1" points="0 0.390625333 14.6666667 0.390625333 14.6666667 22.6666667 0 22.6666667"></polygon>
        <polygon id="path-3" points="0.005208 0 8.33333333 0 8.33333333 21.3333333 0.005208 21.3333333"></polygon>
        <polygon id="path-5" points="0 0 17.3333333 0 17.3333333 23.3906253 0 23.3906253"></polygon>
        <polygon id="path-7" points="0 0 21.005208 0 21.005208 22.6666667 0 22.6666667"></polygon>
        <polygon id="path-9" points="0 0 18.6666667 0 18.6666667 23.3906253 0 23.3906253"></polygon>
        <polygon id="path-11" points="0 0 18.6666667 0 18.6666667 23.3906253 0 23.3906253"></polygon>
    </defs>
    <g id="Page-1" stroke="none" stroke-width="1" fill="none" fill-rule="evenodd">
        <g id="Group" transform="translate(0.333333, 0.666667)">
            <path d="M4.90104133,28.057292 L8.60416667,28.057292 C12.8020827,28.057292 14.869792,30.369792 14.869792,35.244792 C14.869792,40.119792 12.8020827,42.494792 8.60416667,42.494792 L4.90104133,42.494792 L4.90104133,28.057292 Z M1.14062533,45.744792 L9.16666667,45.744792 C14.682292,45.744792 18.760416,42.369792 18.760416,35.244792 C18.760416,28.119792 14.682292,24.807292 9.16666667,24.807292 L1.14062533,24.807292 L1.14062533,45.744792 Z" id="Shape" fill="#000000" fill-rule="nonzero"></path>
            <g id="Clipped" transform="translate(9.666667, 0.000000)">
                <mask id="mask-2" fill="white">
                    <use xlink:href="#path-1"></use>
                </mask>
                <g id="Path"></g>
                <path d="M4.20312533,13 C4.20312533,10.0625 5.89583333,8.75 7.90104133,8.75 C9.40625067,8.75 10.7864587,9.6875 10.7864587,12.125 L10.7864587,21.375 L14.2343747,21.375 L14.2343747,11.8125 C14.2343747,7.4375 11.9114587,5.8125 8.84374933,5.8125 C6.77083333,5.8125 5.01562533,6.9375 4.20312533,8.125 L4.20312533,0.4375 L0.755208,0.4375 L0.755208,21.375 L4.20312533,21.375 L4.20312533,13" id="Path" fill="#000000" fill-rule="nonzero" mask="url(#mask-2)"></path>
            </g>
            <path d="M74.1875,46.307292 C79.2031253,46.307292 84.5312507,43.057292 83.5312507,34.682292 L74.0625,34.682292 L74.0625,37.869792 L80.010416,37.869792 C79.7656253,41.5833333 77.005208,43.057292 74.1875,43.057292 C70.614584,43.057292 67.9166667,40.119792 67.9166667,35.307292 C67.9166667,30.494792 70.489584,27.494792 74.1875,27.494792 C77.0729173,27.494792 78.8906253,28.744792 79.4531253,31.119792 L83.1510413,31.119792 C82.5885413,26.869792 79.1406253,24.244792 74.1875,24.244792 C68.4166667,24.244792 64.0312507,28.494792 64.0312507,35.244792 C64.0312507,41.994792 68.2916667,46.307292 74.1875,46.307292" id="Path" fill="#000000" fill-rule="nonzero"></path>
            <g id="Clipped" transform="translate(0.000000, 1.333333)">
                <mask id="mask-4" fill="white">
                    <use xlink:href="#path-3"></use>
                </mask>
                <g id="Path"></g>
                <path d="M2.20833333,17.1041667 C2.20833333,19.4166667 3.70833333,20.1666667 6.21874933,20.1666667 C6.90625067,20.1666667 7.66145867,20.1041667 8.28645867,20.0416667 L8.28645867,17.4166667 L7.34895867,17.4166667 C6.15625067,17.4166667 5.65625067,17.2291667 5.65625067,16.1041667 L5.65625067,7.47916667 L8.28645867,7.47916667 L8.28645867,4.91666667 L5.65625067,4.91666667 L5.65625067,0.416666667 L2.20833333,0.416666667 L2.20833333,4.91666667 L0.010416,4.91666667 L0.010416,7.47916667 L2.20833333,7.47916667 L2.20833333,17.1041667" id="Path" fill="#000000" fill-rule="nonzero" mask="url(#mask-4)"></path>
            </g>
            <polyline id="Path" fill="#000000" fill-rule="nonzero" points="36.380208 28.119792 36.380208 24.807292 21.0781253 24.807292 21.0781253 45.744792 36.630208 45.744792 36.630208 42.432292 24.8385413 42.432292 24.8385413 36.682292 35.4375 36.682292 35.4375 33.432292 24.8385413 33.432292 24.8385413 28.119792 36.380208 28.119792"></polyline>
            <path d="M33.244792,8.75 C35.125,8.75 36.692708,9.9375 36.942708,12.25 L29.2916667,12.25 C29.6041667,10 31.3593747,8.75 33.244792,8.75 Z M33.182292,21.9375 C37.067708,21.9375 39.9531253,19.4375 40.2656253,16.75 L36.755208,16.75 C36.380208,18.25 34.9375,19 33.307292,19 C30.9843747,19 29.2916667,17.3125 29.2916667,14.75 L40.5781253,14.75 L40.5781253,13.875 C40.5781253,9.0625 37.692708,5.8125 33.244792,5.8125 C28.7916667,5.8125 25.6562507,9.125 25.6562507,13.9375 C25.6562507,19.1875 29.2291667,21.9375 33.182292,21.9375 Z" id="Shape" fill="#000000" fill-rule="nonzero"></path>
            <path d="M38.635416,30.494792 C38.635416,32.244792 39.260416,33.682292 40.5156253,34.744792 C41.5208333,35.557292 42.9635413,36.119792 45.0312507,36.494792 L47.9791667,37.057292 C50.2343747,37.494792 51.6770827,38.057292 51.6770827,39.994792 C51.6770827,41.432292 50.3593747,43.119792 46.9739587,43.119792 C45.0312507,43.119792 43.7760413,42.557292 42.9010413,41.744792 C42.0833333,40.994792 41.7083333,39.869792 41.7083333,38.807292 L38.010416,38.807292 L38.010416,39.119792 C38.010416,41.369792 38.9479173,43.182292 40.5781253,44.432292 C42.0833333,45.619792 44.3385413,46.307292 46.7864587,46.307292 C52.4270827,46.307292 55.5625,43.494792 55.5625,39.619792 C55.5625,35.994792 53.057292,34.432292 49.6718747,33.744792 L45.2812507,32.869792 C43.1510413,32.432292 42.4583333,31.494792 42.4583333,30.244792 C42.4583333,28.744792 43.9010413,27.432292 46.7864587,27.432292 C49.9218747,27.432292 51.364584,28.807292 51.5520827,31.119792 L55.125,31.119792 C55.125,27.619792 52.744792,24.244792 46.7864587,24.244792 C42.1458333,24.244792 38.635416,26.744792 38.635416,30.494792" id="Path" fill="#000000" fill-rule="nonzero"></path>
            <polyline id="Path" fill="#000000" fill-rule="nonzero" points="11.3593747 58.739584 5.90625067 49.1770827 1.14062533 49.1770827 1.14062533 70.114584 4.77604133 70.114584 4.77604133 54.1770827 9.79166667 62.864584 12.6770827 62.864584 17.692708 54.1770827 17.692708 70.114584 21.3281253 70.114584 21.3281253 49.1770827 16.6875 49.1770827 11.3593747 58.739584"></polyline>
            <polyline id="Path" fill="#000000" fill-rule="nonzero" points="66.3489587 61.0520827 76.942708 61.0520827 76.942708 57.8020827 66.3489587 57.8020827 66.3489587 52.489584 77.885416 52.489584 77.885416 49.1770827 62.5885413 49.1770827 62.5885413 70.114584 78.135416 70.114584 78.135416 66.8020827 66.3489587 66.8020827 66.3489587 61.0520827"></polyline>
            <g id="Clipped" transform="translate(80.333333, 48.000000)">
                <mask id="mask-6" fill="white">
                    <use xlink:href="#path-5"></use>
                </mask>
                <g id="Path"></g>
                <path d="M13.1666667,14.864584 C13.1666667,18.114584 10.9062507,19.364584 8.40104133,19.364584 C5.89062533,19.364584 3.760416,18.114584 3.760416,14.864584 L3.760416,1.17708267 L0,1.17708267 L0,14.989584 C0,19.489584 2.817708,22.6770827 8.40104133,22.6770827 C13.9791667,22.6770827 16.8020827,19.489584 16.8020827,14.989584 L16.8020827,1.17708267 L13.1666667,1.17708267 L13.1666667,14.864584" id="Path" fill="#000000" fill-rule="nonzero" mask="url(#mask-6)"></path>
            </g>
            <g id="Clipped" transform="translate(99.000000, 48.000000)">
                <mask id="mask-8" fill="white">
                    <use xlink:href="#path-7"></use>
                </mask>
                <g id="Path"></g>
                <polyline id="Path" fill="#000000" fill-rule="nonzero" mask="url(#mask-8)" points="16.255208 1.17708267 10.9270827 10.739584 5.46874933 1.17708267 0.703125333 1.17708267 0.703125333 22.114584 4.34374933 22.114584 4.34374933 6.17708267 9.35937467 14.864584 12.244792 14.864584 17.260416 6.17708267 17.260416 22.114584 20.8958333 22.114584 20.8958333 1.17708267 16.255208 1.17708267"></polyline>
            </g>
            <polyline id="Path" fill="#000000" fill-rule="nonzero" points="103.093749 24.807292 99.4531253 24.807292 99.4531253 40.494792 90.5520827 24.807292 85.9114587 24.807292 85.9114587 45.744792 89.5468747 45.744792 89.5468747 30.057292 98.4531253 45.744792 103.093749 45.744792 103.093749 24.807292"></polyline>
            <g id="Clipped" transform="translate(23.000000, 48.000000)">
                <mask id="mask-10" fill="white">
                    <use xlink:href="#path-9"></use>
                </mask>
                <g id="Path"></g>
                <path d="M14.130208,14.864584 C14.130208,18.114584 11.875,19.364584 9.364584,19.364584 C6.85937467,19.364584 4.72395867,18.114584 4.72395867,14.864584 L4.72395867,1.17708267 L0.963541333,1.17708267 L0.963541333,14.989584 C0.963541333,19.489584 3.78645867,22.6770827 9.364584,22.6770827 C14.9479173,22.6770827 17.7656253,19.489584 17.7656253,14.989584 L17.7656253,1.17708267 L14.130208,1.17708267 L14.130208,14.864584" id="Path" fill="#000000" fill-rule="nonzero" mask="url(#mask-10)"></path>
            </g>
            <g id="Clipped" transform="translate(41.666667, 48.000000)">
                <mask id="mask-12" fill="white">
                    <use xlink:href="#path-11"></use>
                </mask>
                <g id="Path"></g>
                <path d="M12.7083333,10.114584 L8.317708,9.239584 C6.1875,8.80208267 5.494792,7.864584 5.494792,6.614584 C5.494792,5.114584 6.9375,3.80208267 9.82291733,3.80208267 C12.9583333,3.80208267 14.4010413,5.17708267 14.5885413,7.489584 L18.1614587,7.489584 C18.1614587,3.989584 15.7760413,0.614584 9.82291733,0.614584 C5.182292,0.614584 1.67187467,3.114584 1.67187467,6.864584 C1.67187467,8.614584 2.29687467,10.0520827 3.55208267,11.114584 C4.557292,11.9270827 5.994792,12.489584 8.067708,12.864584 L11.0156253,13.4270827 C13.2708333,13.864584 14.7135413,14.4270827 14.7135413,16.364584 C14.7135413,17.8020827 13.3958333,19.489584 10.010416,19.489584 C8.067708,19.489584 6.8125,18.9270827 5.932292,18.114584 C5.119792,17.364584 4.744792,16.239584 4.744792,15.1770827 L1.04166667,15.1770827 L1.04166667,15.489584 C1.04166667,17.739584 1.98437467,19.5520827 3.614584,20.8020827 C5.119792,21.989584 7.375,22.6770827 9.82291733,22.6770827 C15.4635413,22.6770827 18.5989587,19.864584 18.5989587,15.989584 C18.5989587,12.364584 16.0937493,10.8020827 12.7083333,10.114584" id="Path" fill="#000000" fill-rule="nonzero" mask="url(#mask-12)"></path>
            </g>
            <polygon id="Path" fill="#000000" fill-rule="nonzero" points="57.885416 45.744792 61.6458333 45.744792 61.6458333 24.807292 57.885416 24.807292"></polygon>
        </g>
    </g>
</svg>