<?xml version="1.0" encoding="UTF-8"?>
<svg width="140px" height="28px" viewBox="0 0 140 28" version="1.1" xmlns="http://www.w3.org/2000/svg" xmlns:xlink="http://www.w3.org/1999/xlink">
    <title>Group 11</title>
    <g id="Page-1" stroke="none" stroke-width="1" fill="none" fill-rule="evenodd">
        <g id="Group-11" fill="#000000" fill-rule="nonzero">
            <path d="M4.587,18.465 C4.587,20.075 4.943,21.311 5.408,22.058 C6.018,23.038 6.928,23.453 7.855,23.453 C9.051,23.453 10.145,23.158 12.255,20.263 C13.944,17.942 15.935,14.685 17.275,12.643 L19.542,9.183 C21.118,6.78 22.942,4.109 25.033,2.299 C26.74,0.82 28.582,0 30.435,0 C33.547,0 36.511,1.79 38.779,5.147 C41.262,8.824 42.467,13.455 42.467,18.234 C42.467,21.074 41.903,23.162 40.943,24.811 C40.015,26.407 38.208,28 35.167,28 L35.167,23.453 C37.77,23.453 38.42,21.078 38.42,18.36 C38.42,14.487 37.51,10.189 35.507,7.117 C34.084,4.939 32.241,3.607 30.214,3.607 C28.021,3.607 26.256,5.25 24.273,8.177 C23.218,9.733 22.136,11.628 20.92,13.767 L19.582,16.12 C16.894,20.85 16.214,21.928 14.87,23.706 C12.514,26.82 10.503,28 7.855,28 C4.714,28 2.728,26.65 1.497,24.615 C0.493,22.957 4.97379915e-14,20.782 4.97379915e-14,18.303 L4.587,18.465 Z" id="logo"></path>
            <path d="M3.617,5.468 C5.72,2.25 8.754,0 12.235,0 C14.251,0 16.255,0.592 18.348,2.288 C20.637,4.143 23.076,7.196 26.12,12.229 L27.211,14.035 C29.846,18.392 31.345,20.634 32.222,21.69 C33.35,23.048 34.141,23.453 35.167,23.453 C37.77,23.453 38.42,21.078 38.42,18.36 L42.467,18.234 C42.467,21.074 41.903,23.162 40.943,24.811 C40.015,26.407 38.208,28 35.167,28 C33.277,28 31.602,27.593 29.75,25.858 C28.326,24.528 26.662,22.163 25.382,20.037 L21.573,13.722 C19.663,10.552 17.909,8.189 16.895,7.119 C15.803,5.968 14.4,4.579 12.161,4.579 C10.349,4.579 8.811,5.84 7.523,7.771 L3.617,5.468 Z" id="logo"></path>
            <path d="M12.161,4.578 C10.349,4.578 8.811,5.84 7.523,7.771 C5.702,10.499 4.587,14.563 4.587,18.465 C4.587,20.075 4.943,21.311 5.408,22.058 L1.498,24.615 C0.492,22.957 6.39488462e-14,20.782 6.39488462e-14,18.303 C6.39488462e-14,13.795 1.246,9.096 3.617,5.468 C5.72,2.25 8.754,3.55271368e-15 12.235,3.55271368e-15 L12.161,4.578 Z" id="logo"></path>
            <path d="M51.383,0.885 L56.69,0.885 L65.711,17.087 L74.735,0.885 L79.925,0.885 L79.925,27.507 L75.597,27.507 L75.597,7.105 L67.684,21.235 L63.624,21.235 L55.712,7.105 L55.712,27.509 L51.383,27.509 L51.383,0.884 L51.383,0.885 Z M93.488,10.812 C90.384,10.812 88.515,13.131 88.068,16.002 L98.603,16.002 C98.385,13.044 96.667,10.812 93.488,10.812 L93.488,10.812 Z M83.775,17.639 C83.775,11.596 87.71,7.198 93.564,7.198 C99.322,7.198 102.76,11.54 102.76,17.961 L102.76,19.141 L88.067,19.141 C88.588,22.265 90.677,24.371 94.044,24.371 C96.73,24.371 98.409,23.557 100.001,22.069 L102.3,24.864 C100.134,26.842 97.378,27.983 93.89,27.983 C87.553,27.983 83.775,23.395 83.775,17.639 Z M108.008,11.193 L104.024,11.193 L104.024,7.674 L108.008,7.674 L108.008,1.856 L112.185,1.856 L112.185,7.674 L118.238,7.674 L118.238,11.193 L112.185,11.193 L112.185,20.11 C112.185,23.155 113.165,24.237 115.575,24.237 C116.676,24.237 117.306,24.143 118.238,23.989 L118.238,27.469 C117.109933,27.7888835 115.942535,27.948778 114.77,27.944104 C110.262,27.944104 108.008,25.499 108.008,20.604 L108.008,11.193 L108.008,11.193 Z M135.824,14.614 C134.985,12.512 133.114,10.964 130.364,10.964 C126.79,10.964 124.503,13.481 124.503,17.581 C124.503,21.579 126.608,24.218 130.193,24.218 C133.01,24.218 135.022,22.591 135.824,20.566 L135.824,14.614 Z M140,27.507 L135.9,27.507 L135.9,24.731 C134.754,26.365 132.669,27.983 129.292,27.983 C123.86,27.983 120.23,23.469 120.23,17.581 C120.23,11.638 123.947,7.198 129.522,7.198 C132.278,7.198 134.44,8.292 135.9,10.222 L135.9,7.674 L140,7.674 L140,27.508 L140,27.507 Z" id="Shape"></path>
        </g>
    </g>
</svg>