<?xml version="1.0" encoding="UTF-8"?>
<svg width="171px" height="48px" viewBox="0 0 171 48" version="1.1" xmlns="http://www.w3.org/2000/svg" xmlns:xlink="http://www.w3.org/1999/xlink">
    <title>Group 2</title>
    <defs>
        <polygon id="path-1" points="-5.68434189e-14 0 170 0 170 46.8437493 -5.68434189e-14 46.8437493"></polygon>
    </defs>
    <g id="Page-1" stroke="none" stroke-width="1" fill="none" fill-rule="evenodd">
        <g id="Group-2" transform="translate(0.807292, 0.489584)">
            <mask id="mask-2" fill="white">
                <use xlink:href="#path-1"></use>
            </mask>
            <g id="Path"></g>
            <path d="M32.682292,0.291666667 C27.6510413,1.22395733 21.5885413,4.31249867 15.875,8.86979067 C11.9895827,11.9791653 9.34374933,14.8489573 6.40624933,19.203124 C2.557292,24.890624 0.338541333,30.5937493 0.0989586667,35.385416 C-0.213542667,41.2395827 2.505208,44.9322907 8.125,46.3020827 C9.45833333,46.635416 10.307292,46.7083333 12.9687493,46.7083333 C16.447916,46.7239573 17.2812493,46.5989573 20.0885413,45.6822907 C23.1041667,44.692708 27.322916,42.3697907 29.8906253,40.322916 C30.3906253,39.9218747 30.9062493,39.520832 31.0208333,39.447916 C31.1666667,39.375 31.2239587,39.7760413 31.203124,40.8385413 C31.1875,43.505208 32.1458333,45.2083333 34.197916,46.2135413 C36.9375,47.5468747 41.375,46.3593747 46.4947907,42.9218747 C47.9739587,41.9166667 48.2187493,41.8072907 48.1406253,42.1718747 C48.0156253,42.8489573 48.6406253,44.5833333 49.2708333,45.2968747 C50.1562493,46.2864573 51.432292,46.817708 53.0260413,46.817708 C56.260416,46.817708 59.6093747,44.953124 63.8437493,40.7812493 C65.1197907,39.520832 65.8385413,38.9166667 65.5989587,39.3020827 C63.0833333,43.270832 61.2343747,46.25 61.2343747,46.3385413 C61.2343747,46.395832 62.510416,46.447916 64.0625,46.447916 L66.875,46.447916 L68.7239587,43.2864573 C73.7343747,34.6718747 76.7135413,29.9374987 78.2864573,28.125 C80.1510413,25.9843747 83.4270827,24.3593747 85.4791667,24.5416667 C86.4791667,24.6510413 87.2708333,25.1093747 87.4947907,25.7135413 C87.625,26.0572907 87.567708,26.078124 86.4947907,26.005208 C85.5520827,25.947916 85.2916667,26.005208 84.8489587,26.3333333 C84.1093747,26.9166667 83.7395827,27.7395827 83.7239587,28.8593747 C83.7239587,29.770832 83.760416,29.9010413 84.4062493,30.4687493 C84.9635413,30.9791653 85.2187493,31.0885413 85.9218747,31.0885413 C87.7708333,31.0885413 89.9739587,29.770832 92.7656253,26.9895827 C93.8906253,25.8593747 94.447916,25.4010413 94.2083333,25.7864573 C92.947916,27.8124987 86.442708,39.078124 85.8697907,40.2135413 C85.2395827,41.4739573 85.182292,41.7135413 85.182292,43.1197907 L85.182292,44.640624 L85.942708,45.3541653 C87.567708,46.8541653 90.7291667,46.7812493 94.0416667,45.1874987 C95.9270827,44.255208 98.9791667,41.8437493 102.4375,38.515624 L105.083333,35.9739573 L103.859375,38.328124 C101.604167,42.7760413 101.531249,45.005208 103.604167,46.4114573 C104.177083,46.817708 104.380208,46.8541653 106.098959,46.7812493 C107.854167,46.7239573 108.057292,46.6718747 109.520833,45.9583333 C111.3125,45.078124 113.401041,43.3593747 116.953124,39.8489573 C118.25,38.567708 119.281249,37.6562493 119.229167,37.817708 C118.598959,39.9218747 118.598959,42.3697907 119.265625,43.635416 C120.447916,45.9218747 123.406249,47.125 126.682292,46.6718747 C129.677083,46.25 133.151041,44.880208 136.3125,42.8489573 C139.755208,40.6145827 142.380208,38.4583333 146.927083,34.0312493 C148.651041,32.3697907 149.942708,31.197916 149.776041,31.453124 C149.630208,31.7083333 147.578124,35.0937493 145.229167,38.9895827 C142.859375,42.8645827 140.9375,46.1562493 140.9375,46.265624 C140.9375,46.4322907 141.140625,46.4687493 141.640625,46.375 C142.010416,46.322916 143.156249,46.265624 144.171875,46.265624 L146.041667,46.265624 L149.442708,40.635416 C154.177083,32.828124 155.343749,31.145832 157.416667,29.1666667 C160.781249,25.9687493 165.442708,23.5364573 166.755208,24.3020827 C167.067708,24.4687493 167.046875,24.4843747 166.588541,24.505208 C165.3125,24.505208 164.421875,25.567708 164.421875,27.067708 C164.421875,28.7864573 165.458333,29.755208 167.177083,29.5885413 C168.786457,29.4218747 169.786457,28.1614573 169.786457,26.2447907 C169.786457,24.9635413 169.432292,24.322916 168.416667,23.755208 C167.307292,23.135416 165.828124,23.2083333 164.052083,23.9374987 C162.536457,24.5572907 159.854167,26.2083333 157.968749,27.6666667 C156.786457,28.5624987 156.786457,28.5833333 157.156249,27.9635413 C157.786457,26.9166667 159.354167,24.25 159.598959,23.828124 L159.817708,23.4062493 L157.171875,23.4270827 L154.531249,23.442708 L153.125,25.567708 C147.796875,33.5937493 137.3125,42.5 130.859375,44.4947907 C128.286457,45.2812493 125.718749,44.9166667 124.703124,43.6145827 C123.8125,42.5 123.718749,40.5416667 124.421875,38.4062493 L124.755208,37.395832 L126.885416,37.197916 C132.468749,36.645832 138.406249,33.7395827 141.046875,30.2864573 C142.489583,28.4010413 142.859375,26.9374987 142.286457,25.3437493 C141.843749,24.1562493 141.010416,23.5 139.385416,23.0989573 C138.276041,22.8385413 137.906249,22.822916 136.557292,23.0260413 C131.192708,23.7916667 125.348959,27.8697907 121.296875,33.6874987 C119.265625,36.5937493 113.973959,42.005208 111.666667,43.5260413 C109.1875,45.1718747 107.338541,44.8020827 107.390625,42.703124 C107.411457,41.625 107.838541,40.8020827 112.864583,32.1874987 C115.364583,27.9062493 117.489583,24.2291653 117.619791,23.9947907 L117.838541,23.5885413 L113.270833,23.5885413 L111.036457,26.953124 C106.338541,33.9947907 101.473959,39.1718747 96.3697907,42.572916 C94.817708,43.6145827 92.8385413,44.4374987 91.8958333,44.4374987 C91.1562493,44.4374987 90.2864573,43.8697907 90.0833333,43.270832 C89.7864573,42.3541653 90.192708,41.3489573 92.2656253,37.9114573 C93.2812493,36.2291653 95.578124,32.3489573 97.3906253,29.2968747 L100.661457,23.770832 L103.192708,23.770832 C105.656249,23.770832 105.744791,23.755208 106.171875,23.317708 L106.598959,22.875 L103.989583,22.822916 L101.401041,22.765624 L104.083333,18.1041653 C105.5625,15.5416667 106.802083,13.3333333 106.854167,13.203124 C106.932292,13.0364573 106.375,12.9843747 104.489583,12.9843747 L102.010416,12.9843747 L101.291667,14.2291653 C100.067708,16.2916667 97.130208,20.6666667 95.8541667,22.3124987 C93.635416,25.145832 90.510416,28.1093747 88.8437493,28.9687493 L88.255208,29.260416 L88.4583333,28.7135413 C88.5468747,28.4010413 88.6041667,27.578124 88.567708,26.880208 C88.510416,25.8593747 88.4218747,25.5312493 88.0468747,25.125 C86.385416,23.3541653 82.9270827,23.6614573 79.6562493,25.875 C78.953124,26.3541653 78.932292,26.3541653 79.2083333,25.9322907 C79.875,24.9062493 80.6510413,23.625 80.6510413,23.515624 C80.6510413,23.4635413 79.5416667,23.4062493 78.192708,23.4062493 L75.7343747,23.4062493 L75.0312493,24.6510413 C73.885416,26.6093747 71.0364573,30.7968747 69.2447907,33.192708 C63.6041667,40.6145827 58.682292,44.8020827 55.578124,44.8020827 C54.5416667,44.8020827 54.1145827,44.5833333 53.7447907,43.890624 C53.3593747,43.1562493 53.4114573,42.317708 53.8958333,41.145832 C54.135416,40.5989573 56.5,36.5 59.182292,32.0416667 C61.8437493,27.578124 64.0833333,23.8124987 64.1406253,23.6614573 C64.2135413,23.442708 63.822916,23.4062493 61.755208,23.4062493 L59.2760413,23.4062493 L58.130208,25.4739573 L56.9843747,27.520832 L56.9843747,26.6093747 C56.9843747,26.0416667 56.817708,25.3437493 56.5364573,24.760416 C55.760416,23.0989573 54.375,22.4947907 51.380208,22.4947907 C49.0468747,22.4947907 47.6041667,22.8385413 45.2395827,23.9583333 C40.9114573,25.9843747 36.567708,29.9374987 33.4218747,34.7291653 C32.7760413,35.697916 32.0364573,36.8333333 31.7760413,37.25 C31.1666667,38.2187493 29.3906253,39.703124 26.8593747,41.3645827 C19.703124,46.067708 12.0625,47.0364573 8.73437467,43.6718747 C6.03645733,40.947916 5.260416,36.135416 6.64583333,30.7239573 C7.86458267,26.020832 9.58854133,22.2916667 12.432292,18.2864573 C20.328124,7.09374933 28.5208333,1.135416 36.4739587,0.786457333 C39.0833333,0.656249333 40.5989587,1.020832 42.2083333,2.17708267 C43.9843747,3.43749867 45.385416,5.97916533 45.6458333,8.447916 C45.703124,9.03124933 45.8125,9.56249867 45.885416,9.59895733 C45.9583333,9.635416 46.203124,9.328124 46.442708,8.90624933 C47.2916667,7.36979067 49.953124,3.53124933 50.8958333,2.505208 C51.8437493,1.442708 51.9895827,1.078124 51.2864573,1.442708 C50.4895827,1.86458267 47.7708333,2.375 46.3489587,2.375 C44.9635413,2.375 44.7395827,2.322916 43.1875,1.572916 C42.260416,1.11458267 41.0208333,0.619790667 40.4114573,0.458333333 C38.8593747,0.015624 34.5885413,-0.0729173333 32.682292,0.291666667 Z M54.5416667,23.828124 C56.1666667,24.8697907 56.557292,26.9166667 55.6145827,29.3333333 C55.3541667,30.0260413 54.635416,31.4739573 54.005208,32.5312493 C50.3437493,38.9166667 45.682292,43.322916 41.1145827,44.7291653 C35.4739587,46.4895827 33.828124,42.2447907 37.510416,35.4791653 C40.7656253,29.4791653 45.072916,25.3072907 49.7708333,23.645832 C51.4739587,23.0416667 53.447916,23.0989573 54.5416667,23.828124 Z M137.791667,24.0468747 C138.572916,24.447916 138.848959,25.4583333 138.552083,26.8072907 C137.666667,30.6874987 133.098959,34.8541653 128.401041,36.0468747 C126.994791,36.390624 125.218749,36.520832 125.218749,36.2447907 C125.218749,35.953124 127.421875,32.260416 128.546875,30.6666667 C130.229167,28.2916667 133.484375,25.1093747 135,24.3593747 C136.3125,23.7187493 136.979167,23.645832 137.791667,24.0468747 Z" id="Shape" fill="#000000" fill-rule="nonzero" mask="url(#mask-2)"></path>
            <path d="M117.343749,14.885416 C116.786457,15.4322907 116.713541,15.635416 116.713541,16.4218747 C116.713541,17.5364573 117.177083,18.197916 118.171875,18.4895827 C119.708333,18.947916 120.963541,17.9947907 120.963541,16.4218747 C120.963541,15.635416 120.890625,15.4322907 120.338541,14.885416 C119.802083,14.3541653 119.578124,14.265624 118.838541,14.265624 C118.098959,14.265624 117.880208,14.3541653 117.343749,14.885416 Z" id="Path" fill="#000000" fill-rule="nonzero" mask="url(#mask-2)"></path>
        </g>
    </g>
</svg>