<?xml version="1.0" encoding="UTF-8"?>
<svg width="163px" height="40px" viewBox="0 0 163 40" version="1.1" xmlns="http://www.w3.org/2000/svg" xmlns:xlink="http://www.w3.org/1999/xlink">
    <title>Group 5</title>
    <g id="Page-1" stroke="none" stroke-width="1" fill="none" fill-rule="evenodd">
        <g id="Group-5" transform="translate(0.411459, 0.078125)" fill="#000000" fill-rule="nonzero">
            <path d="M0,0.552082667 C0,0.984374667 0.0208333333,1.10416667 0.0989573333,1.10416667 C0.447916,1.10416667 2.02083333,1.34895733 2.47916667,1.47395733 C3.942708,1.875 4.46874933,2.40624933 4.80208267,3.85416667 C4.93229067,4.42187467 4.9375,5.072916 4.9375,18.942708 C4.9375,32.4322907 4.93229067,33.4791667 4.817708,34.015624 C4.494792,35.4531253 4.0625,35.880208 2.5,36.3125 C2.16666667,36.4114587 1.46874933,36.5416667 0.942708,36.6145827 L0,36.75 L0,37.8125 L15.3333333,37.8125 C23.765624,37.8125 30.6666667,37.7968747 30.6666667,37.7760413 C30.6666667,37.7395827 33.3593747,28.119792 33.4114587,27.9895827 C33.4322907,27.9218747 33.265624,27.9010413 32.7187493,27.9010413 L31.994792,27.9010413 L31.625,28.6145827 C30.4635413,30.880208 29.0572907,32.7708333 27.8645827,33.6718747 C26.0208333,35.0572907 23.010416,35.5572907 16.3958333,35.567708 C13.005208,35.572916 12.3020827,35.515624 11.6458333,35.1822907 C11.3125,35.0208333 11.2031253,34.9218747 11.0572907,34.619792 L10.869792,34.260416 L10.8489573,19.4583333 C10.8333333,3.515624 10.817708,4.15624933 11.197916,3.130208 C11.6510413,1.92187467 12.8541667,1.375 15.5364587,1.130208 L16.1093747,1.08854133 L16.0885413,0.557290667 L16.067708,0.0364586667 L8.03645867,0.015624 L0,0 L0,0.552082667 Z" id="Path"></path>
            <path d="M27.2291667,0.505208 L27.2291667,1.005208 L27.6510413,1.05729067 C28.9322907,1.20312533 29.8645827,1.625 30.5520827,2.35937467 C31.0833333,2.91666667 31.8020827,4.08854133 32.4895827,5.505208 C32.7395827,6.015624 36.1562493,13.625 40.0937493,22.4322907 L47.255208,38.4375 L48.1770827,38.4375 L54.135416,23.2031253 C61.4739573,4.442708 61.067708,5.47916667 61.505208,4.58854133 C62.619792,2.34895733 63.4739573,1.55729067 65.2291667,1.16145867 L65.947916,1 L65.947916,0 L54.3125,0 L54.3125,1.005208 L55.0364587,1.05208267 C56.4062493,1.14583333 57.2395827,1.375 57.7343747,1.79687467 C58.692708,2.60937467 58.7395827,3.869792 57.9114587,6.32812533 C57.4843747,7.567708 49.385416,29.1510413 49.3333333,29.1510413 C49.2864587,29.1510413 40.265624,8.97395733 39.317708,6.760416 C38.244792,4.260416 38.010416,3.33333333 38.2343747,2.5625 C38.385416,2.04687467 38.6822907,1.697916 39.1666667,1.45312533 C39.6718747,1.20312533 40.1822907,1.11458267 41.4010413,1.05729067 L42.380208,1.005208 L42.380208,0 L27.2291667,0 L27.2291667,0.505208 Z" id="Path"></path>
            <path d="M68.2708333,0.0520826667 C68.2395827,0.072916 68.2187493,0.322916 68.2187493,0.593749333 L68.2187493,1.08854133 L68.822916,1.140624 C70.4583333,1.27083333 71.7083333,1.55729067 72.3020827,1.9375 C72.9114587,2.32812533 73.2395827,2.89583333 73.4635413,3.96354133 C73.5885413,4.55208267 73.5989573,5.33854133 73.5989573,18.1718747 C73.5989573,32.5572907 73.6041667,32.2864587 73.255208,33.7031253 C72.9114587,35.125 72.369792,35.692708 70.880208,36.1875 C70.244792,36.4010413 68.760416,36.7135413 68.3489573,36.7135413 L68.1458333,36.7135413 L68.1458333,37.8125 L81.4635413,37.8125 L81.4635413,36.7395827 L80.765624,36.6458333 C79.1510413,36.4322907 77.880208,35.947916 77.4166667,35.375 C76.9270827,34.765624 76.6041667,33.9114587 76.380208,32.635416 C76.1614587,31.375 76.1145827,28.760416 76.135416,17.619792 L76.1614587,6.65104133 L82.7031253,20.890624 C86.3020827,28.7239573 89.5260413,35.7343747 89.869792,36.4739573 L90.4895827,37.817708 L90.8958333,37.7968747 L91.2864587,37.7760413 L98.4531253,21.8072907 C102.390624,13.0260413 105.666667,5.73437467 105.723957,5.619792 C105.817708,5.41666667 105.833333,6.95312533 105.817708,19.3125 L105.796875,33.2239573 L105.635416,33.9218747 C105.421875,34.8593747 105.109375,35.4791667 104.718749,35.7395827 C104.0625,36.197916 102.723957,36.5625 101.307291,36.6822907 L100.718749,36.7343747 L100.718749,37.8125 L116.682291,37.8125 L116.656249,37.2864587 L116.635416,36.755208 L115.869792,36.6614587 C114.911459,36.5416667 113.817708,36.2708333 113.234375,36.005208 C112.244792,35.5572907 111.828125,34.6718747 111.697916,32.6822907 C111.598957,31.2135413 111.661459,4.90624933 111.760416,4.33333333 C111.973957,3.09374933 112.322916,2.380208 112.911459,2 C113.494792,1.59895733 114.723957,1.27604133 116.182291,1.130208 L116.671875,1.08854133 L116.671875,2.13162821e-14 L105.348957,2.13162821e-14 L105.057291,0.640624 C104.895833,1 102.036459,7.36458267 98.7031253,14.7968747 C95.375,22.2239573 92.619792,28.3281253 92.5989573,28.3645827 C92.567708,28.390624 90.6875,24.375 88.4218747,19.442708 C86.1510413,14.5 83.2135413,8.11458267 81.8958333,5.25 L79.494792,0.0364586667 L73.9062493,0.015624 C70.8281253,0.005208 68.2916667,0.0208333333 68.2708333,0.0520826667 Z" id="Path"></path>
            <path d="M122.875,0.0520826667 C122.843749,0.072916 122.822916,0.322916 122.822916,0.593749333 L122.822916,1.08854133 L123.354167,1.140624 C124.755208,1.27083333 125.953125,1.58854133 126.567708,1.97395733 C127.161459,2.34895733 127.479167,2.92187467 127.713541,4.03645867 C127.8125,4.52083333 127.828125,6.140624 127.859375,18.0625 C127.880208,31.7031253 127.864583,32.9062493 127.614583,34.0885413 C127.484375,34.7239573 127.208333,35.3333333 126.942708,35.5781253 C126.458333,36.0364587 125.348957,36.4010413 123.75,36.630208 L122.859375,36.755208 L122.838541,37.2864587 L122.8125,37.8125 L138.630208,37.8125 L138.630208,36.7135413 L138.348957,36.7135413 C137.880208,36.7135413 136.369792,36.4322907 135.760416,36.2291667 C134.75,35.8958333 134.328125,35.494792 134.026041,34.5989573 C133.713541,33.6718747 133.708333,33.5468747 133.677083,26.5937493 L133.645833,19.8958333 L150.9375,19.8958333 L150.906249,26.5572907 C150.885416,32.369792 150.864583,33.2968747 150.760416,33.8281253 C150.598957,34.625 150.375,35.197916 150.109375,35.505208 C149.671875,36.005208 148.317708,36.4635413 146.703125,36.6510413 L145.953125,36.7395827 L145.953125,37.8125 L161.760416,37.8125 L161.760416,37.2968747 C161.760416,36.947916 161.734375,36.7708333 161.671875,36.755208 C161.625,36.7395827 161.156249,36.6718747 160.635416,36.5989573 C158.484375,36.3125 157.552083,35.822916 157.151041,34.760416 C156.723957,33.635416 156.75,34.4270827 156.75,19.0520827 C156.75,4.08854133 156.739583,4.317708 157.093749,3.265624 C157.281249,2.68229067 157.5625,2.29166667 157.984375,2.005208 C158.5625,1.60937467 159.807291,1.27604133 161.270833,1.130208 L161.770833,1.08854133 L161.744792,0.557290667 L161.723957,0.0364586667 L153.843749,0.015624 L145.953125,0 L145.953125,0.552082667 C145.953125,0.984374667 145.973957,1.10416667 146.052083,1.10416667 C146.395833,1.10416667 147.973957,1.34895733 148.432291,1.47395733 C149.567708,1.78645867 150.072916,2.14583333 150.421875,2.90104133 C150.885416,3.90104133 150.875,3.80208267 150.906249,10.880208 L150.9375,17.3281253 L133.645833,17.3281253 L133.677083,10.9166667 C133.697916,5.43229067 133.718749,4.442708 133.817708,4 C134.166667,2.4375 134.630208,1.9375 136.098957,1.510416 C136.635416,1.34895733 138.135416,1.10416667 138.531249,1.10416667 C138.609375,1.10416667 138.630208,0.984374667 138.630208,0.552082667 L138.630208,0 L130.776041,0 C126.453125,0 122.895833,0.0208333333 122.875,0.0520826667 Z" id="Path"></path>
        </g>
    </g>
</svg>