<?xml version="1.0" encoding="UTF-8"?>
<svg width="218px" height="42px" viewBox="0 0 218 42" version="1.1" xmlns="http://www.w3.org/2000/svg" xmlns:xlink="http://www.w3.org/1999/xlink">
    <title>Group 9</title>
    <defs>
        <polygon id="path-1" points="0 0 174.093749 0 174.093749 34.125 0 34.125"></polygon>
        <polygon id="path-3" points="0.427082667 0.458333333 36 0.458333333 36 36 0.427082667 36"></polygon>
    </defs>
    <g id="Page-1" stroke="none" stroke-width="1" fill="none" fill-rule="evenodd">
        <g id="Group-9" transform="translate(0.666667, 0.666667)">
            <g id="Clipped" transform="translate(41.333333, 5.333333)">
                <mask id="mask-2" fill="white">
                    <use xlink:href="#path-1"></use>
                </mask>
                <g id="Path"></g>
                <path d="M159.578125,27.1614587 L151.515625,8.72916667 L156.916667,8.72916667 L162.421875,21.9479173 L168.786459,8.72916667 L174.093749,8.72916667 L161.546875,34.114584 L156.145833,34.114584 L159.578125,27.1614587 Z M139.947917,23.3437493 C140.421875,23.2343747 140.880208,23.067708 141.3125,22.8385413 C141.729167,22.614584 142.119792,22.3437493 142.468749,22.0260413 C142.8125,21.7135413 143.114584,21.3437493 143.359375,20.942708 C143.614584,20.5208333 143.8125,20.067708 143.947917,19.5937493 C144.098959,19.0729173 144.166667,18.5364587 144.166667,18 C144.171875,17.4531253 144.098959,16.9114587 143.947917,16.3906253 C143.8125,15.9166667 143.614584,15.4583333 143.359375,15.0364587 C143.114584,14.635416 142.8125,14.2656253 142.468749,13.942708 C142.119792,13.625 141.734375,13.3541667 141.3125,13.1406253 C140.880208,12.9270827 140.421875,12.760416 139.947917,12.6562507 C139.447917,12.5416667 138.9375,12.4843747 138.427083,12.4843747 C137.916667,12.4843747 137.411459,12.5416667 136.916667,12.6562507 C136.447917,12.760416 135.994792,12.9270827 135.567708,13.1406253 C135.145833,13.3593747 134.760416,13.625 134.411459,13.942708 C134.0625,14.2656253 133.755208,14.630208 133.510416,15.0364587 C133.255208,15.4583333 133.057292,15.9166667 132.927083,16.3906253 C132.786459,16.9166667 132.718749,17.4583333 132.723959,18 C132.718749,18.5364587 132.786459,19.0729173 132.927083,19.5937493 C133.057292,20.067708 133.255208,20.5208333 133.510416,20.942708 C133.755208,21.3489587 134.0625,21.7135413 134.411459,22.0260413 C134.765625,22.3437493 135.151041,22.614584 135.567708,22.8385413 C135.989584,23.067708 136.442708,23.2343747 136.916667,23.3437493 C137.411459,23.4583333 137.916667,23.5156253 138.427083,23.5156253 C138.9375,23.5156253 139.447917,23.4583333 139.947917,23.3437493 M134.5,27.4739587 C133.677083,27.260416 132.880208,26.942708 132.135416,26.5312507 C130.682292,25.7187493 129.484375,24.5208333 128.677083,23.0781253 C128.255208,22.3333333 127.9375,21.5312507 127.729167,20.7031253 C127.286459,18.9218747 127.286459,17.057292 127.729167,15.2760413 C127.9375,14.4531253 128.255208,13.6562507 128.677083,12.9114587 C129.489584,11.4739587 130.6875,10.2812507 132.135416,9.46874933 C132.880208,9.05208267 133.677083,8.73437467 134.5,8.52604133 C135.385416,8.30208267 136.296875,8.192708 137.208333,8.19773971 C137.703125,8.19773971 138.197917,8.22395867 138.6875,8.28645867 C139.135416,8.34374933 139.583333,8.432292 140.015625,8.55208267 C140.421875,8.66666667 140.817708,8.807292 141.208333,8.97395867 C141.567708,9.125 141.916667,9.307292 142.25,9.51562533 C142.567708,9.70833333 142.859375,9.9375 143.130208,10.192708 C143.380208,10.4270827 143.614584,10.682292 143.822917,10.9531253 L143.822917,8.72916667 L148.953125,8.72916667 L148.953125,27.2656253 L143.822917,27.2656253 L143.822917,25.0416667 C143.494792,25.4531253 143.119792,25.8229173 142.708333,26.1458333 C142.25,26.505208 141.75,26.8020827 141.213541,27.0364587 C140.619792,27.2968747 140,27.4843747 139.364584,27.6041667 C138.656251,27.739584 137.932292,27.8022527 137.208333,27.8022527 C136.296875,27.807292 135.385416,27.692708 134.5,27.4739587 M115.875,13.4270827 C116.609375,13.442708 117.343749,13.3593747 118.057292,13.1770827 C118.614584,13.0364587 119.130208,12.7812507 119.578125,12.4218747 C119.979167,12.0885413 120.286459,11.6562507 120.468749,11.1666667 C120.671875,10.614584 120.765625,10.0312507 120.755208,9.442708 C120.770833,8.85937467 120.671875,8.27604133 120.468749,7.72395867 C120.286459,7.244792 119.979167,6.817708 119.578125,6.489584 C119.130208,6.135416 118.609375,5.880208 118.057292,5.744792 C117.343749,5.5625 116.609375,5.47916667 115.875,5.494792 L110.833333,5.494792 L110.833333,13.4270827 L115.875,13.4270827 Z M105.526041,1.119792 L116.375,1.119792 C118.083333,1.119792 119.557292,1.32812533 120.8125,1.739584 C122.0625,2.15625067 123.093749,2.72916667 123.901041,3.46874933 C124.708333,4.192708 125.333333,5.10416667 125.718749,6.114584 C126.125,7.1875 126.328125,8.317708 126.317708,9.45833333 C126.328125,10.5989587 126.125,11.7343747 125.718749,12.7968747 C125.322917,13.8020827 124.703125,14.7031253 123.901041,15.4270827 C123.093749,16.1718747 122.0625,16.75 120.8125,17.1614587 C119.557292,17.5781253 118.083333,17.7864587 116.375,17.7864587 L110.833333,17.7864587 L110.833333,27.2656253 L105.526041,27.2656253 L105.526041,1.119792 Z M82.7291667,8.72916667 L87.8229173,8.72916667 L87.8229173,10.9531253 C88.135416,10.5260413 88.510416,10.135416 88.932292,9.807292 C89.375,9.45833333 89.864584,9.16666667 90.380208,8.9375 C90.9479173,8.682292 91.5468747,8.5 92.1562507,8.385416 C92.8385413,8.255208 93.5312507,8.192708 94.2239587,8.19791733 C95.3020827,8.182292 96.375,8.364584 97.385416,8.72916667 C98.2864587,9.0625 99.1093747,9.58854133 99.7812507,10.2708333 C100.458333,10.9791667 100.973959,11.8229173 101.281251,12.75 C101.640625,13.817708 101.817708,14.9375 101.802083,16.0625 L101.802083,27.2656253 L96.7083333,27.2656253 L96.7083333,17.375 C96.7187493,16.6562507 96.614584,15.932292 96.4010413,15.239584 C96.2239587,14.6718747 95.932292,14.1458333 95.5364587,13.692708 C95.1562507,13.2760413 94.682292,12.9583333 94.1510413,12.760416 C93.5468747,12.5416667 92.9114587,12.4375 92.2760413,12.4479173 C91.630208,12.4375 90.994792,12.5468747 90.385416,12.760416 C89.8541667,12.9531253 89.375,13.2760413 88.994792,13.692708 C88.5989587,14.1458333 88.3020827,14.6718747 88.125,15.239584 C87.9114587,15.932292 87.8125,16.6562507 87.8229173,17.375 L87.8229173,27.2656253 L82.7291667,27.2656253 L82.7291667,8.72916667 Z M70.192708,23.2916667 C70.6770827,23.1718747 71.1458333,23 71.5937493,22.7760413 C72.0156253,22.557292 72.4062507,22.2812507 72.744792,21.9479173 C73.0833333,21.619792 73.375,21.25 73.614584,20.8437493 C73.8593747,20.4270827 74.0364587,19.9791667 74.1510413,19.510416 C74.2708333,19.005208 74.3333333,18.4843747 74.3281253,17.9635413 C74.3333333,17.4479173 74.2708333,16.9270827 74.1510413,16.4270827 C73.9270827,15.494792 73.4375,14.6510413 72.744792,13.989584 C72.4010413,13.6562507 72.0156253,13.375 71.5937493,13.1510413 C71.1510413,12.9166667 70.6770827,12.739584 70.192708,12.625 C69.6614587,12.505208 69.114584,12.4479173 68.5729173,12.4479173 C68.0364587,12.4479173 67.494792,12.505208 66.9739587,12.625 C66.4843747,12.739584 66.0156253,12.9166667 65.5781253,13.1510413 C65.1614587,13.380208 64.7760413,13.6614587 64.432292,13.989584 C64.0989587,14.3125 63.8125,14.682292 63.5833333,15.0885413 C63.3541667,15.510416 63.1718747,15.9531253 63.0468747,16.4166667 C62.9114587,16.9218747 62.8489587,17.442708 62.8541667,17.9635413 C62.8489587,18.4843747 62.9166667,19.005208 63.0468747,19.510416 C63.1718747,19.9739587 63.3489587,20.4270827 63.5833333,20.8437493 C63.8125,21.25 64.0989587,21.625 64.432292,21.9479173 C64.7708333,22.2812507 65.1562507,22.557292 65.5781253,22.7760413 C66.0208333,23 66.489584,23.1770827 66.9739587,23.2916667 C67.494792,23.4166667 68.0312507,23.4791667 68.5729173,23.4791667 C69.119792,23.4791667 69.6614587,23.4166667 70.192708,23.2916667 M65.567708,27.4635413 C64.6510413,27.25 63.760416,26.932292 62.9166667,26.510416 C62.119792,26.114584 61.385416,25.619792 60.7239587,25.0260413 C60.0885413,24.4531253 59.5312507,23.7916667 59.0781253,23.0625 C58.619792,22.317708 58.2708333,21.5156253 58.0364587,20.6770827 C57.5468747,18.9010413 57.5468747,17.0260413 58.0364587,15.25 C58.2708333,14.4166667 58.619792,13.614584 59.0781253,12.875 C59.5364587,12.1510413 60.0885413,11.489584 60.7239587,10.9114587 C61.380208,10.3125 62.119792,9.8125 62.9166667,9.41666667 C63.760416,8.994792 64.6510413,8.67708267 65.567708,8.46354133 C67.557292,8.01562533 69.625,8.01562533 71.6093747,8.46354133 C72.5260413,8.67708267 73.4114587,8.994792 74.25,9.41666667 C75.0416667,9.817708 75.7760413,10.317708 76.4375,10.9114587 C77.0833333,11.4843747 77.6458333,12.1458333 78.1093747,12.875 C78.5729173,13.614584 78.9270827,14.4114587 79.1666667,15.25 C79.6510413,17.0260413 79.6510413,18.9010413 79.1666667,20.6770827 C78.9270827,21.5156253 78.5729173,22.317708 78.1093747,23.0625 C77.6510413,23.7916667 77.0885413,24.4531253 76.4375,25.0260413 C75.7760413,25.614584 75.0364587,26.1093747 74.25,26.510416 C73.4114587,26.932292 72.5312507,27.25 71.619792,27.4635413 C69.630208,27.9114587 67.5625,27.9114587 65.567708,27.4635413 M45.6875,23.2916667 C46.1770827,23.1718747 46.6458333,23 47.0937493,22.7760413 C47.5156253,22.557292 47.9062507,22.2812507 48.244792,21.9479173 C48.5833333,21.619792 48.875,21.25 49.1093747,20.8437493 C49.3541667,20.4270827 49.5364587,19.9791667 49.6458333,19.510416 C49.7708333,19.005208 49.8281253,18.4843747 49.8281253,17.9635413 C49.8281253,17.4479173 49.7708333,16.9270827 49.6458333,16.4270827 C49.4218747,15.494792 48.9375,14.6510413 48.244792,13.989584 C47.9010413,13.6562507 47.510416,13.375 47.0937493,13.1510413 C46.6510413,12.9166667 46.1770827,12.739584 45.6875,12.625 C45.1562507,12.505208 44.614584,12.4479173 44.0729173,12.4479173 C43.5312507,12.4479173 42.994792,12.505208 42.4687493,12.625 C41.9843747,12.739584 41.5156253,12.9166667 41.0781253,13.1510413 C40.6614587,13.380208 40.2760413,13.6614587 39.932292,13.989584 C39.5937493,14.3125 39.307292,14.682292 39.0833333,15.0885413 C38.8541667,15.510416 38.6718747,15.9531253 38.5468747,16.4166667 C38.4114587,16.9218747 38.3437493,17.442708 38.3489587,17.9635413 C38.3489587,18.4843747 38.4114587,19.005208 38.5468747,19.510416 C38.6718747,19.9739587 38.8489587,20.4270827 39.0833333,20.8437493 C39.3125,21.25 39.5989587,21.625 39.932292,21.9479173 C40.2708333,22.2812507 40.6562507,22.557292 41.0781253,22.7760413 C41.5208333,23 41.9843747,23.1770827 42.4687493,23.2916667 C42.994792,23.4166667 43.5312507,23.4791667 44.0729173,23.4791667 C44.614584,23.4791667 45.1562507,23.4166667 45.6875,23.2916667 M41.067708,27.4635413 C40.1458333,27.25 39.255208,26.932292 38.4114587,26.510416 C37.619792,26.114584 36.880208,25.619792 36.2239587,25.0260413 C35.5833333,24.4531253 35.0312507,23.7916667 34.5781253,23.0625 C34.119792,22.317708 33.7656253,21.5156253 33.5312507,20.6770827 C33.0416667,18.9010413 33.0416667,17.0260413 33.5312507,15.25 C33.7656253,14.4166667 34.119792,13.614584 34.5781253,12.875 C35.0364587,12.1510413 35.5885413,11.489584 36.2239587,10.9114587 C36.880208,10.3125 37.614584,9.8125 38.4114587,9.41666667 C39.255208,8.994792 40.1458333,8.67708267 41.067708,8.46354133 C43.057292,8.01562533 45.119792,8.01562533 47.1093747,8.46354133 C48.0260413,8.67708267 48.9114587,8.994792 49.744792,9.41666667 C50.5364587,9.817708 51.2760413,10.317708 51.9375,10.9114587 C52.5833333,11.4843747 53.1458333,12.1458333 53.6093747,12.875 C54.0729173,13.614584 54.4270827,14.4114587 54.6614587,15.25 C55.1510413,17.0260413 55.1510413,18.9010413 54.6614587,20.6770827 C54.4270827,21.5156253 54.0729173,22.317708 53.6093747,23.0625 C53.1458333,23.7916667 52.5833333,24.4531253 51.9375,25.0260413 C51.2708333,25.614584 50.5364587,26.1093747 49.744792,26.510416 C48.9114587,26.932292 48.0312507,27.25 47.119792,27.4635413 C45.125,27.9114587 43.057292,27.9114587 41.067708,27.4635413 M0.854166667,1.119792 L6.21874933,1.119792 L15.3906253,15.0625 L24.5937493,1.119792 L29.9583333,1.119792 L29.9583333,27.2656253 L24.6510413,27.2656253 L24.6510413,9.33854133 L17.0364587,20.9010413 L13.7812507,20.9010413 L6.16666667,9.33854133 L6.16666667,27.2656253 L0.854166667,27.2656253 L0.854166667,1.119792 Z" id="Shape" fill="#000000" fill-rule="nonzero" mask="url(#mask-2)"></path>
            </g>
            <g id="Clipped">
                <mask id="mask-4" fill="white">
                    <use xlink:href="#path-3"></use>
                </mask>
                <g id="Path"></g>
                <path d="M29.942708,11.135416 C32.9062507,11.135416 35.307292,8.744792 35.307292,5.79687467 C35.307292,2.84895867 32.9062507,0.458333333 29.942708,0.458333333 C26.9791667,0.458333333 24.5781253,2.84895867 24.5781253,5.79687467 C24.5781253,7.21354133 25.1458333,8.567708 26.1510413,9.567708 C27.1562507,10.5729173 28.5208333,11.135416 29.942708,11.135416 M13.5,35.1666667 C8.21354133,35.1666667 3.44791733,32 1.42187467,27.135416 C-0.598958667,22.2760413 0.515625333,16.682292 4.255208,12.9635413 C7.994792,9.239584 13.614584,8.130208 18.5,10.1406253 C23.385416,12.1562507 26.5729173,16.8958333 26.5729173,22.1614587 C26.5729173,25.6093747 25.192708,28.9166667 22.744792,31.3593747 C20.2916667,33.7968747 16.9687493,35.1666667 13.5,35.1666667" id="Shape" fill="#000000" fill-rule="nonzero" mask="url(#mask-4)"></path>
            </g>
        </g>
    </g>
</svg>