<svg viewBox=" 0 0 796 169" version="1.1" xmlns="http://www.w3.org/2000/svg" xmlns:xlink="http://www.w3.org/1999/xlink" class="w-full h-auto" data-flip-id="auto-3" style=""><g class="js-l-letter" style="translate: none; rotate: none; scale: none; transform-origin: 0px 0px;" data-svg-origin="0 -0.0000019073486328125" transform="matrix(1,0,0,1,0,0)"><path d="M232.822994,61.2267358 C239.365929,37.719987 239.365929,20.226671 232.822994,9.84001296 C228.461038,3.28 221.372535,0 212.648621,0 C175.026422,0 147.763546,61.2267358 127.589173,106.053472 L140.129475,61.2267358 C146.67241,37.1733938 147.217978,20.226671 140.129475,9.84001296 C135.767518,3.28 128.679016,0 119.955102,0 C82.3329024,0 55.0700266,60.6801426 34.8956536,105.506749 L63.79394,3.28 L59.9775511,0 L59.4319833,0.546667099 C48.5270915,8.20001296 35.9867892,13.1200518 22.3553513,16.9467228 L21.2642157,17.4933161 L19.0832374,25.146658 L21.2642157,25.146658 C28.8982864,26.2399741 33.8058109,26.7866969 35.4412214,30.0666451 C36.5310642,32.2534068 36.5310642,35.5333549 34.8956536,40.453342 L0,164 L17.4478268,164 L22.8996263,151.974172 C47.435956,95.1201815 81.2417668,17.4933161 111.231189,17.4933161 C116.138713,17.4933161 119.409534,19.1333549 121.590513,22.4133031 C126.498037,30.0666451 125.952469,46.4667747 118.865259,70.5201167 L92.1479514,163.453018 L110.141346,163.453018 L115.047578,153.066839 C139.583907,95.6667747 173.935286,16.9467228 203.924708,16.9467228 C208.832232,16.9467228 212.103054,18.5866321 214.284032,21.8667099 C219.191556,29.5200518 218.645989,46.4667747 211.557486,69.9733938 L191.928681,139.400065 C189.202134,148.693575 189.747702,155.800454 192.474248,160.173718 C194.109659,162.907332 196.836205,164 200.108319,164 C210.467643,164 224.644649,150.333225 245.908864,119.720117 L247,118.080207 L236.639383,118.080207 L235.003973,120.266839 C219.191556,141.586697 211.557486,148.146593 208.832232,148.693575 C208.286665,148.693575 207.741097,145.412979 210.467643,136.120765 L232.822994,61.2267358 Z" class="fill-current"></path></g> <g class="js-l-letter" style="translate: none; rotate: none; scale: none; transform-origin: 0px 0px;" data-svg-origin="253 0" transform="matrix(1,0,0,1,0,0)"><path d="M360.473915,149.91875 C359.929741,149.374569 359.385567,146.103017 361.560973,136.289655 L398,3.81612069 L395.280419,0 L394.736245,0.545159914 C392.560839,2.18064224 390.385432,3.81612069 388.210026,5.45159914 C385.490445,7.63224139 382.22798,9.81288363 378.964226,12.5386897 C370.2626,4.36128449 361.016799,0.545159914 349.595593,0.545159914 C304.999114,0.545159914 258.227229,55.6062932 253.332241,113.938535 C250.61395,147.192673 264.753448,169 289.227094,169 C308.807042,169 330.561108,151.009698 350.139767,117.754655 L345.24478,134.654526 C341.438141,148.283621 341.438141,158.096983 344.157721,162.45819 C345.788954,164.638793 347.96436,165.728449 350.683941,165.728449 C360.473915,165.728449 374.613413,151.555172 394.736245,121.570776 L396.911652,118.299741 L387.122967,118.299741 C374.070528,137.926077 363.192206,148.829095 360.473915,149.91875 Z M297.385836,152.099354 C281.069642,152.099354 272.368016,135.2 274.543422,109.032112 C278.894235,60.5128449 313.157856,12.5386897 343.613547,12.5386897 C361.016799,12.5386897 369.719715,27.8031466 371.350948,40.8870259 L359.385567,82.8643535 C336.000269,129.747845 315.877436,152.099354 297.385836,152.099354 Z" class="fill-current"></path></g> <g class="js-l-letter" style="translate: none; rotate: none; scale: none; transform-origin: 0px 0px;" data-svg-origin="393 0" transform="matrix(1,0,0,1,0,0)"><path d="M525,19.0391531 L523.909754,17.9512199 C512.99953,5.98373566 499.363043,0 484.09054,0 C456.273091,0 428.454348,22.3030816 426.272562,46.7819005 C424.636545,65.8210536 439.909048,76.1566123 454.635781,86.4921709 C469.909577,97.3717607 484.09054,107.163288 482.454524,125.114508 C480.818508,144.697047 465.544712,156.664957 443.181081,156.664957 C424.636545,156.664957 412.636075,149.593069 411.000059,114.234918 L411.000059,112.059052 L403.363161,113.691016 L393,148.505781 L393.54577,149.05007 C401.727144,160.472401 418.091187,167 437.181492,167 C469.363807,167 497.727027,143.609759 499.908813,115.322981 C502.090599,92.4758679 483.54477,79.9644429 467.182021,69.0849821 C453.545535,59.8373566 440.454818,51.1337622 441.545064,37.534404 C442.636604,22.3030816 458.454877,9.24758679 474.817626,9.24758679 C487.909636,9.24758679 497.727027,20.6711173 501.544829,39.7102704 L502.090599,41.3422346 L510.273267,39.7102704 L525,19.0391531 Z" class="fill-current"></path></g> <g class="js-l-letter" style="translate: none; rotate: none; scale: none; transform-origin: 0px 0px;" data-svg-origin="509 0" transform="matrix(1,0,0,1,0,0)"><path d="M603.913533,0 C560.726617,0 513.713423,50.7273324 509.340163,102.545686 C506.060866,140.18257 526.833203,168 556.900339,168 C601.179921,168 649.287079,116.182034 653.660339,63.8182986 C656.940932,26.7273139 636.167298,0 603.913533,0 Z M632.886705,66.0000831 C628.513445,113.454739 595.713994,156.545308 563.460229,156.545308 C540.499965,156.545308 526.833203,134.727462 529.566815,102.000176 C533.940075,54.54552 566.19384,12.5454813 598.993291,12.5454813 C621.953555,12.5454813 635.620317,33.8183078 632.886705,66.0000831 Z" class="fill-current"></path></g> <g class="js-l-letter" style="translate: none; rotate: none; scale: none; transform-origin: 0px 0px;" data-svg-origin="642 0" transform="matrix(1,0,0,1,0,0)"><path d="M781.303965,61.0232077 C787.832669,37.0498232 787.832669,20.1594341 781.303965,9.80730309 C776.955796,3.26909672 769.885184,0 761.175944,0 C724.170063,0 696.416619,60.4784315 676.826636,105.156026 L705.667767,3.26909672 L701.314437,0 L700.771239,0.544849885 C689.886625,8.17275473 677.371125,13.0764386 663.766648,16.8903891 L662.67896,17.4351653 L660.501005,25.0630663 L662.67896,25.6079717 C669.752153,26.6976534 675.19446,27.2425588 676.826636,30.5116039 C677.915614,32.6909672 677.915614,35.9601415 676.826636,40.8637736 L642,164 L659.957807,164 L663.766648,155.282547 C688.798938,97.5281255 723.082375,18.524847 752.466705,18.524847 C757.369684,18.524847 760.634036,20.1594341 763.35648,23.9733846 C768.246557,31.6012856 767.704648,48.4916746 760.634036,71.9202829 L741.040182,139.481839 C738.319029,148.744456 738.863518,155.82771 741.583381,160.186437 C743.216847,162.909672 745.93671,164 749.202353,164 C759.537317,164 773.691444,150.378656 794.916184,119.867052 L796,118.232465 L785.665036,118.232465 C770.969,138.391512 761.175944,148.199293 758.4535,148.199293 C757.911592,148.199293 757.369684,144.929602 760.092128,135.668276 L781.303965,61.0232077 Z" class="fill-current"></path></g></svg>